<?xml version="1.0" encoding="UTF-8" standalone="no"?>
<svg
   xmlns:dc="http://purl.org/dc/elements/1.1/"
   xmlns:cc="http://creativecommons.org/ns#"
   xmlns:rdf="http://www.w3.org/1999/02/22-rdf-syntax-ns#"
   xmlns:svg="http://www.w3.org/2000/svg"
   xmlns="http://www.w3.org/2000/svg"
   xmlns:xlink="http://www.w3.org/1999/xlink"
   xmlns:sodipodi="http://sodipodi.sourceforge.net/DTD/sodipodi-0.dtd"
   xmlns:inkscape="http://www.inkscape.org/namespaces/inkscape"
   inkscape:version="1.0rc1 (09960d6, 2020-04-09)"
   sodipodi:docname="60.svg"
   id="svg5745"
   version="1.1"
   viewBox="0 0 27 27"
   height="27mm"
   width="27mm">
  <defs
     id="defs5739">
    <clipPath
       id="SVGID_4_">
      <use
         height="100%"
         width="100%"
         y="0"
         x="0"
         xlink:href="#SVGID_3_"
         style="overflow:visible"
         id="use927" />
    </clipPath>
    <rect
       id="SVGID_3_"
       x="1990.1331"
       y="-117.51"
       width="1094.546"
       height="474.207" />
  </defs>
  <sodipodi:namedview
     inkscape:window-maximized="0"
     inkscape:window-y="23"
     inkscape:window-x="115"
     inkscape:window-height="787"
     inkscape:window-width="1251"
     showgrid="false"
     inkscape:document-rotation="0"
     inkscape:current-layer="layer1"
     inkscape:document-units="mm"
     inkscape:cy="36.874619"
     inkscape:cx="38.466905"
     inkscape:zoom="3.4941237"
     inkscape:pageshadow="2"
     inkscape:pageopacity="0.0"
     borderopacity="1.0"
     bordercolor="#666666"
     pagecolor="#ffffff"
     id="base" />
  <metadata
     id="metadata5742">
    <rdf:RDF>
      <cc:Work
         rdf:about="">
        <dc:format>image/svg+xml</dc:format>
        <dc:type
           rdf:resource="http://purl.org/dc/dcmitype/StillImage" />
        <dc:title></dc:title>
      </cc:Work>
    </rdf:RDF>
  </metadata>
  <g
     id="layer1"
     inkscape:groupmode="layer"
     inkscape:label="Capa 1">
    <g
       transform="matrix(0.25372697,0,0,0.2469833,-656.9475,-122.59038)"
       id="g5036">
      <g
         id="g5030">
        <path
           inkscape:connector-curvature="0"
           style="fill:#dea639"
           d="m 2595.299,567.726 c -3.032,-3.03 -4.933,-7.487 -4.934,-15.746 v -0.119 c 0,-12.835 5.821,-22.7 18.239,-22.701 5.645,-10e-4 9.33,1.663 13.014,4.574 l -4.813,7.072 c -2.734,-2.08 -4.932,-3.327 -8.498,-3.327 -5.169,0 -7.783,4.16 -8.377,9.627 2.08,-1.367 4.516,-2.674 8.615,-2.675 8.26,-0.001 14.619,4.574 14.62,13.249 v 0.119 c 0,8.497 -6.833,14.381 -15.865,14.382 -5.406,10e-4 -9.09,-1.544 -12.001,-4.455 z m 18.776,-9.51 v -0.119 c -10e-4,-3.506 -2.734,-6.061 -7.25,-6.06 -4.517,0 -7.131,2.497 -7.13,6.002 v 0.119 c 0,3.506 2.733,6.18 7.25,6.179 4.515,0 7.13,-2.555 7.13,-6.121 z"
           id="path5026" />
        <path
           inkscape:connector-curvature="0"
           style="fill:#dea639"
           d="m 2623.759,550.788 v -0.119 c 0,-12.063 7.484,-21.511 18.537,-21.512 10.993,-0.001 18.421,9.328 18.423,21.39 v 0.119 c 10e-4,12.063 -7.425,21.512 -18.538,21.512 -11.111,10e-4 -18.421,-9.328 -18.422,-21.39 z m 27.571,-0.003 v -0.119 c -10e-4,-7.547 -3.686,-13.251 -9.152,-13.25 -5.466,0 -9.031,5.527 -9.03,13.133 v 0.119 c 10e-4,7.606 3.625,13.25 9.151,13.25 5.526,0 9.032,-5.587 9.031,-13.133 z"
           id="path5028" />
      </g>
      <g
         id="g5034">
        <path
           inkscape:connector-curvature="0"
           style="fill:#c45241"
           d="m 2664.545,544.152 v -0.35 c 0,-4.462 2.711,-7.83 6.736,-7.83 3.979,-10e-4 6.648,3.324 6.648,7.741 v 0.35 c 10e-4,4.417 -2.71,7.786 -6.735,7.787 -3.98,10e-4 -6.648,-3.281 -6.649,-7.698 z m 22.919,-7.832 h 4.593 l -10.846,16.271 -9.141,14.348 h -4.548 l 10.846,-16.272 z m -18.633,7.482 v 0.219 c 0,2.405 0.964,3.98 2.452,3.98 1.531,0 2.36,-1.575 2.36,-3.937 v -0.219 c 0,-2.406 -0.962,-3.98 -2.45,-3.98 -1.531,0 -2.362,1.574 -2.362,3.937 z m 12.774,15.745 v -0.35 c 0,-4.462 2.711,-7.786 6.735,-7.786 3.979,0 6.648,3.28 6.649,7.697 v 0.35 c 0,4.461 -2.668,7.83 -6.736,7.83 -3.979,10e-4 -6.648,-3.324 -6.648,-7.741 z m 9.099,-0.089 v -0.219 c 0,-2.406 -0.963,-3.98 -2.452,-3.98 -1.486,0 -2.362,1.575 -2.36,3.937 v 0.219 c 0,2.405 0.962,3.98 2.45,3.98 1.531,10e-4 2.362,-1.575 2.362,-3.937 z"
           id="path5032" />
      </g>
    </g>
  </g>
</svg>
