<?xml version="1.0" encoding="UTF-8" standalone="no"?>
<!-- Created with Inkscape (http://www.inkscape.org/) -->

<svg
   xmlns:dc="http://purl.org/dc/elements/1.1/"
   xmlns:cc="http://creativecommons.org/ns#"
   xmlns:rdf="http://www.w3.org/1999/02/22-rdf-syntax-ns#"
   xmlns:svg="http://www.w3.org/2000/svg"
   xmlns="http://www.w3.org/2000/svg"
   xmlns:sodipodi="http://sodipodi.sourceforge.net/DTD/sodipodi-0.dtd"
   xmlns:inkscape="http://www.inkscape.org/namespaces/inkscape"
   width="73.192001mm"
   height="73.192001mm"
   viewBox="0 0 73.192001 73.192001"
   version="1.1"
   id="svg702"
   inkscape:version="0.92.5 (2060ec1f9f, 2020-04-08)"
   sodipodi:docname="about-mision.svg">
  <defs
     id="defs696" />
  <sodipodi:namedview
     id="base"
     pagecolor="#ffffff"
     bordercolor="#666666"
     borderopacity="1.0"
     inkscape:pageopacity="0.0"
     inkscape:pageshadow="2"
     inkscape:zoom="1.979899"
     inkscape:cx="138.18682"
     inkscape:cy="138.41399"
     inkscape:document-units="mm"
     inkscape:current-layer="layer1"
     showgrid="false"
     inkscape:window-width="1920"
     inkscape:window-height="1016"
     inkscape:window-x="0"
     inkscape:window-y="27"
     inkscape:window-maximized="1" />
  <metadata
     id="metadata699">
    <rdf:RDF>
      <cc:Work
         rdf:about="">
        <dc:format>image/svg+xml</dc:format>
        <dc:type
           rdf:resource="http://purl.org/dc/dcmitype/StillImage" />
        <dc:title></dc:title>
      </cc:Work>
    </rdf:RDF>
  </metadata>
  <g
     inkscape:label="Layer 1"
     inkscape:groupmode="layer"
     id="layer1"
     transform="translate(0,-223.808)">
    <path
       inkscape:connector-curvature="0"
       class="cls-3"
       d="m 37.824996,229.83288 v -6.02456 h -2.457989 v 6.02456 c 0.407459,-0.0159 0.817566,-0.0265 1.230318,-0.0265 0.412752,0 0.820211,0.0106 1.227671,0.0265 z"
       id="path306"
       style="stroke-width:0.26458389;fill:#dea639;fill-opacity:1" />
    <path
       inkscape:connector-curvature="0"
       class="cls-3"
       d="M 35.367007,290.97809 V 297 h 2.457989 v -6.02191 c -0.40746,0.0159 -0.817565,0.0265 -1.227671,0.0265 -0.410107,0 -0.822859,-0.0106 -1.230318,-0.0265 z"
       id="path308"
       style="stroke-width:0.26458389;fill:#dea639;fill-opacity:1" />
    <path
       inkscape:connector-curvature="0"
       class="cls-3"
       d="M 6.0245879,259.16459 H 0 v 2.46062 h 6.0245879 c -0.01588,-0.40746 -0.02646,-0.81756 -0.02646,-1.23031 0,-0.41275 0.01058,-0.81227 0.02646,-1.23031 z"
       id="path310"
       style="stroke-width:0.26458389;fill:#dea639;fill-opacity:1" />
    <path
       inkscape:connector-curvature="0"
       class="cls-3"
       d="M 67.167414,261.63579 H 73.192 v -2.4712 h -6.024586 c 0.0185,0.40745 0.0291,0.81756 0.0291,1.23031 0,0.41275 -0.0106,0.83344 -0.0291,1.24089 z"
       id="path312"
       style="stroke-width:0.26458389;fill:#dea639;fill-opacity:1" />
    <path
       inkscape:connector-curvature="0"
       class="cls-3"
       d="m 57.343392,282.89242 4.259808,4.25979 1.740968,-1.74096 -4.251869,-4.25714 q -0.841383,0.90487 -1.748907,1.73831 z"
       id="path314"
       style="stroke-width:0.26458389;fill:#dea639;fill-opacity:1" />
    <path
       inkscape:connector-curvature="0"
       class="cls-3"
       d="m 15.848611,237.91854 -4.259811,-4.25979 -1.740966,1.73831 4.25981,4.2598 q 0.838733,-0.90488 1.740967,-1.73832 z"
       id="path316"
       style="stroke-width:0.26458389;fill:#dea639;fill-opacity:1" />
    <path
       inkscape:connector-curvature="0"
       class="cls-3"
       d="m 59.092299,239.65686 4.259809,-4.2598 -1.740968,-1.73831 -4.259808,4.25979 q 0.896944,0.83344 1.740967,1.73832 z"
       id="path318"
       style="stroke-width:0.26458389;fill:#dea639;fill-opacity:1" />
    <path
       inkscape:connector-curvature="0"
       class="cls-3"
       d="m 14.112936,281.15411 -4.25981,4.25714 1.740966,1.74096 4.25981,-4.25979 q -0.91017,-0.83344 -1.740966,-1.73831 z"
       id="path320"
       style="stroke-width:0.26458389;fill:#dea639;fill-opacity:1" />
    <path
       inkscape:connector-curvature="0"
       class="cls-3"
       d="m 3.1697216,245.45388 -0.928692,2.27806 5.572149,2.27012 c 0.2778141,-0.77258 0.5873772,-1.53458 0.9286916,-2.27806 z"
       id="path322"
       style="stroke-width:0.26458389;fill:#dea639;fill-opacity:1" />
    <path
       inkscape:connector-curvature="0"
       class="cls-3"
       d="m 70.022276,275.35709 0.928694,-2.28071 -5.569504,-2.27013 q -0.420691,1.15888 -0.931334,2.27806 z"
       id="path324"
       style="stroke-width:0.26458389;fill:#dea639;fill-opacity:1" />
    <path
       inkscape:connector-curvature="0"
       class="cls-3"
       d="m 51.546347,226.98067 -2.27807,-0.92869 -2.270139,5.55625 q 1.164175,0.42069 2.278069,0.92869 z"
       id="path326"
       style="stroke-width:0.26458389;fill:#dea639;fill-opacity:1" />
    <path
       inkscape:connector-curvature="0"
       class="cls-3"
       d="m 21.645656,293.825 2.278072,0.92869 2.270135,-5.55625 q -1.164172,-0.42069 -2.278073,-0.92869 z"
       id="path328"
       style="stroke-width:0.26458389;fill:#dea639;fill-opacity:1" />
    <path
       inkscape:connector-curvature="0"
       class="cls-3"
       d="m 2.5056148,273.77223 0.9763162,2.2569 5.5218774,-2.38125 q -0.5291683,-1.10332 -0.9736699,-2.25954 z"
       id="path330"
       style="stroke-width:0.26458389;fill:#dea639;fill-opacity:1" />
    <path
       inkscape:connector-curvature="0"
       class="cls-3"
       d="m 70.686389,247.03873 -0.973674,-2.25954 -5.524524,2.38125 q 0.529173,1.10331 0.973675,2.25954 z"
       id="path332"
       style="stroke-width:0.26458389;fill:#dea639;fill-opacity:1" />
    <path
       inkscape:connector-curvature="0"
       class="cls-3"
       d="m 23.230517,226.31657 -2.259551,0.97366 2.38126,5.52186 q 1.108609,-0.52917 2.259552,-0.97367 z"
       id="path334"
       style="stroke-width:0.26458389;fill:#dea639;fill-opacity:1" />
    <path
       inkscape:connector-curvature="0"
       class="cls-3"
       d="m 49.96149,294.4944 2.25955,-0.97367 -2.3892,-5.51656 q -1.105965,0.52917 -2.25955,0.97367 z"
       id="path336"
       style="stroke-width:0.26458389;fill:#dea639;fill-opacity:1" />
  </g>
</svg>
