<?xml version="1.0" encoding="UTF-8" standalone="no"?>
<svg
   xmlns:dc="http://purl.org/dc/elements/1.1/"
   xmlns:cc="http://creativecommons.org/ns#"
   xmlns:rdf="http://www.w3.org/1999/02/22-rdf-syntax-ns#"
   xmlns:svg="http://www.w3.org/2000/svg"
   xmlns="http://www.w3.org/2000/svg"
   xmlns:xlink="http://www.w3.org/1999/xlink"
   xmlns:sodipodi="http://sodipodi.sourceforge.net/DTD/sodipodi-0.dtd"
   xmlns:inkscape="http://www.inkscape.org/namespaces/inkscape"
   inkscape:version="1.0rc1 (09960d6, 2020-04-09)"
   sodipodi:docname="candelas.svg"
   id="svg5745"
   version="1.1"
   viewBox="0 0 27 27"
   height="27mm"
   width="27mm">
  <defs
     id="defs5739">
    <clipPath
       id="SVGID_4_">
      <use
         height="100%"
         width="100%"
         y="0"
         x="0"
         xlink:href="#SVGID_3_"
         style="overflow:visible"
         id="use927" />
    </clipPath>
    <rect
       id="SVGID_3_"
       x="1990.1331"
       y="-117.51"
       width="1094.546"
       height="474.207" />
  </defs>
  <sodipodi:namedview
     inkscape:window-maximized="0"
     inkscape:window-y="23"
     inkscape:window-x="115"
     inkscape:window-height="787"
     inkscape:window-width="1251"
     showgrid="false"
     inkscape:document-rotation="0"
     inkscape:current-layer="layer1"
     inkscape:document-units="mm"
     inkscape:cy="97.302997"
     inkscape:cx="131.78066"
     inkscape:zoom="0.94745881"
     inkscape:pageshadow="2"
     inkscape:pageopacity="0.0"
     borderopacity="1.0"
     bordercolor="#666666"
     pagecolor="#ffffff"
     id="base" />
  <metadata
     id="metadata5742">
    <rdf:RDF>
      <cc:Work
         rdf:about="">
        <dc:format>image/svg+xml</dc:format>
        <dc:type
           rdf:resource="http://purl.org/dc/dcmitype/StillImage" />
        <dc:title></dc:title>
      </cc:Work>
    </rdf:RDF>
  </metadata>
  <g
     id="layer1"
     inkscape:groupmode="layer"
     inkscape:label="Capa 1">
    <g
       transform="translate(-0.32259074,-2.6458334)"
       id="g7496">
      <rect
         x="7.4489231"
         y="17.545906"
         style="fill:#606060;stroke-width:0.264583"
         width="0.35189584"
         height="3.1702375"
         id="rect5214" />
      <rect
         x="13.984892"
         y="8.3577232"
         style="fill:#606060;stroke-width:0.264583"
         width="0.35189584"
         height="3.1702375"
         id="rect5216" />
      <rect
         x="20.114752"
         y="15.476604"
         style="fill:#606060;stroke-width:0.264583"
         width="0.35189584"
         height="3.1702375"
         id="rect5218" />
      <path
         inkscape:connector-curvature="0"
         style="fill:#dea639;stroke-width:0.264583"
         d="m 9.6333018,15.849405 v 0 -0.0024 c -0.03625,-0.09499 -0.07911,-0.18706 -0.128058,-0.274902 l -1.327679,-2.850866 c -0.222779,-0.478367 -0.903817,-0.474928 -1.121833,0.0056 l -1.307042,2.878402 c -0.159808,0.299508 -0.250561,0.64135 -0.250561,1.004358 0,1.180571 0.956998,2.137569 2.137834,2.137569 1.180835,0 2.137833,-0.956998 2.137833,-2.137569 0,-0.267758 -0.04974,-0.523875 -0.1397,-0.760148 z"
         id="path5220" />
      <path
         inkscape:connector-curvature="0"
         style="fill:#dea639;stroke-width:0.264583"
         d="m 16.299215,6.8726219 v 0 -0.0024 c -0.03784,-0.09895 -0.08229,-0.194469 -0.133086,-0.286015 l -1.380066,-2.963598 c -0.231511,-0.497152 -0.939536,-0.493712 -1.166284,0.0056 l -1.358635,2.992437 c -0.165894,0.31115 -0.26035,0.666485 -0.26035,1.043781 0,1.227402 0.994833,2.221971 2.222235,2.221971 1.227402,0 2.222236,-0.994833 2.222236,-2.221971 0,-0.278077 -0.05186,-0.544248 -0.145257,-0.789781 z"
         id="path5222" />
      <path
         inkscape:connector-curvature="0"
         style="fill:#dea639;stroke-width:0.264583"
         d="m 22.359496,14.171682 v 0 -0.0024 c -0.03863,-0.101071 -0.08387,-0.198702 -0.135996,-0.2921 l -1.409435,-3.026285 c -0.236538,-0.507735 -0.959379,-0.504296 -1.19089,0.0056 l -1.387739,3.055938 c -0.169598,0.317764 -0.265907,0.680508 -0.265907,1.066006 0,1.253331 1.016,2.269596 2.269596,2.269596 1.253596,0 2.269596,-1.016265 2.269596,-2.269596 0,-0.284163 -0.05292,-0.55589 -0.148431,-0.806715 z"
         id="path5224" />
      <path
         inkscape:connector-curvature="0"
         style="fill:#2b2b2c;stroke-width:0.264583"
         d="m 21.609931,27.170661 h -2.567252 v -8.05127 c 0,-0.709084 0.574675,-1.283759 1.283759,-1.283759 v 0 c 0.709083,0 1.283758,0.574675 1.283758,1.283759 v 8.05127 z"
         id="path5226" />
      <path
         inkscape:connector-curvature="0"
         style="fill:#2b2b2c;stroke-width:0.264583"
         d="m 8.9189268,27.170661 h -2.567252 v -6.14336 c 0,-0.708819 0.574675,-1.283758 1.283759,-1.283758 v 0 c 0.709083,0 1.283758,0.574939 1.283758,1.283758 v 6.14336 z"
         id="path5228" />
      <g
         id="g5232"
         transform="matrix(0.26458333,0,0,0.26458333,-684.95377,-157.98475)">
        <path
           inkscape:connector-curvature="0"
           style="fill:#2b2b2c"
           d="m 2647.175,699.8 h -9.703 v -57.194 c 0,-2.68 2.172,-4.852 4.852,-4.852 v 0 c 2.68,0 4.852,2.172 4.852,4.852 V 699.8 Z"
           id="path5230" />
      </g>
      <path
         inkscape:connector-curvature="0"
         style="fill:#c45241;stroke-width:0.264583"
         d="m 21.557015,15.146672 v 0 -0.0013 c -0.02302,-0.06059 -0.05001,-0.118533 -0.08123,-0.17436 L 20.63441,13.163907 c -0.141288,-0.303212 -0.573088,-0.301095 -0.7112,0.0037 l -0.828411,1.824566 c -0.101335,0.189706 -0.15875,0.4064 -0.15875,0.636588 0,0.748241 0.60669,1.354931 1.354931,1.354931 0.748507,0 1.354932,-0.60669 1.354932,-1.354931 0,-0.169863 -0.03122,-0.332317 -0.08837,-0.482071 z"
         id="path5234" />
      <path
         inkscape:connector-curvature="0"
         style="fill:#c45241;stroke-width:0.264583"
         d="m 15.475302,7.8216819 v 0 -0.0013 c -0.02249,-0.05927 -0.04921,-0.115887 -0.07937,-0.17092 L 14.57202,5.8799279 c -0.138113,-0.296862 -0.560917,-0.294745 -0.696384,0.0034 l -0.811212,1.786467 c -0.09922,0.186002 -0.15531,0.398197 -0.15531,0.623358 0,0.732631 0.593989,1.326621 1.326885,1.326621 0.732896,0 1.326885,-0.59399 1.326885,-1.326621 -2.64e-4,-0.165894 -0.03122,-0.324644 -0.08705,-0.471488 z"
         id="path5236" />
      <path
         inkscape:connector-curvature="0"
         style="fill:#c45241;stroke-width:0.264583"
         d="m 8.8178568,16.793968 v 0 -0.0013 c -0.0217,-0.05689 -0.04736,-0.111654 -0.07646,-0.164306 l -0.792692,-1.702065 c -0.132821,-0.285485 -0.53975,-0.283633 -0.669925,0.0032 l -0.780256,1.718733 c -0.09525,0.178859 -0.14949,0.382588 -0.14949,0.599546 0,0.70485 0.571236,1.27635 1.27635,1.27635 0.70485,0 1.27635,-0.5715 1.27635,-1.27635 0,-0.160073 -0.02963,-0.312737 -0.08334,-0.45376 z"
         id="path5238" />
      <g
         id="g5242"
         transform="matrix(0.26458333,0,0,0.26458333,-684.95377,-157.98475)">
        <path
           inkscape:connector-curvature="0"
           style="fill:#dea639"
           d="m 2689.902,705.225 c 0.032,-3.359 -21.67,-6.29 -48.474,-6.545 -26.803,-0.255 -48.557,2.262 -48.589,5.622 -0.011,1.126 2.428,2.202 6.672,3.147 l 83.661,0.796 c 4.26,-0.864 6.719,-1.894 6.73,-3.02 z"
           id="path5240" />
      </g>
    </g>
  </g>
</svg>
