<?xml version="1.0" encoding="UTF-8" standalone="no"?>
<svg
   xmlns:dc="http://purl.org/dc/elements/1.1/"
   xmlns:cc="http://creativecommons.org/ns#"
   xmlns:rdf="http://www.w3.org/1999/02/22-rdf-syntax-ns#"
   xmlns:svg="http://www.w3.org/2000/svg"
   xmlns="http://www.w3.org/2000/svg"
   xmlns:xlink="http://www.w3.org/1999/xlink"
   xmlns:sodipodi="http://sodipodi.sourceforge.net/DTD/sodipodi-0.dtd"
   xmlns:inkscape="http://www.inkscape.org/namespaces/inkscape"
   inkscape:version="1.0rc1 (09960d6, 2020-04-09)"
   sodipodi:docname="cmision.svg"
   id="svg5745"
   version="1.1"
   viewBox="0 0 90 74"
   height="74mm"
   width="90mm">
  <defs
     id="defs5739">
    <clipPath
       id="SVGID_4_">
      <use
         height="100%"
         width="100%"
         y="0"
         x="0"
         xlink:href="#SVGID_3_"
         style="overflow:visible"
         id="use927" />
    </clipPath>
    <rect
       id="SVGID_3_"
       x="1990.1331"
       y="-117.51"
       width="1094.546"
       height="474.207" />
    <clipPath
       id="SVGID_6_">
      <use
         height="100%"
         width="100%"
         y="0"
         x="0"
         id="use1017"
         style="overflow:visible"
         xlink:href="#SVGID_5_" />
    </clipPath>
    <circle
       r="51.238998"
       cy="2654.2849"
       cx="2286.6079"
       id="SVGID_5_" />
    <clipPath
       id="SVGID_12_">
      <use
         height="100%"
         width="100%"
         y="0"
         x="0"
         id="use1053"
         style="overflow:visible"
         xlink:href="#SVGID_11_" />
    </clipPath>
    <circle
       r="51.237999"
       cy="2654.2849"
       cx="2774.25"
       id="SVGID_11_" />
  </defs>
  <sodipodi:namedview
     inkscape:window-maximized="0"
     inkscape:window-y="23"
     inkscape:window-x="115"
     inkscape:window-height="787"
     inkscape:window-width="1251"
     showgrid="false"
     inkscape:document-rotation="0"
     inkscape:current-layer="g4964"
     inkscape:document-units="mm"
     inkscape:cy="155.12795"
     inkscape:cx="153.83831"
     inkscape:zoom="2.1262931"
     inkscape:pageshadow="2"
     inkscape:pageopacity="0.0"
     borderopacity="1.0"
     bordercolor="#666666"
     pagecolor="#ffffff"
     id="base" />
  <metadata
     id="metadata5742">
    <rdf:RDF>
      <cc:Work
         rdf:about="">
        <dc:format>image/svg+xml</dc:format>
        <dc:type
           rdf:resource="http://purl.org/dc/dcmitype/StillImage" />
        <dc:title></dc:title>
      </cc:Work>
    </rdf:RDF>
  </metadata>
  <g
     id="layer1"
     inkscape:groupmode="layer"
     inkscape:label="Capa 1">
    <g
       transform="matrix(0.26458333,0,0,0.26458333,-943.986,72.94214)"
       id="g4542">
      <g
         transform="translate(340.78962,3.2477775)"
         id="g4964">
        <g
           id="g4578">
          <g
             id="g4576">
            <path
               id="path4544"
               d="m 3404.906,-254.097 v -22.766 h -9.298 v 22.766 c 1.542,-0.061 3.091,-0.101 4.649,-0.101 1.558,0 3.106,0.04 4.649,0.101 z"
               style="fill:#dea639"
               inkscape:connector-curvature="0" />
            <path
               id="path4546"
               d="m 3395.607,-23 v 22.766 h 9.298 V -23 c -1.543,0.061 -3.091,0.101 -4.649,0.101 -1.558,0 -3.106,-0.039 -4.649,-0.101 z"
               style="fill:#dea639"
               inkscape:connector-curvature="0" />
            <path
               id="path4548"
               d="m 3284.708,-143.197 h -22.766 v 9.298 h 22.766 c -0.061,-1.543 -0.101,-3.091 -0.101,-4.649 0,-1.558 0.04,-3.106 0.101,-4.649 z"
               style="fill:#dea639"
               inkscape:connector-curvature="0" />
            <path
               id="path4550"
               d="m 3515.805,-133.899 h 22.766 v -9.298 h -22.766 c 0.061,1.543 0.101,3.091 0.101,4.649 0,1.558 -0.04,3.106 -0.101,4.649 z"
               style="fill:#dea639"
               inkscape:connector-curvature="0" />
            <path
               id="path4552"
               d="m 3478.675,-53.555 16.098,16.097 6.575,-6.575 -16.098,-16.097 c -2.104,2.279 -4.297,4.472 -6.575,6.575 z"
               style="fill:#dea639"
               inkscape:connector-curvature="0" />
            <path
               id="path4554"
               d="m 3321.838,-223.542 -16.097,-16.097 -6.575,6.575 16.098,16.098 c 2.102,-2.279 4.296,-4.472 6.574,-6.576 z"
               style="fill:#dea639"
               inkscape:connector-curvature="0" />
            <path
               id="path4556"
               d="m 3485.25,-216.966 16.098,-16.098 -6.575,-6.575 -16.098,16.097 c 2.278,2.104 4.471,4.297 6.575,6.576 z"
               style="fill:#dea639"
               inkscape:connector-curvature="0" />
            <path
               id="path4558"
               d="m 3315.263,-60.13 -16.098,16.098 6.575,6.575 16.097,-16.097 c -2.277,-2.104 -4.471,-4.297 -6.574,-6.576 z"
               style="fill:#dea639"
               inkscape:connector-curvature="0" />
            <path
               id="path4560"
               d="m 3273.925,-195.054 -3.51,8.611 21.051,8.579 c 1.058,-2.927 2.229,-5.799 3.512,-8.61 z"
               style="fill:#dea639"
               inkscape:connector-curvature="0" />
            <path
               id="path4562"
               d="m 3526.588,-82.042 3.509,-8.611 -21.051,-8.579 c -1.058,2.927 -2.229,5.799 -3.511,8.61 z"
               style="fill:#dea639"
               inkscape:connector-curvature="0" />
            <path
               id="path4564"
               d="m 3456.763,-264.879 -8.611,-3.509 -8.579,21.051 c 2.927,1.058 5.798,2.229 8.61,3.511 z"
               style="fill:#dea639"
               inkscape:connector-curvature="0" />
            <path
               id="path4566"
               d="m 3343.75,-12.217 8.61,3.509 8.579,-21.051 c -2.926,-1.058 -5.798,-2.229 -8.61,-3.511 z"
               style="fill:#dea639"
               inkscape:connector-curvature="0" />
            <path
               id="path4568"
               d="m 3271.414,-88.03 3.683,8.538 20.874,-9.004 c -1.339,-2.785 -2.564,-5.635 -3.681,-8.539 z"
               style="fill:#dea639"
               inkscape:connector-curvature="0" />
            <path
               id="path4570"
               d="m 3529.099,-189.066 -3.683,-8.538 -20.874,9.004 c 1.339,2.786 2.564,5.635 3.681,8.539 z"
               style="fill:#dea639"
               inkscape:connector-curvature="0" />
            <path
               id="path4572"
               d="m 3349.738,-267.391 -8.538,3.683 9.004,20.874 c 2.785,-1.339 5.635,-2.564 8.539,-3.681 z"
               style="fill:#dea639"
               inkscape:connector-curvature="0" />
            <path
               id="path4574"
               d="m 3450.774,-9.705 8.538,-3.683 -9.005,-20.874 c -2.785,1.339 -5.635,2.564 -8.539,3.681 z"
               style="fill:#dea639"
               inkscape:connector-curvature="0" />
          </g>
        </g>
      </g>
    </g>
  </g>
</svg>
