<?xml version="1.0" encoding="UTF-8" standalone="no"?>
<svg
   xmlns:dc="http://purl.org/dc/elements/1.1/"
   xmlns:cc="http://creativecommons.org/ns#"
   xmlns:rdf="http://www.w3.org/1999/02/22-rdf-syntax-ns#"
   xmlns:svg="http://www.w3.org/2000/svg"
   xmlns="http://www.w3.org/2000/svg"
   xmlns:xlink="http://www.w3.org/1999/xlink"
   xmlns:sodipodi="http://sodipodi.sourceforge.net/DTD/sodipodi-0.dtd"
   xmlns:inkscape="http://www.inkscape.org/namespaces/inkscape"
   inkscape:version="1.0rc1 (09960d6, 2020-04-09)"
   sodipodi:docname="cvision.svg"
   id="svg5745"
   version="1.1"
   viewBox="0 0 90 74"
   height="74mm"
   width="90mm">
  <defs
     id="defs5739">
    <clipPath
       id="SVGID_4_">
      <use
         height="100%"
         width="100%"
         y="0"
         x="0"
         xlink:href="#SVGID_3_"
         style="overflow:visible"
         id="use927" />
    </clipPath>
    <rect
       id="SVGID_3_"
       x="1990.1331"
       y="-117.51"
       width="1094.546"
       height="474.207" />
    <clipPath
       id="SVGID_6_">
      <use
         height="100%"
         width="100%"
         y="0"
         x="0"
         id="use1017"
         style="overflow:visible"
         xlink:href="#SVGID_5_" />
    </clipPath>
    <circle
       r="51.238998"
       cy="2654.2849"
       cx="2286.6079"
       id="SVGID_5_" />
    <clipPath
       id="SVGID_12_">
      <use
         height="100%"
         width="100%"
         y="0"
         x="0"
         id="use1053"
         style="overflow:visible"
         xlink:href="#SVGID_11_" />
    </clipPath>
    <circle
       r="51.237999"
       cy="2654.2849"
       cx="2774.25"
       id="SVGID_11_" />
  </defs>
  <sodipodi:namedview
     inkscape:window-maximized="0"
     inkscape:window-y="23"
     inkscape:window-x="115"
     inkscape:window-height="787"
     inkscape:window-width="1251"
     showgrid="false"
     inkscape:document-rotation="0"
     inkscape:current-layer="g4542"
     inkscape:document-units="mm"
     inkscape:cy="195.35598"
     inkscape:cx="111.41607"
     inkscape:zoom="1.2180692"
     inkscape:pageshadow="2"
     inkscape:pageopacity="0.0"
     borderopacity="1.0"
     bordercolor="#666666"
     pagecolor="#ffffff"
     id="base" />
  <metadata
     id="metadata5742">
    <rdf:RDF>
      <cc:Work
         rdf:about="">
        <dc:format>image/svg+xml</dc:format>
        <dc:type
           rdf:resource="http://purl.org/dc/dcmitype/StillImage" />
        <dc:title></dc:title>
      </cc:Work>
    </rdf:RDF>
  </metadata>
  <g
     id="layer1"
     inkscape:groupmode="layer"
     inkscape:label="Capa 1">
    <g
       transform="matrix(0.26458333,0,0,0.26458333,-943.986,72.94214)"
       id="g4542">
      <g
         id="g4132">
        <g
           id="g4130">
          <path
             inkscape:connector-curvature="0"
             style="fill:#211915"
             d="m 3569.498,-177.047 c 22.764,-0.064 41.411,18.37 41.701,41.301 0.302,23.823 -17.316,42.65 -40.476,43.38 h -1.225 z"
             id="path4094" />
          <g
             id="g4128">
            <path
               inkscape:connector-curvature="0"
               style="fill:#188a52"
               d="m 3764.333,-252.022 v -22.766 h 9.299 v 22.766 c -1.543,-0.061 -3.092,-0.101 -4.649,-0.101 -1.557,0 -3.107,0.04 -4.65,0.101 z"
               id="path4096" />
            <path
               inkscape:connector-curvature="0"
               style="fill:#188a52"
               d="M 3773.632,-20.925 V 1.841 h -9.299 v -22.766 c 1.543,0.061 3.092,0.101 4.649,0.101 1.557,0 3.107,-0.04 4.65,-0.101 z"
               id="path4098" />
            <path
               inkscape:connector-curvature="0"
               style="fill:#188a52"
               d="m 3884.532,-141.123 h 22.766 v 9.298 h -22.766 c 0.061,-1.543 0.101,-3.091 0.101,-4.649 -10e-4,-1.558 -0.041,-3.106 -0.101,-4.649 z"
               id="path4100" />
            <path
               inkscape:connector-curvature="0"
               style="fill:#188a52"
               d="m 3653.434,-131.825 h -22.766 v -9.298 h 22.766 c -0.061,1.543 -0.101,3.091 -0.101,4.649 0,1.558 0.04,3.106 0.101,4.649 z"
               id="path4102" />
            <path
               inkscape:connector-curvature="0"
               style="fill:#188a52"
               d="m 3690.564,-51.48 -16.097,16.098 -6.575,-6.575 16.097,-16.098 c 2.104,2.278 4.297,4.472 6.575,6.575 z"
               id="path4104" />
            <path
               inkscape:connector-curvature="0"
               style="fill:#188a52"
               d="m 3847.401,-221.467 16.098,-16.097 6.575,6.575 -16.098,16.098 c -2.103,-2.279 -4.297,-4.473 -6.575,-6.576 z"
               id="path4106" />
            <path
               inkscape:connector-curvature="0"
               style="fill:#188a52"
               d="m 3683.989,-214.892 -16.097,-16.098 6.575,-6.575 16.097,16.097 c -2.278,2.104 -4.471,4.298 -6.575,6.576 z"
               id="path4108" />
            <path
               inkscape:connector-curvature="0"
               style="fill:#188a52"
               d="m 3853.976,-58.056 16.098,16.098 -6.575,6.575 -16.098,-16.098 c 2.278,-2.102 4.472,-4.296 6.575,-6.575 z"
               id="path4110" />
            <path
               inkscape:connector-curvature="0"
               style="fill:#188a52"
               d="m 3895.314,-192.98 3.51,8.611 -21.051,8.579 c -1.058,-2.927 -2.229,-5.798 -3.512,-8.61 z"
               id="path4112" />
            <path
               inkscape:connector-curvature="0"
               style="fill:#188a52"
               d="m 3642.651,-79.968 -3.509,-8.611 21.051,-8.579 c 1.058,2.927 2.229,5.799 3.512,8.61 z"
               id="path4114" />
            <path
               inkscape:connector-curvature="0"
               style="fill:#188a52"
               d="m 3712.477,-262.805 8.611,-3.509 8.579,21.051 c -2.927,1.058 -5.798,2.229 -8.61,3.511 z"
               id="path4116" />
            <path
               inkscape:connector-curvature="0"
               style="fill:#188a52"
               d="m 3825.489,-10.143 -8.61,3.509 -8.579,-21.051 c 2.927,-1.058 5.798,-2.229 8.609,-3.511 z"
               id="path4118" />
            <path
               inkscape:connector-curvature="0"
               style="fill:#188a52"
               d="m 3897.826,-85.956 -3.684,8.538 -20.873,-9.004 c 1.339,-2.785 2.564,-5.635 3.682,-8.539 z"
               id="path4120" />
            <path
               inkscape:connector-curvature="0"
               style="fill:#188a52"
               d="m 3640.14,-186.992 3.683,-8.538 20.874,9.005 c -1.339,2.785 -2.564,5.635 -3.682,8.539 z"
               id="path4122" />
            <path
               inkscape:connector-curvature="0"
               style="fill:#188a52"
               d="m 3819.5,-265.317 8.538,3.683 -9.005,20.874 c -2.785,-1.339 -5.635,-2.564 -8.538,-3.681 z"
               id="path4124" />
            <path
               inkscape:connector-curvature="0"
               style="fill:#188a52"
               d="m 3718.465,-7.631 -8.538,-3.683 9.005,-20.874 c 2.785,1.339 5.635,2.564 8.539,3.681 z"
               id="path4126" />
          </g>
        </g>
      </g>
    </g>
  </g>
</svg>
