<?xml version="1.0" encoding="UTF-8" standalone="no"?>
<svg
   xmlns:dc="http://purl.org/dc/elements/1.1/"
   xmlns:cc="http://creativecommons.org/ns#"
   xmlns:rdf="http://www.w3.org/1999/02/22-rdf-syntax-ns#"
   xmlns:svg="http://www.w3.org/2000/svg"
   xmlns="http://www.w3.org/2000/svg"
   xmlns:xlink="http://www.w3.org/1999/xlink"
   xmlns:sodipodi="http://sodipodi.sourceforge.net/DTD/sodipodi-0.dtd"
   xmlns:inkscape="http://www.inkscape.org/namespaces/inkscape"
   width="30mm"
   height="12mm"
   viewBox="0 0 30 12"
   version="1.1"
   id="svg5745"
   sodipodi:docname="dosis.svg"
   inkscape:version="1.0rc1 (09960d6, 2020-04-09)">
  <defs
     id="defs5739">
    <clipPath
       id="SVGID_4_">
      <use
         id="use927"
         style="overflow:visible"
         xlink:href="#SVGID_3_"
         x="0"
         y="0"
         width="100%"
         height="100%" />
    </clipPath>
    <rect
       height="474.207"
       width="1094.546"
       y="-117.51"
       x="1990.1331"
       id="SVGID_3_" />
    <clipPath
       id="SVGID_6_">
      <use
         xlink:href="#SVGID_5_"
         style="overflow:visible"
         id="use1017"
         x="0"
         y="0"
         width="100%"
         height="100%" />
    </clipPath>
    <circle
       id="SVGID_5_"
       cx="2286.6079"
       cy="2654.2849"
       r="51.238998" />
    <clipPath
       id="SVGID_12_">
      <use
         xlink:href="#SVGID_11_"
         style="overflow:visible"
         id="use1053"
         x="0"
         y="0"
         width="100%"
         height="100%" />
    </clipPath>
    <circle
       id="SVGID_11_"
       cx="2774.25"
       cy="2654.2849"
       r="51.237999" />
  </defs>
  <sodipodi:namedview
     id="base"
     pagecolor="#ffffff"
     bordercolor="#666666"
     borderopacity="1.0"
     inkscape:pageopacity="0.0"
     inkscape:pageshadow="2"
     inkscape:zoom="7.7289048"
     inkscape:cx="58.255161"
     inkscape:cy="25.829582"
     inkscape:document-units="mm"
     inkscape:current-layer="layer1"
     inkscape:document-rotation="0"
     showgrid="false"
     inkscape:window-width="1251"
     inkscape:window-height="787"
     inkscape:window-x="115"
     inkscape:window-y="23"
     inkscape:window-maximized="0" />
  <metadata
     id="metadata5742">
    <rdf:RDF>
      <cc:Work
         rdf:about="">
        <dc:format>image/svg+xml</dc:format>
        <dc:type
           rdf:resource="http://purl.org/dc/dcmitype/StillImage" />
        <dc:title></dc:title>
      </cc:Work>
    </rdf:RDF>
  </metadata>
  <g
     inkscape:label="Capa 1"
     inkscape:groupmode="layer"
     id="layer1">
    <g
       transform="matrix(0.26458333,0,0,0.26458333,-713.42999,-775.65228)"
       id="g1762">
      <path
         inkscape:connector-curvature="0"
         id="path1678"
         d="m 2720.885,2963.947 c -0.01,0.049 -0.021,0.096 -0.031,0.144 -0.054,0.257 -0.115,0.512 -0.183,0.765 -0.046,0.167 -0.092,0.333 -0.144,0.498 0.206,-0.245 0.399,-0.498 0.584,-0.757 0.116,-0.071 0.228,-0.146 0.342,-0.221 -0.074,-0.345 -0.138,-0.692 -0.188,-1.044 -0.12,0.209 -0.246,0.415 -0.38,0.615"
         style="fill:#2b2b2c" />
      <path
         inkscape:connector-curvature="0"
         id="path1680"
         d="m 2711.754,2953.208 v 4.847 c 0,0.954 0.777,1.761 1.697,1.761 h 2.584 c -0.023,-0.195 -0.052,-0.388 -0.085,-0.577 h -2.499 c -0.612,0 -1.129,-0.542 -1.129,-1.184 v -4.497 c -0.183,-0.124 -0.373,-0.24 -0.568,-0.35"
         style="fill:#2b2b2c" />
      <path
         inkscape:connector-curvature="0"
         id="path1682"
         d="m 2708.63,2961.471 v -9.372 c -0.187,-0.032 -0.376,-0.059 -0.568,-0.082 v 9.454 c 0,0.955 0.777,1.762 1.696,1.762 h 5.644 c -0.624,0.099 -1.273,0.153 -1.948,0.153 h -5.656 v -11.4 c -0.187,-0.019 -0.375,-0.032 -0.568,-0.042 v 12.02 h 6.224 c 0.804,0 1.577,-0.069 2.313,-0.202 0.048,-0.173 0.09,-0.35 0.127,-0.528 0.01,-0.03 0.014,-0.061 0.02,-0.091 0.032,-0.161 0.061,-0.322 0.085,-0.487 h -6.242 c -0.61,-10e-4 -1.127,-0.543 -1.127,-1.185"
         style="fill:#2b2b2c" />
      <path
         inkscape:connector-curvature="0"
         id="path1684"
         d="m 2711.491,2959.968 v -6.91 c -0.185,-0.097 -0.375,-0.187 -0.568,-0.272 v 7.76 h 5.177 c -0.01,-0.195 -0.025,-0.387 -0.045,-0.577 h -4.564 z"
         style="fill:#2b2b2c" />
      <path
         inkscape:connector-curvature="0"
         id="path1686"
         d="m 2702.374,2969.491 c -0.227,0 -0.441,-0.075 -0.62,-0.201 v 0.65 c 0.193,0.082 0.402,0.128 0.62,0.128 h 6.065 c 0.792,-0.122 1.538,-0.327 2.232,-0.605 -0.299,0.017 -0.602,0.028 -0.909,0.028 z"
         style="fill:#2b2b2c" />
      <path
         inkscape:connector-curvature="0"
         id="path1688"
         d="m 2713.454,2966.073 h -7.388 c -0.611,0 -1.128,-0.541 -1.128,-1.184 v -12.96 h -0.568 v 12.96 c 0,0.955 0.776,1.762 1.696,1.762 h 5.658 c -0.629,0.1 -1.284,0.152 -1.962,0.152 h -5.656 v -14.874 h -0.568 v 15.451 h 6.224 c 1.562,0 3.005,-0.262 4.297,-0.743 0.113,0 0.225,-0.01 0.336,-0.017 0.04,-0.054 0.08,-0.107 0.119,-0.162 0.101,-0.145 0.198,-0.292 0.291,-0.442 0.095,-0.154 0.185,-0.312 0.27,-0.472 -0.363,0.194 -0.742,0.366 -1.137,0.519 -0.162,0.01 -0.322,0.01 -0.484,0.01"
         style="fill:#2b2b2c" />
      <path
         inkscape:connector-curvature="0"
         id="path1690"
         d="m 2713.451,2934.046 h 7.389 c 6.261,0 11.115,3.537 12.664,8.806 0.158,-0.131 0.318,-0.26 0.482,-0.384 -1.682,-5.394 -6.699,-8.999 -13.146,-8.999 h -7.389 c -0.919,0 -1.696,0.807 -1.696,1.762 v 1.656 h -1.996 c -0.92,0 -1.696,0.807 -1.696,1.762 v 1.656 h -1.996 c -0.919,0 -1.697,0.807 -1.697,1.761 v 1.656 h -1.996 c -0.92,0 -1.697,0.808 -1.697,1.762 v 1.641 h 0.569 v -1.641 c 0,-0.642 0.517,-1.184 1.128,-1.184 h 1.996 0.568 2.293 0.568 0.264 0.568 1.132 c 0.394,0 0.779,0.018 1.161,0.045 0.19,0.014 0.38,0.03 0.567,0.051 0.089,0.011 0.176,0.024 0.264,0.034 0.191,0.025 0.38,0.053 0.568,0.083 0.797,0.132 1.563,0.324 2.292,0.574 0.192,0.065 0.381,0.135 0.568,0.208 3.938,1.549 6.721,4.807 7.524,8.986 0.131,-0.259 0.271,-0.512 0.417,-0.762 -1.009,-4.143 -3.917,-7.34 -7.941,-8.846 v -0.985 c 4.821,0.67 8.139,4.155 8.461,9.005 0.16,-0.235 0.328,-0.466 0.502,-0.691 -0.293,-2.313 -1.274,-4.395 -2.837,-5.968 -1.607,-1.617 -3.702,-2.614 -6.126,-2.933 -0.188,-0.024 -0.377,-0.045 -0.568,-0.061 -0.38,-0.033 -0.767,-0.049 -1.161,-0.049 h -1.131 -0.568 -0.264 -0.567 -2.293 -0.568 -0.832 v 0.729 h -2.293 v -1.656 c 0,-0.642 0.517,-1.183 1.128,-1.183 h 1.996 0.568 2.293 0.567 0.264 0.568 1.131 c 0.394,0 0.78,0.017 1.161,0.044 0.191,0.014 0.38,0.03 0.568,0.052 5.491,0.597 9.645,4.029 10.992,8.905 0.157,-0.132 0.317,-0.26 0.479,-0.384 -1.475,-5.005 -5.792,-8.51 -11.472,-9.104 v -0.245 h 1.963 c 5.653,0 9.704,3.597 10.173,8.87 0.011,-0.01 0.021,-0.015 0.033,-0.022 0.146,-0.216 0.299,-0.426 0.457,-0.634 -0.325,-2.225 -1.293,-4.225 -2.808,-5.749 -1.978,-1.99 -4.694,-3.042 -7.855,-3.042 h -1.963 -0.568 -2.292 -0.568 -0.831 v 0.73 h -2.293 v -1.656 c 0,-0.642 0.517,-1.185 1.128,-1.185 h 1.996 0.568 2.292 0.568 1.963 c 6.262,0 11.114,3.538 12.664,8.806 0.157,-0.131 0.316,-0.258 0.478,-0.38 -1.681,-5.396 -6.694,-9.003 -13.142,-9.003 h -1.963 v -0.153 h 5.656 c 5.578,0 9.594,3.503 10.15,8.663 0.111,-0.073 0.224,-0.145 0.337,-0.215 0.058,-0.078 0.117,-0.156 0.176,-0.233 -0.326,-2.226 -1.293,-4.226 -2.808,-5.75 -1.979,-1.99 -4.694,-3.042 -7.855,-3.042 h -6.224 v 0.73 h -2.292 v -1.656 c 0,-0.639 0.519,-1.182 1.13,-1.182 m -1.128,9.524 h 1.131 c 0.396,0 0.783,0.019 1.161,0.054 v 0.852 c -0.731,-0.238 -1.498,-0.422 -2.292,-0.548 z m -0.832,0 h 0.264 v 0.278 c -0.088,-0.011 -0.175,-0.023 -0.264,-0.033 z m -2.861,0 h 2.293 v 0.196 c -0.382,-0.027 -0.769,-0.044 -1.161,-0.044 h -1.132 z m 3.693,-3.418 h 2.292 v 0.196 c -0.381,-0.027 -0.768,-0.043 -1.161,-0.043 h -1.131 z m -0.832,0 h 0.263 v 0.153 h -0.263 z"
         style="fill:#2b2b2c" />
      <path
         inkscape:connector-curvature="0"
         id="path1692"
         d="m 2717.617,2949.453 c -0.718,-0.724 -1.534,-1.321 -2.433,-1.792 -0.186,-0.096 -0.375,-0.187 -0.568,-0.273 -0.719,-0.32 -1.484,-0.564 -2.293,-0.729 -0.187,-0.037 -0.376,-0.069 -0.568,-0.1 -0.087,-0.013 -0.175,-0.027 -0.263,-0.039 -0.188,-0.025 -0.377,-0.045 -0.568,-0.061 -0.38,-0.032 -0.767,-0.049 -1.162,-0.049 h -1.131 -0.568 -0.264 -0.567 -2.293 -0.568 -0.832 v 0.715 h 0.568 v -0.139 h 0.264 v 0.139 h 0.568 v -0.139 h 2.293 v 0.147 c 0.19,0.01 0.379,0.015 0.567,0.027 v -0.175 h 0.264 v 0.196 c 0.19,0.015 0.38,0.032 0.568,0.055 v -0.251 h 1.131 c 0.396,0 0.783,0.021 1.162,0.055 v 0.625 c 0.191,0.051 0.381,0.104 0.568,0.162 v -0.722 c 0.088,0.013 0.176,0.026 0.263,0.042 v 0.768 c 0.191,0.062 0.381,0.127 0.568,0.196 v -0.859 c 0.816,0.176 1.583,0.436 2.293,0.772 v 1.177 c 0.193,0.113 0.382,0.231 0.568,0.354 v -1.241 c 2.404,1.338 4.06,3.611 4.603,6.47 0.274,0.564 0.508,1.154 0.703,1.765 h 0.049 c -0.08,-2.759 -1.107,-5.27 -2.922,-7.096"
         style="fill:#2b2b2c" />
      <path
         inkscape:connector-curvature="0"
         id="path1694"
         d="m 2721.11,2961.067 c 0,-0.306 0.013,-0.609 0.03,-0.912 0,-0.079 -0.01,-0.159 -0.014,-0.238 0,-0.035 -0.01,-0.072 -0.01,-0.107 -0.013,-0.164 -0.026,-0.328 -0.044,-0.49 0,-0.028 -0.01,-0.057 -0.012,-0.086 -0.083,-0.726 -0.22,-1.428 -0.404,-2.104 -0.037,-0.137 -0.072,-0.273 -0.113,-0.407 -0.018,-0.057 -0.038,-0.113 -0.056,-0.171 -0.195,-0.611 -0.429,-1.201 -0.703,-1.765 -1.036,-2.137 -2.617,-3.92 -4.604,-5.229 -0.185,-0.122 -0.375,-0.24 -0.567,-0.355 -0.719,-0.424 -1.484,-0.789 -2.293,-1.089 -0.187,-0.069 -0.376,-0.134 -0.568,-0.197 -0.088,-0.028 -0.174,-0.06 -0.263,-0.087 -0.188,-0.058 -0.378,-0.111 -0.569,-0.162 -0.736,-0.194 -1.501,-0.339 -2.292,-0.429 -0.188,-0.021 -0.378,-0.04 -0.568,-0.056 -0.088,-0.01 -0.175,-0.015 -0.263,-0.02 -0.188,-0.013 -0.377,-0.022 -0.568,-0.028 -0.191,-0.01 -0.384,-0.01 -0.578,-0.01 h -1.715 -0.568 -0.264 -0.568 -2.293 -0.567 -1.414 c -1.33,0 -2.454,1.159 -2.454,2.531 v 22.823 c 0,1.372 1.124,2.531 2.454,2.531 h 7.389 c 4.081,0 7.79,-1.428 10.445,-4.018 1.606,-1.568 2.768,-3.498 3.43,-5.64 0.051,-0.165 0.097,-0.332 0.143,-0.498 0.068,-0.253 0.129,-0.507 0.184,-0.765 0.01,-0.048 0.021,-0.096 0.03,-0.144 0.079,-0.396 0.138,-0.798 0.185,-1.204 0.022,-0.201 0.04,-0.402 0.055,-0.604 0,-0.06 0.01,-0.12 0.011,-0.179 -0.015,-0.271 -0.024,-0.544 -0.024,-0.818 z m -0.534,0 c 0,0.191 0,0.383 -0.011,0.572 -0.01,0.217 -0.023,0.434 -0.042,0.649 -0.017,0.2 -0.039,0.399 -0.064,0.599 -0.07,0.543 -0.171,1.077 -0.302,1.6 -0.055,0.218 -0.114,0.435 -0.178,0.648 -0.01,0.031 -0.022,0.061 -0.031,0.092 -0.128,0.408 -0.274,0.809 -0.439,1.2 -0.658,1.553 -1.608,2.961 -2.826,4.148 -2.549,2.487 -6.119,3.856 -10.052,3.856 h -7.389 c -1.022,0 -1.886,-0.895 -1.886,-1.953 v -22.823 c 0,-1.06 0.863,-1.953 1.886,-1.953 h 1.436 0.567 2.293 0.568 0.264 0.568 1.692 c 0.202,0 0.402,0 0.601,0.01 0.191,0.01 0.38,0.018 0.568,0.03 0.088,0.01 0.175,0.015 0.263,0.022 0.191,0.017 0.38,0.035 0.568,0.058 0.792,0.096 1.558,0.246 2.292,0.45 0.191,0.052 0.381,0.108 0.569,0.169 0.088,0.028 0.176,0.059 0.263,0.089 0.191,0.065 0.381,0.135 0.568,0.208 0.813,0.318 1.58,0.705 2.293,1.154 0.193,0.122 0.382,0.248 0.567,0.379 2.183,1.54 3.815,3.698 4.684,6.278 0.04,0.117 0.078,0.235 0.114,0.354 0.022,0.074 0.042,0.148 0.063,0.224 0.155,0.539 0.276,1.095 0.364,1.667 0.023,0.146 0.042,0.294 0.059,0.442 0.011,0.089 0.021,0.178 0.03,0.268 0.01,0.103 0.016,0.206 0.025,0.31 0.01,0.094 0.017,0.188 0.023,0.282 0.015,0.253 0.026,0.509 0.029,0.768 0,0.044 0,0.086 0,0.129 v 0.074 z"
         style="fill:#2b2b2c" />
      <path
         inkscape:connector-curvature="0"
         id="path1696"
         d="m 2716.605,2959.968 c -0.01,-0.052 -0.011,-0.102 -0.017,-0.152 -0.021,-0.196 -0.048,-0.389 -0.08,-0.579 -0.124,-0.742 -0.323,-1.448 -0.593,-2.109 -0.08,-0.196 -0.167,-0.389 -0.258,-0.578 -0.144,-0.293 -0.302,-0.576 -0.474,-0.849 -0.175,-0.277 -0.365,-0.544 -0.568,-0.798 -0.637,-0.798 -1.408,-1.481 -2.293,-2.028 -0.185,-0.114 -0.374,-0.224 -0.568,-0.325 -0.087,-0.045 -0.174,-0.09 -0.264,-0.133 -0.185,-0.09 -0.374,-0.176 -0.568,-0.255 -0.714,-0.293 -1.48,-0.51 -2.293,-0.645 -0.187,-0.031 -0.376,-0.058 -0.568,-0.08 -0.088,-0.011 -0.175,-0.021 -0.263,-0.03 -0.188,-0.018 -0.376,-0.031 -0.569,-0.039 -0.198,-0.01 -0.398,-0.016 -0.601,-0.016 h -1.691 -0.569 -0.263 -0.568 -2.293 -0.082 v 18.174 1.257 h 5.466 c 1.519,0 2.919,-0.265 4.163,-0.75 0.535,-0.21 1.041,-0.461 1.515,-0.75 1.141,-0.697 2.093,-1.62 2.813,-2.72 0.12,-0.185 0.236,-0.372 0.343,-0.565 0.01,-0.018 0.019,-0.037 0.028,-0.055 0.161,-0.295 0.308,-0.6 0.437,-0.916 0.181,-0.444 0.329,-0.908 0.444,-1.391 0.032,-0.133 0.06,-0.268 0.085,-0.403 0.014,-0.075 0.029,-0.149 0.042,-0.226 0.021,-0.116 0.037,-0.233 0.054,-0.353 0.068,-0.489 0.106,-0.993 0.106,-1.514 v -0.074 c 0,-0.176 -0.01,-0.349 -0.012,-0.521 -0.01,-0.195 -0.022,-0.386 -0.041,-0.577 m -0.492,1.173 c 0,0.521 -0.039,1.026 -0.113,1.514 -0.024,0.165 -0.053,0.326 -0.085,0.487 -0.01,0.03 -0.013,0.061 -0.02,0.091 -0.038,0.18 -0.08,0.355 -0.126,0.529 -0.172,0.63 -0.403,1.227 -0.695,1.781 -0.085,0.16 -0.174,0.318 -0.269,0.473 -0.092,0.15 -0.19,0.298 -0.291,0.442 -0.039,0.056 -0.079,0.108 -0.119,0.162 -0.927,1.253 -2.197,2.228 -3.724,2.842 -0.693,0.279 -1.44,0.483 -2.233,0.606 -0.573,0.088 -1.169,0.137 -1.786,0.137 h -4.899 v -0.265 -0.651 -17.36 h 1.785 0.568 0.263 0.569 1.714 c 0.195,0 0.387,0.01 0.578,0.015 0.192,0.01 0.381,0.023 0.569,0.042 0.089,0.01 0.175,0.021 0.263,0.031 0.191,0.023 0.382,0.05 0.568,0.083 0.817,0.143 1.584,0.374 2.293,0.686 0.194,0.086 0.383,0.176 0.568,0.273 0.09,0.047 0.176,0.098 0.264,0.147 0.194,0.11 0.384,0.228 0.568,0.352 0.913,0.616 1.688,1.391 2.293,2.299 0.266,0.398 0.495,0.824 0.694,1.271 0.291,0.656 0.506,1.362 0.64,2.109 0.034,0.19 0.063,0.383 0.085,0.579 0.01,0.051 0.016,0.101 0.021,0.152 0.02,0.19 0.036,0.382 0.045,0.577 0.01,0.172 0.013,0.346 0.013,0.521 v 0.075 z"
         style="fill:#2b2b2c" />
      <path
         inkscape:connector-curvature="0"
         id="path1698"
         d="m 2719.583,2959.917 c 0,-0.034 -0.01,-0.068 -0.011,-0.101 0,-0.028 -0.01,-0.056 -0.01,-0.083 -0.016,-0.166 -0.035,-0.331 -0.057,-0.496 -0.096,-0.729 -0.251,-1.435 -0.463,-2.109 -0.062,-0.195 -0.128,-0.387 -0.199,-0.578 -0.748,-2.017 -2.009,-3.742 -3.662,-5.059 -0.184,-0.148 -0.374,-0.291 -0.568,-0.428 -0.705,-0.498 -1.471,-0.925 -2.293,-1.275 -0.186,-0.079 -0.376,-0.154 -0.568,-0.226 -0.087,-0.032 -0.175,-0.065 -0.263,-0.097 -0.187,-0.065 -0.376,-0.127 -0.569,-0.185 -0.731,-0.22 -1.497,-0.383 -2.292,-0.484 -0.188,-0.024 -0.377,-0.045 -0.569,-0.062 -0.087,-0.01 -0.174,-0.02 -0.263,-0.025 -0.188,-0.015 -0.377,-0.025 -0.568,-0.033 -0.199,-0.01 -0.399,-0.012 -0.601,-0.012 h -1.692 -0.568 -0.264 -0.568 -2.293 -0.568 -1.436 c -0.508,0 -0.938,0.453 -0.938,0.991 v 22.823 c 0,0.537 0.43,0.991 0.938,0.991 h 7.389 c 4.855,0 8.851,-2.17 11.078,-5.636 0.24,-0.373 0.461,-0.762 0.659,-1.164 0.151,-0.308 0.285,-0.625 0.411,-0.947 0.09,-0.232 0.174,-0.469 0.25,-0.711 0.198,-0.625 0.348,-1.275 0.448,-1.949 0.029,-0.195 0.052,-0.394 0.073,-0.593 0,-0.044 0.012,-0.086 0.015,-0.129 0.022,-0.239 0.039,-0.481 0.048,-0.727 0,-0.039 0.01,-0.079 0.01,-0.118 0,-0.143 0.01,-0.285 0.01,-0.43 v -0.072 c 0,-0.229 -0.01,-0.456 -0.021,-0.681 -0.01,-0.131 -0.013,-0.265 -0.024,-0.395 m -1.977,1.224 c 0,0.516 -0.032,1.018 -0.093,1.506 0,0.016 0,0.03 -0.01,0.045 -0.023,0.181 -0.052,0.358 -0.083,0.535 -0.01,0.038 -0.011,0.078 -0.018,0.117 -0.035,0.185 -0.072,0.367 -0.115,0.548 -0.088,0.37 -0.194,0.729 -0.318,1.08 -0.092,0.263 -0.198,0.517 -0.31,0.769 -0.1,0.221 -0.205,0.438 -0.318,0.648 -0.461,0.859 -1.038,1.634 -1.72,2.311 -0.331,0.326 -0.685,0.629 -1.062,0.908 -1.839,1.361 -4.212,2.137 -6.934,2.137 h -6.413 v -21.355 h 0.46 0.568 2.293 0.568 0.264 0.568 1.692 c 0.202,0 0.402,0.01 0.601,0.014 0.191,0.01 0.38,0.02 0.568,0.035 0.089,0.01 0.176,0.019 0.263,0.028 0.191,0.021 0.381,0.044 0.569,0.071 0.802,0.122 1.568,0.318 2.292,0.587 0.192,0.071 0.382,0.146 0.569,0.229 0.088,0.038 0.176,0.081 0.263,0.122 0.193,0.09 0.383,0.186 0.568,0.287 0.843,0.461 1.611,1.037 2.293,1.723 0,0 0,0 0,0 0.198,0.199 0.386,0.407 0.565,0.622 0.614,0.733 1.118,1.555 1.505,2.439 0.082,0.19 0.16,0.383 0.231,0.578 0.248,0.674 0.43,1.38 0.544,2.109 0.03,0.191 0.055,0.384 0.075,0.579 0.01,0.048 0.012,0.095 0.016,0.144 0.018,0.191 0.031,0.383 0.039,0.576 0.01,0.177 0.012,0.354 0.012,0.531 v 0.074 z"
         style="fill:#2b2b2c" />
      <path
         inkscape:connector-curvature="0"
         id="path1700"
         d="m 2749.046,2960.612 c -10e-4,-0.069 0,-0.139 -0.01,-0.207 0,-0.051 -0.01,-0.102 -0.01,-0.153 -0.01,-0.148 -0.014,-0.298 -0.025,-0.447 0,-0.044 -0.01,-0.087 -0.011,-0.13 -0.061,-0.723 -0.171,-1.433 -0.33,-2.127 -0.045,-0.197 -0.094,-0.395 -0.147,-0.59 -0.027,-0.102 -0.055,-0.203 -0.085,-0.303 -0.214,-0.727 -0.483,-1.43 -0.803,-2.106 -0.617,-1.307 -1.425,-2.513 -2.413,-3.572 -1.548,-1.663 -3.462,-2.871 -5.594,-3.574 -0.191,-0.063 -0.385,-0.122 -0.581,-0.177 -0.78,-0.22 -1.588,-0.372 -2.414,-0.457 -0.09,-0.01 -0.178,-0.02 -0.269,-0.027 -0.033,0 -0.067,-0.01 -0.101,-0.011 -0.066,-0.01 -0.134,-0.01 -0.2,-0.012 -0.095,-0.01 -0.188,-0.013 -0.283,-0.017 -0.217,-0.012 -0.435,-0.019 -0.654,-0.019 -0.175,0 -0.349,0.01 -0.523,0.012 -0.056,0 -0.112,0 -0.167,0.01 -0.034,0 -0.068,0 -0.103,0 -0.1,0 -0.199,0.016 -0.298,0.023 -0.12,0.01 -0.241,0.016 -0.36,0.027 -0.117,0.012 -0.234,0.024 -0.35,0.039 -0.203,0.025 -0.404,0.056 -0.604,0.089 -0.371,0.062 -0.735,0.138 -1.095,0.229 -0.193,0.048 -0.383,0.101 -0.572,0.156 -0.129,0.038 -0.258,0.077 -0.385,0.119 l -0.015,0.01 c -0.177,0.058 -0.352,0.121 -0.526,0.188 -0.078,0.028 -0.156,0.058 -0.233,0.088 -0.423,0.169 -0.839,0.357 -1.243,0.567 -0.27,0.14 -0.533,0.289 -0.792,0.447 -0.168,0.102 -0.335,0.207 -0.499,0.316 -0.011,0.01 -0.022,0.015 -0.033,0.022 -0.226,0.152 -0.447,0.313 -0.664,0.479 -0.162,0.124 -0.323,0.252 -0.479,0.384 -0.416,0.35 -0.814,0.725 -1.19,1.128 -0.296,0.317 -0.574,0.648 -0.839,0.99 -0.174,0.226 -0.341,0.456 -0.501,0.691 -0.184,0.271 -0.355,0.546 -0.52,0.826 -0.146,0.25 -0.286,0.503 -0.417,0.762 -0.911,1.795 -1.446,3.791 -1.568,5.873 0,0.05 0.01,0.1 0.01,0.151 0.01,0.228 0.017,0.456 0.017,0.688 v 0.073 c 0,0.016 -10e-4,0.031 -10e-4,0.048 0,0.283 -0.014,0.565 -0.032,0.845 0.023,0.462 0.067,0.92 0.131,1.372 0.05,0.352 0.113,0.699 0.188,1.044 0.547,2.558 1.74,4.898 3.497,6.783 2.578,2.769 6.164,4.293 10.096,4.293 3.932,0 7.53,-1.537 10.131,-4.329 1.436,-1.541 2.499,-3.376 3.145,-5.379 0.04,-0.122 0.077,-0.245 0.113,-0.368 0.077,-0.264 0.147,-0.529 0.21,-0.797 0.028,-0.12 0.055,-0.241 0.08,-0.361 0.066,-0.314 0.119,-0.635 0.166,-0.954 0.029,-0.206 0.056,-0.412 0.077,-0.62 0.041,-0.392 0.069,-0.786 0.079,-1.184 0,-0.131 0.01,-0.262 0.01,-0.393 v -0.073 c 0,-0.127 -0.01,-0.254 -0.01,-0.381 m -0.583,0.455 c 0,0.055 0,0.11 0,0.165 0,0.271 -0.013,0.54 -0.031,0.807 -0.016,0.253 -0.039,0.504 -0.069,0.754 -0.023,0.205 -0.053,0.408 -0.084,0.611 -0.086,0.541 -0.202,1.075 -0.347,1.597 -0.048,0.171 -0.098,0.341 -0.152,0.51 -0.028,0.088 -0.057,0.176 -0.086,0.262 -0.132,0.39 -0.278,0.772 -0.443,1.146 0.012,-0.012 0.025,-0.024 0.038,-0.036 -0.618,1.411 -1.464,2.71 -2.52,3.843 -2.494,2.676 -5.945,4.149 -9.719,4.149 0,0 -0.01,0 -0.012,0 -3.77,0 -7.204,-1.463 -9.671,-4.111 -1.736,-1.863 -2.899,-4.191 -3.401,-6.735 -0.104,-0.522 -0.181,-1.054 -0.227,-1.593 -0.037,-0.427 -0.056,-0.858 -0.056,-1.293 v -0.074 c 0,-2.03 0.409,-3.99 1.183,-5.773 0.136,-0.313 0.284,-0.618 0.442,-0.92 0.116,-0.22 0.237,-0.438 0.365,-0.652 0.175,-0.293 0.359,-0.58 0.555,-0.86 0.357,-0.508 0.749,-0.994 1.174,-1.451 0.297,-0.318 0.609,-0.617 0.932,-0.899 0.083,-0.072 0.166,-0.145 0.25,-0.214 0.078,-0.065 0.159,-0.126 0.238,-0.188 0.177,-0.141 0.356,-0.277 0.54,-0.408 0.133,-0.095 0.266,-0.191 0.402,-0.28 0.049,-0.032 0.1,-0.063 0.149,-0.093 0.535,-0.342 1.092,-0.644 1.67,-0.903 0.208,-0.093 0.419,-0.179 0.633,-0.261 0.034,-0.012 0.066,-0.025 0.101,-0.038 0.146,-0.055 0.293,-0.106 0.443,-0.155 0.08,-0.026 0.16,-0.053 0.241,-0.078 0.194,-0.061 0.39,-0.117 0.587,-0.169 0.331,-0.087 0.666,-0.165 1.005,-0.227 0.093,-0.018 0.185,-0.038 0.279,-0.053 0.105,-0.017 0.211,-0.032 0.318,-0.047 0.022,0 0.046,-0.01 0.07,-0.011 0.241,-0.032 0.485,-0.059 0.73,-0.077 0.01,0 0.016,0 0.025,0 0.147,-0.011 0.294,-0.022 0.443,-0.028 0.042,0 0.084,0 0.126,0 0.174,-0.01 0.35,-0.013 0.525,-0.013 0.175,0 0.35,0.01 0.523,0.013 0.147,0.01 0.293,0.016 0.439,0.025 0.045,0 0.092,0 0.138,0.01 0.145,0.012 0.288,0.027 0.431,0.043 0.841,0.092 1.659,0.257 2.448,0.494 0.199,0.06 0.396,0.123 0.592,0.193 1.94,0.685 3.682,1.811 5.101,3.335 1.44,1.546 2.485,3.411 3.087,5.455 0.01,0.02 0.011,0.041 0.017,0.061 0.057,0.199 0.109,0.4 0.159,0.603 0.105,0.432 0.193,0.869 0.258,1.314 0.041,0.279 0.071,0.563 0.097,0.846 0.01,0.115 0.022,0.23 0.03,0.347 0.01,0.078 0.01,0.157 0.011,0.235 0.01,0.119 0.014,0.238 0.017,0.358 0,0.134 0.01,0.268 0.01,0.402 v 0.071 z"
         style="fill:#2b2b2c" />
      <path
         inkscape:connector-curvature="0"
         id="path1702"
         d="m 2744.543,2960.932 c 0,-0.195 -0.011,-0.391 -0.022,-0.584 -0.02,-0.325 -0.055,-0.646 -0.101,-0.963 -0.033,-0.225 -0.074,-0.446 -0.121,-0.667 -0.258,-1.229 -0.719,-2.384 -1.366,-3.415 -0.318,-0.505 -0.68,-0.981 -1.085,-1.421 -0.318,-0.347 -0.66,-0.663 -1.019,-0.952 -1.023,-0.823 -2.2,-1.407 -3.469,-1.728 -0.213,-0.055 -0.428,-0.102 -0.645,-0.141 -0.256,-0.046 -0.516,-0.082 -0.778,-0.107 -0.189,-0.019 -0.38,-0.029 -0.572,-0.035 -0.11,0 -0.221,-0.01 -0.331,-0.01 0,0 -0.01,0 -0.012,0 -0.381,0 -0.754,0.023 -1.122,0.066 -0.21,0.024 -0.417,0.058 -0.621,0.096 -0.104,0.019 -0.208,0.037 -0.31,0.06 -0.19,0.042 -0.376,0.088 -0.56,0.141 0,0 -0.01,0 -0.012,0 -0.205,0.06 -0.408,0.125 -0.607,0.197 -0.347,0.127 -0.685,0.274 -1.01,0.44 -0.208,0.106 -0.411,0.222 -0.609,0.343 -0.32,0.196 -0.627,0.412 -0.92,0.646 -0.026,0.021 -0.054,0.042 -0.081,0.063 -0.171,0.14 -0.336,0.289 -0.498,0.44 -0.114,0.107 -0.227,0.217 -0.336,0.33 -0.474,0.497 -0.894,1.05 -1.256,1.65 -0.671,1.11 -1.142,2.385 -1.362,3.774 -0.036,0.226 -0.063,0.455 -0.086,0.688 0,0.027 -0.01,0.055 -0.01,0.083 -0.022,0.241 -0.037,0.485 -0.044,0.732 0,0.109 -0.01,0.22 -0.01,0.331 v 0.072 c 0,0.013 0,0.025 0,0.037 0.01,2.73 0.964,5.268 2.696,7.148 1.764,1.917 4.189,2.972 6.825,2.972 h 0.012 0.011 c 1.311,0 2.543,-0.258 3.658,-0.729 0.47,-0.198 0.919,-0.434 1.345,-0.706 1.092,-0.699 2.025,-1.63 2.751,-2.737 0.107,-0.164 0.211,-0.332 0.31,-0.504 0.019,-0.035 0.037,-0.07 0.056,-0.105 0.162,-0.29 0.313,-0.588 0.446,-0.896 -0.01,0.01 -0.021,0.013 -0.031,0.02 0.194,-0.446 0.356,-0.915 0.49,-1.398 0.05,-0.182 0.095,-0.365 0.136,-0.55 0.01,-0.026 0.013,-0.054 0.019,-0.08 0.035,-0.161 0.063,-0.326 0.091,-0.491 0.102,-0.613 0.158,-1.25 0.158,-1.904 v -0.074 c 0,-0.046 0,-0.09 0,-0.136 m -0.543,0.209 c 0,0.636 -0.054,1.252 -0.155,1.846 -0.033,0.192 -0.07,0.381 -0.113,0.568 -0.01,0.035 -0.016,0.072 -0.024,0.108 -0.05,0.209 -0.107,0.415 -0.168,0.617 -0.198,0.647 -0.457,1.26 -0.77,1.829 -0.072,0.133 -0.15,0.26 -0.229,0.387 -0.113,0.184 -0.23,0.363 -0.355,0.538 -0.012,0.017 -0.026,0.033 -0.039,0.051 -0.905,1.243 -2.099,2.222 -3.498,2.835 -0.532,0.233 -1.093,0.414 -1.679,0.537 -0.594,0.125 -1.213,0.189 -1.853,0.189 -2.478,0 -4.754,-0.99 -6.41,-2.788 -1.187,-1.29 -1.985,-2.909 -2.338,-4.69 -0.133,-0.672 -0.205,-1.369 -0.206,-2.079 v -0.022 -0.072 c 0,-0.27 0.01,-0.534 0.029,-0.796 0.019,-0.275 0.049,-0.546 0.089,-0.813 0.247,-1.688 0.88,-3.2 1.808,-4.438 0.187,-0.25 0.388,-0.482 0.598,-0.709 0.051,-0.055 0.1,-0.113 0.152,-0.167 0.13,-0.133 0.265,-0.26 0.402,-0.384 0.241,-0.216 0.494,-0.418 0.757,-0.605 0.214,-0.153 0.435,-0.297 0.664,-0.43 0.334,-0.195 0.682,-0.368 1.043,-0.517 0.195,-0.08 0.395,-0.153 0.597,-0.219 0.055,-0.019 0.11,-0.034 0.166,-0.05 0.183,-0.057 0.367,-0.105 0.555,-0.149 0,-10e-4 0,-10e-4 0.01,-10e-4 0.212,-0.05 0.429,-0.088 0.648,-0.122 0.444,-0.069 0.9,-0.108 1.369,-0.108 0.125,0 0.249,0.01 0.372,0.011 0.194,0.01 0.386,0.021 0.577,0.04 0.316,0.033 0.626,0.084 0.933,0.149 0.228,0.05 0.454,0.106 0.676,0.173 1.466,0.44 2.788,1.261 3.852,2.417 1.068,1.161 1.821,2.591 2.218,4.163 0.058,0.231 0.108,0.465 0.151,0.702 0.066,0.37 0.116,0.745 0.143,1.128 0.014,0.195 0.023,0.393 0.027,0.591 0,0.069 0.01,0.138 0.01,0.206 v 0.074 z"
         style="fill:#2b2b2c" />
      <path
         inkscape:connector-curvature="0"
         id="path1704"
         d="m 2730.833,2948.951 c 0.01,0 0.019,-0.01 0.028,-0.01 0,-0.031 0,-0.063 0,-0.092 -0.01,0.034 -0.016,0.068 -0.023,0.102"
         style="fill:#2b2b2c" />
      <path
         inkscape:connector-curvature="0"
         id="path1706"
         d="m 2725.624,2959.931 c 0,-0.028 0.01,-0.056 0.01,-0.084 -0.024,0.044 -0.045,0.089 -0.07,0.133 0.02,-0.016 0.04,-0.032 0.061,-0.049"
         style="fill:#2b2b2c" />
      <path
         inkscape:connector-curvature="0"
         id="path1708"
         d="M 2730.883,2950.798 Z"
         style="fill:#2b2b2c" />
      <path
         inkscape:connector-curvature="0"
         id="path1710"
         d="m 2720.489,2956.55 c 0.018,0.058 0.038,0.114 0.056,0.171 0,-0.057 -0.01,-0.113 -0.01,-0.171 z"
         style="fill:#2b2b2c" />
      <path
         inkscape:connector-curvature="0"
         id="path1712"
         d="m 2743.826,2959.141 c -0.042,-0.236 -0.093,-0.47 -0.151,-0.701 -1.337,-0.644 -2.546,-1.527 -3.575,-2.632 -1.071,-1.149 -1.909,-2.487 -2.495,-3.948 -0.223,-0.066 -0.449,-0.124 -0.676,-0.172 0.615,1.677 1.544,3.213 2.758,4.517 1.179,1.265 2.583,2.253 4.139,2.936"
         style="fill:#2b2b2c" />
      <path
         inkscape:connector-curvature="0"
         id="path1714"
         d="m 2749.306,2933.605 c 3.563,0 6.808,1.375 9.133,3.872 0.878,0.942 1.599,2.012 2.154,3.17 0.105,-0.199 0.221,-0.395 0.347,-0.584 -0.557,-1.083 -1.254,-2.088 -2.088,-2.982 -2.435,-2.613 -5.825,-4.053 -9.546,-4.053 -3.722,0 -7.125,1.453 -9.583,4.089 -0.363,0.39 -0.699,0.803 -1.011,1.231 -0.979,0.598 -1.88,1.328 -2.681,2.187 -0.363,0.39 -0.699,0.803 -1.012,1.23 -0.355,0.218 -0.7,0.452 -1.033,0.703 -0.164,0.124 -0.325,0.253 -0.482,0.385 -0.409,0.339 -0.798,0.705 -1.165,1.1 -0.297,0.318 -0.574,0.651 -0.836,0.996 -0.059,0.077 -0.118,0.155 -0.175,0.233 -0.114,0.07 -0.226,0.142 -0.338,0.215 -0.238,0.156 -0.472,0.32 -0.701,0.493 -0.162,0.122 -0.321,0.249 -0.479,0.38 -0.407,0.34 -0.797,0.705 -1.164,1.1 -0.297,0.318 -0.574,0.652 -0.835,0.996 -0.158,0.208 -0.313,0.418 -0.458,0.634 0.164,-0.11 0.331,-0.215 0.499,-0.317 0.259,-0.157 0.523,-0.307 0.792,-0.446 0.135,-0.159 0.273,-0.316 0.416,-0.469 0.291,-0.313 0.598,-0.604 0.916,-0.882 0.158,-0.138 0.319,-0.273 0.484,-0.402 0.017,-0.014 0.034,-0.027 0.051,-0.041 0.174,-0.135 0.353,-0.264 0.534,-0.388 0.179,-0.123 0.36,-0.241 0.544,-0.354 0.042,-0.026 0.084,-0.053 0.127,-0.078 0.521,-0.313 1.067,-0.583 1.632,-0.814 0.178,-0.073 0.359,-0.143 0.541,-0.207 0.063,-0.022 0.126,-0.046 0.189,-0.067 0.119,-0.041 0.238,-0.076 0.359,-0.112 0.603,-0.183 1.224,-0.321 1.858,-0.415 0.131,-0.02 0.261,-0.041 0.393,-0.057 0.067,-0.01 0.135,-0.014 0.203,-0.021 0.03,0 0.058,-0.01 0.087,-0.01 0.237,-0.022 0.476,-0.039 0.715,-0.048 0.15,-0.01 0.302,-0.011 0.454,-0.013 0.028,0 0.055,0 0.083,0 0.365,0 0.726,0.019 1.084,0.047 0.191,0.016 0.381,0.035 0.569,0.059 2.907,0.359 5.519,1.662 7.48,3.767 0.907,0.974 1.646,2.085 2.209,3.289 0.112,-0.193 0.231,-0.382 0.36,-0.563 -0.567,-1.138 -1.288,-2.189 -2.157,-3.123 -2.036,-2.184 -4.741,-3.543 -7.748,-3.932 0.01,-0.035 0.021,-0.07 0.032,-0.105 0.578,-0.107 1.175,-0.168 1.79,-0.168 2.691,0 5.164,1.078 6.964,3.033 0.865,0.941 1.54,2.044 2.005,3.25 0.144,-0.142 0.293,-0.278 0.449,-0.41 -0.488,-1.196 -1.172,-2.292 -2.04,-3.234 -1.908,-2.073 -4.529,-3.215 -7.378,-3.215 -0.542,0 -1.071,0.043 -1.585,0.122 -0.219,0.034 -0.436,0.075 -0.649,0.122 -0.5,0.111 -0.986,0.258 -1.453,0.438 -0.046,0.019 -0.093,0.034 -0.139,0.052 -0.215,0 -0.429,0.014 -0.643,0.026 -0.119,0.01 -0.24,0.017 -0.359,0.026 -0.202,0.018 -0.402,0.04 -0.601,0.066 -0.684,0.09 -1.352,0.23 -2,0.42 -0.028,0.01 -0.054,0.017 -0.081,0.025 -0.185,0.055 -0.367,0.114 -0.547,0.178 -0.042,0.014 -0.084,0.028 -0.125,0.043 -0.353,0.126 -0.701,0.265 -1.04,0.42 0.042,-0.047 0.083,-0.096 0.125,-0.142 0.292,-0.312 0.598,-0.604 0.916,-0.882 0.16,-0.139 0.322,-0.274 0.488,-0.404 0.016,-0.013 0.031,-0.025 0.046,-0.039 0.385,-0.298 0.789,-0.569 1.205,-0.818 0.522,-0.313 1.069,-0.583 1.634,-0.815 0.24,-0.098 0.482,-0.191 0.729,-0.274 0.835,-0.283 1.709,-0.479 2.61,-0.584 0.096,-0.01 0.193,-0.02 0.29,-0.029 0.237,-0.021 0.475,-0.038 0.714,-0.048 0.151,-0.01 0.302,-0.011 0.454,-0.012 0.028,0 0.056,0 0.083,0 3.563,0 6.807,1.375 9.133,3.871 0.877,0.942 1.597,2.011 2.153,3.169 0.105,-0.2 0.221,-0.395 0.346,-0.582 -0.556,-1.084 -1.252,-2.089 -2.086,-2.983 -2.104,-2.26 -4.925,-3.639 -8.056,-3.972 0.682,-0.152 1.393,-0.233 2.131,-0.233 2.69,0 5.163,1.077 6.963,3.032 0.824,0.896 1.473,1.938 1.935,3.076 0.143,-0.142 0.292,-0.279 0.448,-0.411 -0.482,-1.128 -1.144,-2.163 -1.968,-3.06 -1.91,-2.073 -4.53,-3.216 -7.378,-3.216 -1.314,0 -2.554,0.243 -3.689,0.685 -0.045,0.017 -0.093,0.033 -0.138,0.051 -0.215,0 -0.43,0.014 -0.643,0.026 -1.021,0.062 -2.011,0.235 -2.961,0.512 -0.254,0.075 -0.506,0.158 -0.753,0.247 -0.353,0.126 -0.701,0.265 -1.039,0.421 0.042,-0.048 0.083,-0.096 0.126,-0.142 0.452,-0.484 0.937,-0.926 1.451,-1.325 0.385,-0.299 0.788,-0.571 1.205,-0.819 1.496,-0.896 3.182,-1.465 4.973,-1.673 0.48,-0.056 0.966,-0.087 1.459,-0.09 0.028,0 0.056,0 0.083,0 3.564,0 6.808,1.374 9.133,3.872 0.878,0.942 1.599,2.011 2.154,3.17 0.106,-0.199 0.221,-0.395 0.347,-0.583 -0.557,-1.084 -1.254,-2.089 -2.088,-2.984 -2.105,-2.259 -4.925,-3.64 -8.055,-3.972 0.681,-0.151 1.393,-0.233 2.129,-0.233 2.69,0 5.164,1.077 6.963,3.033 0.825,0.896 1.474,1.938 1.936,3.076 0.143,-0.142 0.292,-0.279 0.448,-0.411 -0.482,-1.129 -1.144,-2.162 -1.969,-3.059 -1.909,-2.074 -4.529,-3.217 -7.379,-3.217 -1.368,0 -2.655,0.261 -3.826,0.734 -1.917,0.029 -3.744,0.443 -5.397,1.206 0.042,-0.047 0.083,-0.096 0.126,-0.142 2.347,-2.52 5.604,-3.909 9.168,-3.909"
         style="fill:#2b2b2c" />
      <path
         inkscape:connector-curvature="0"
         id="path1716"
         d="m 2738.649,2957.377 c -1.455,-1.581 -2.373,-3.616 -2.654,-5.84 -0.19,-0.021 -0.383,-0.032 -0.576,-0.041 0.28,2.388 1.253,4.578 2.815,6.275 1.542,1.674 3.547,2.74 5.761,3.089 0,-0.198 -0.013,-0.396 -0.026,-0.591 -2.045,-0.347 -3.893,-1.343 -5.32,-2.892"
         style="fill:#2b2b2c" />
      <path
         inkscape:connector-curvature="0"
         id="path1718"
         d="m 2736.407,2959.225 c -1.67,-1.792 -2.778,-4.043 -3.235,-6.503 -0.061,-0.328 -0.11,-0.659 -0.148,-0.994 0,0 0,-0.01 0.01,-0.012 0,0 0,0 -0.01,0 -0.188,0.044 -0.373,0.093 -0.555,0.148 0.031,0.265 0.072,0.526 0.117,0.786 -0.118,0.223 -0.243,0.44 -0.375,0.654 0,-0.473 0.036,-0.937 0.092,-1.39 -0.202,0.065 -0.401,0.139 -0.596,0.219 -0.042,0.415 -0.065,0.837 -0.065,1.268 v 0.074 c 0,0.218 0.01,0.435 0.019,0.649 0.015,0.275 0.039,0.548 0.071,0.818 0.285,2.376 1.256,4.555 2.813,6.243 1.908,2.073 4.529,3.216 7.378,3.216 0.553,0 1.093,-0.043 1.619,-0.124 0.062,-0.202 0.118,-0.408 0.167,-0.617 -0.576,0.105 -1.173,0.165 -1.786,0.165 -2.69,0 -5.163,-1.078 -6.964,-3.034 -1.603,-1.741 -2.552,-4.033 -2.719,-6.521 0.181,-0.257 0.354,-0.516 0.515,-0.783 0.542,2.31 1.647,4.42 3.242,6.132 2.033,2.183 4.734,3.542 7.737,3.933 0.042,-0.188 0.08,-0.377 0.113,-0.568 -2.889,-0.364 -5.487,-1.667 -7.438,-3.761"
         style="fill:#2b2b2c" />
      <path
         inkscape:connector-curvature="0"
         id="path1720"
         d="m 2741.848,2966.514 c -3.563,0 -6.807,-1.375 -9.133,-3.871 -1.481,-1.59 -2.519,-3.542 -3.055,-5.68 -0.05,-0.201 -0.096,-0.404 -0.138,-0.609 -0.014,-0.071 -0.03,-0.143 -0.043,-0.215 -0.061,-0.328 -0.109,-0.662 -0.146,-0.999 -0.053,-0.478 -0.085,-0.962 -0.09,-1.452 -0.137,0.125 -0.272,0.252 -0.402,0.384 -0.053,0.055 -0.102,0.112 -0.153,0.167 -0.21,0.227 -0.411,0.46 -0.598,0.708 -0.091,0.607 -0.141,1.232 -0.141,1.874 v 0.075 c 0,0.214 0.01,0.428 0.019,0.64 0.014,0.277 0.039,0.552 0.071,0.823 0.284,2.378 1.256,4.558 2.813,6.248 1.909,2.074 4.529,3.216 7.378,3.216 1.367,0 2.653,-0.262 3.823,-0.736 0.032,0 0.063,0 0.096,0 0.012,-0.018 0.026,-0.033 0.039,-0.05 0.125,-0.175 0.242,-0.354 0.355,-0.538 0.078,-0.127 0.156,-0.254 0.229,-0.386 -0.272,0.147 -0.553,0.281 -0.841,0.402 -0.03,0 -0.056,0 -0.083,0 m -13.133,-11.855 c 0.035,0.476 0.096,0.945 0.176,1.409 -0.118,0.223 -0.242,0.441 -0.372,0.655 0.01,-0.713 0.072,-1.402 0.196,-2.064 m 9.513,12.587 c -2.69,0 -5.163,-1.077 -6.963,-3.033 -1.595,-1.732 -2.542,-4.011 -2.717,-6.485 0.211,-0.129 0.417,-0.264 0.618,-0.404 0.574,2.146 1.637,4.108 3.136,5.718 2.106,2.261 4.928,3.641 8.06,3.972 -0.682,0.151 -1.395,0.232 -2.134,0.232"
         style="fill:#2b2b2c" />
      <path
         inkscape:connector-curvature="0"
         id="path1722"
         d="m 2729.022,2966.061 c -1.316,-1.413 -2.282,-3.111 -2.858,-4.972 10e-4,0.71 0.073,1.406 0.205,2.079 0.579,1.201 1.329,2.312 2.24,3.289 2.173,2.333 5.108,3.727 8.361,4 0.586,-0.123 1.147,-0.304 1.68,-0.537 -0.165,0.01 -0.329,0.012 -0.495,0.012 -3.563,0 -6.807,-1.374 -9.133,-3.871"
         style="fill:#2b2b2c" />
      <path
         inkscape:connector-curvature="0"
         id="path1724"
         d="m 2739.605,2946.071 c -0.188,-0.026 -0.377,-0.047 -0.567,-0.063 -0.291,-0.025 -0.585,-0.04 -0.882,-0.04 -0.52,0 -1.025,0.041 -1.52,0.114 -0.022,0 -0.044,0.01 -0.067,0.01 -0.169,0.025 -0.337,0.058 -0.503,0.091 -0.049,0.011 -0.097,0.019 -0.145,0.03 -0.456,0.102 -0.897,0.232 -1.325,0.392 -0.043,0.015 -0.086,0.03 -0.129,0.047 -0.047,0.018 -0.096,0.034 -0.142,0.053 0.034,-10e-4 0.068,0 0.102,0 0.055,0 0.112,-0.01 0.167,-0.01 0.174,-0.01 0.348,-0.012 0.523,-0.012 0.22,0 0.438,0.01 0.655,0.018 0.094,0.01 0.188,0.012 0.283,0.018 0.067,0 0.134,0.01 0.2,0.012 0.034,0 0.067,0.01 0.102,0.011 0.089,0.01 0.178,0.019 0.268,0.027 0,-0.017 0,-0.034 0,-0.052 v -0.047 c 0.498,-0.078 1.007,-0.124 1.532,-0.124 0.292,0 0.583,0.016 0.87,0.041 v 0.057 c 0,0.194 0.01,0.389 0.015,0.582 0.195,0.055 0.389,0.113 0.581,0.177 -0.016,-0.248 -0.027,-0.498 -0.027,-0.75 2.125,0.314 4.051,1.325 5.525,2.927 1.263,1.372 2.119,3.086 2.508,4.97 0.321,0.677 0.589,1.38 0.803,2.106 -0.055,-2.849 -1.077,-5.494 -2.896,-7.471 -1.581,-1.717 -3.649,-2.793 -5.93,-3.114"
         style="fill:#2b2b2c" />
      <path
         inkscape:connector-curvature="0"
         id="path1726"
         d="m 2721.141,2960.155 c -0.018,0.303 -0.03,0.605 -0.03,0.913 v 0.073 c 0,0.273 0.01,0.547 0.024,0.818 0.018,-0.28 0.031,-0.561 0.032,-0.845 0,-0.016 0,-0.031 0,-0.047 v -0.074 c 0,-0.231 -0.01,-0.46 -0.017,-0.688 0,-0.05 -0.01,-0.1 -0.01,-0.15"
         style="fill:#2b2b2c" />
      <path
         inkscape:connector-curvature="0"
         id="path1728"
         d="m 2722.751,2959.213 c 0,-0.031 0.013,-0.06 0.017,-0.09 0,0 0,0 0,-0.01 0.035,-0.209 0.063,-0.421 0.088,-0.636 0,-0.032 0.01,-0.063 0.01,-0.097 -0.074,0.373 -0.131,0.75 -0.174,1.131 0.022,-0.099 0.043,-0.2 0.06,-0.302"
         style="fill:#2b2b2c" />
      <path
         inkscape:connector-curvature="0"
         id="path1730"
         d="m 2747.512,2960.813 c 0,-0.195 -0.01,-0.391 -0.022,-0.584 -10e-4,-0.027 0,-0.056 0,-0.084 0,-0.054 0,-0.107 -0.01,-0.161 -0.01,-0.143 -0.024,-0.284 -0.04,-0.427 -0.079,-0.768 -0.219,-1.518 -0.419,-2.245 -0.06,-0.216 -0.125,-0.429 -0.194,-0.64 -0.574,-1.731 -1.497,-3.313 -2.732,-4.639 -1.192,-1.279 -2.629,-2.256 -4.229,-2.901 -0.206,-0.083 -0.416,-0.159 -0.626,-0.231 -0.807,-0.273 -1.649,-0.468 -2.519,-0.574 -0.191,-0.023 -0.384,-0.043 -0.578,-0.059 -0.038,0 -0.075,-0.01 -0.113,-0.01 -0.19,-0.013 -0.38,-0.021 -0.572,-0.026 -0.121,0 -0.239,-0.01 -0.36,-0.01 -0.199,0 -0.396,0.01 -0.592,0.016 -0.192,0.01 -0.382,0.021 -0.572,0.039 -0.184,0.017 -0.366,0.035 -0.547,0.06 -0.119,0.016 -0.235,0.037 -0.352,0.057 -0.112,0.018 -0.226,0.032 -0.338,0.054 -0.083,0.016 -0.164,0.032 -0.245,0.05 -0.04,0.01 -0.078,0.015 -0.117,0.023 -0.298,0.064 -0.591,0.145 -0.881,0.229 -0.124,0.036 -0.249,0.072 -0.372,0.112 -0.073,0.024 -0.146,0.053 -0.218,0.079 -0.01,0 -0.019,0.01 -0.029,0.011 -0.177,0.063 -0.352,0.128 -0.525,0.198 -0.147,0.061 -0.294,0.12 -0.44,0.186 -0.236,0.106 -0.466,0.225 -0.694,0.347 -0.431,0.23 -0.846,0.487 -1.247,0.77 -0.2,0.141 -0.396,0.289 -0.588,0.442 -0.104,0.084 -0.207,0.169 -0.309,0.257 -0.133,0.113 -0.264,0.229 -0.393,0.351 -0.038,0.034 -0.074,0.07 -0.111,0.106 -0.158,0.15 -0.313,0.303 -0.462,0.463 -0.144,0.154 -0.283,0.313 -0.419,0.475 -0.561,0.666 -1.046,1.388 -1.458,2.15 -0.618,1.146 -1.062,2.389 -1.32,3.689 0,0.033 -0.01,0.064 -0.01,0.098 -0.025,0.214 -0.053,0.426 -0.088,0.636 0,0 0,0 0,0 0,0.031 -0.012,0.06 -0.017,0.091 -0.018,0.102 -0.038,0.202 -0.059,0.304 -0.057,0.511 -0.089,1.028 -0.089,1.55 v 0.074 c 0,0.219 0.01,0.437 0.015,0.654 0.014,0.308 0.042,0.612 0.076,0.916 0.025,0.225 0.056,0.449 0.092,0.672 0.413,2.545 1.526,4.876 3.241,6.718 2.29,2.457 5.485,3.811 8.996,3.811 3.511,0 6.719,-1.366 9.032,-3.849 0.475,-0.509 0.901,-1.057 1.283,-1.633 0.263,-0.396 0.504,-0.807 0.721,-1.23 0.153,-0.299 0.293,-0.604 0.423,-0.914 0.101,-0.24 0.195,-0.483 0.281,-0.73 0.226,-0.645 0.401,-1.311 0.525,-1.994 0.037,-0.196 0.068,-0.395 0.095,-0.593 0.01,-0.056 0.016,-0.109 0.022,-0.164 0.031,-0.249 0.056,-0.501 0.075,-0.754 0.01,-0.131 0.016,-0.263 0.021,-0.395 0.01,-0.195 0.014,-0.392 0.014,-0.589 v -0.072 c 0,-0.064 0,-0.123 0,-0.184 m -2.019,0.328 c 0,0.67 -0.054,1.32 -0.152,1.951 -0.01,0.041 -0.011,0.084 -0.019,0.124 -0.024,0.152 -0.054,0.302 -0.085,0.451 -0.014,0.069 -0.027,0.138 -0.043,0.207 -0.034,0.153 -0.07,0.305 -0.11,0.453 -0.103,0.391 -0.224,0.772 -0.363,1.142 -0.104,0.275 -0.221,0.541 -0.345,0.803 -0.104,0.22 -0.212,0.435 -0.329,0.644 -0.485,0.875 -1.081,1.667 -1.771,2.353 -0.321,0.32 -0.663,0.615 -1.023,0.888 -1.702,1.286 -3.814,2.03 -6.158,2.03 -2.902,0 -5.572,-1.162 -7.517,-3.275 -1.832,-1.99 -2.869,-4.645 -2.946,-7.506 0,-0.111 -0.01,-0.225 -0.01,-0.338 v -0.072 c 0,-0.19 0.01,-0.377 0.014,-0.563 0.038,-0.88 0.164,-1.727 0.37,-2.533 0.145,-0.566 0.329,-1.113 0.55,-1.635 0.289,-0.684 0.644,-1.323 1.052,-1.916 0.279,-0.406 0.585,-0.788 0.914,-1.146 0.375,-0.407 0.778,-0.786 1.211,-1.125 0.084,-0.065 0.169,-0.131 0.255,-0.193 0.12,-0.088 0.244,-0.171 0.367,-0.254 0.198,-0.131 0.397,-0.26 0.604,-0.376 0.297,-0.168 0.604,-0.319 0.918,-0.456 v 0 c 0.365,-0.16 0.741,-0.299 1.128,-0.415 0.117,-0.036 0.235,-0.067 0.354,-0.099 0.093,-0.023 0.187,-0.048 0.281,-0.069 0.094,-0.021 0.189,-0.038 0.284,-0.058 0.219,-0.044 0.441,-0.078 0.666,-0.109 0.196,-0.027 0.394,-0.048 0.595,-0.063 0.273,-0.021 0.55,-0.036 0.831,-0.036 0.104,0 0.207,0.01 0.31,0.01 0.19,0.01 0.38,0.016 0.567,0.031 0.18,0.015 0.358,0.035 0.535,0.059 0.206,0.027 0.41,0.063 0.613,0.104 1.008,0.196 1.969,0.539 2.859,1.022 0.299,0.161 0.589,0.338 0.872,0.53 0.634,0.434 1.225,0.941 1.76,1.522 0.624,0.679 1.153,1.434 1.586,2.247 0.161,0.302 0.308,0.61 0.441,0.928 0.358,0.853 0.614,1.756 0.765,2.694 0.033,0.207 0.062,0.415 0.084,0.626 0.025,0.229 0.045,0.456 0.057,0.687 0.01,0.192 0.016,0.386 0.018,0.578 0,0.028 0,0.056 0,0.083 v 0.072 z"
         style="fill:#2b2b2c" />
      <path
         inkscape:connector-curvature="0"
         id="path1732"
         d="m 2780.364,2935.696 c -2.456,-1.794 -4.998,-2.594 -8.242,-2.594 -3.686,0 -6.624,1.68 -7.909,4.266 -1.384,0.617 -2.508,1.544 -3.274,2.695 -0.125,0.189 -0.241,0.384 -0.346,0.585 -0.024,0.046 -0.049,0.091 -0.073,0.138 -0.721,0.322 -1.373,0.728 -1.939,1.205 -0.156,0.133 -0.305,0.269 -0.448,0.411 -0.334,0.333 -0.63,0.694 -0.886,1.08 -0.125,0.189 -0.24,0.384 -0.346,0.583 -0.024,0.045 -0.049,0.09 -0.072,0.136 -0.723,0.321 -1.374,0.729 -1.94,1.208 -0.157,0.13 -0.306,0.268 -0.449,0.41 -0.334,0.333 -0.63,0.693 -0.887,1.079 -0.125,0.188 -0.24,0.383 -0.345,0.583 -0.063,0.12 -0.125,0.24 -0.18,0.364 -0.647,0.322 -1.237,0.711 -1.761,1.155 -0.155,0.132 -0.305,0.269 -0.448,0.41 -0.329,0.324 -0.625,0.672 -0.887,1.045 -0.129,0.182 -0.248,0.37 -0.36,0.563 -0.649,1.121 -1.008,2.416 -1.008,3.828 v 0.074 c 0,2.13 0.627,3.818 1.907,5.137 -0.012,0.048 -0.024,0.097 -0.036,0.146 -0.187,0.766 -0.434,1.51 -0.748,2.223 -0.105,0.239 -0.218,0.478 -0.338,0.71 l -0.457,0.128 c -0.046,0.32 -0.099,0.639 -0.165,0.953 -0.025,0.121 -0.053,0.241 -0.08,0.362 -0.063,0.268 -0.132,0.534 -0.209,0.797 -0.036,0.123 -0.074,0.246 -0.113,0.368 0.146,-0.18 0.286,-0.364 0.423,-0.551 0.98,-0.599 1.883,-1.329 2.684,-2.189 0.364,-0.391 0.699,-0.803 1.013,-1.231 0.068,-0.041 0.135,-0.085 0.203,-0.128 0.782,0.41 1.694,0.774 2.778,1.105 0.108,0.31 0.302,0.573 0.561,0.754 2.355,1.9 4.881,3.013 7.669,3.378 0.01,0.075 0.01,0.15 0.01,0.227 -0.469,0.089 -0.969,0.138 -1.498,0.138 -3.05,0 -5.388,-0.892 -7.813,-2.979 -0.252,-0.252 -0.657,-0.408 -1.061,-0.408 -0.93,0 -1.66,0.758 -1.66,1.725 0,0.554 0.247,1.053 0.66,1.339 2.629,2.12 5.47,3.261 8.652,3.476 -0.565,0.162 -1.199,0.25 -1.888,0.25 -2.849,0 -5.034,-0.832 -7.305,-2.782 -0.394,-0.378 -0.979,-0.604 -1.568,-0.604 -1.355,0 -2.418,1.096 -2.418,2.494 0,0.797 0.36,1.526 0.966,1.957 3.066,2.467 6.407,3.667 10.217,3.667 5.216,0 8.992,-2.865 9.606,-7.106 0.165,-0.143 0.321,-0.291 0.471,-0.445 v -0.824 c -0.124,0.151 -0.253,0.3 -0.391,0.441 0.01,-0.137 0.011,-0.274 0.011,-0.413 v -0.073 c 0,-1.156 -0.198,-2.184 -0.604,-3.098 0.016,-0.104 0.029,-0.208 0.039,-0.314 0,-0.013 0,-0.024 0,-0.036 0.01,-0.116 0.016,-0.235 0.016,-0.355 v -0.074 c 0,-0.037 -10e-4,-0.073 0,-0.11 -0.015,-0.83 -0.188,-1.527 -0.568,-2.125 -0.156,-0.246 -0.346,-0.475 -0.576,-0.689 -0.834,-0.783 -2.173,-1.377 -4.17,-1.898 -0.414,-0.108 -0.857,-0.215 -1.33,-0.318 -0.056,-0.012 -0.111,-0.023 -0.168,-0.036 -0.341,-0.075 -0.668,-0.152 -0.984,-0.232 -0.257,-0.064 -0.506,-0.13 -0.749,-0.198 -0.562,-0.156 -1.082,-0.322 -1.563,-0.496 -0.208,-0.076 -0.411,-0.154 -0.604,-0.233 -0.066,-0.028 -0.13,-0.057 -0.195,-0.084 -0.183,-0.078 -0.36,-0.159 -0.53,-0.241 -0.659,-0.321 -1.219,-0.672 -1.688,-1.062 -0.185,-0.153 -0.357,-0.313 -0.514,-0.479 -0.33,-0.349 -0.6,-0.724 -0.814,-1.132 0.159,-0.466 0.453,-0.877 0.855,-1.217 0.163,-0.137 0.342,-0.263 0.54,-0.375 0,0.051 0.011,0.1 0.014,0.151 0.011,-0.058 0.019,-0.117 0.03,-0.175 0.129,-0.073 0.267,-0.141 0.411,-0.203 0.04,0.125 0.087,0.245 0.14,0.362 0.346,0.766 0.967,1.387 1.942,1.921 0.165,0.09 0.341,0.178 0.528,0.264 0.316,0.146 0.664,0.286 1.043,0.42 0.183,0.065 0.375,0.129 0.573,0.191 0.771,0.244 1.659,0.473 2.677,0.694 0.135,0.03 0.268,0.06 0.399,0.091 0.255,0.06 0.501,0.121 0.743,0.186 2.601,0.682 4.385,1.57 5.487,2.774 v -0.792 c -1.256,-1.141 -3.141,-1.996 -5.743,-2.644 0,-0.021 0,-0.042 0,-0.063 0,-0.232 0.063,-0.446 0.171,-0.624 0.445,0.118 0.913,0.232 1.408,0.342 0.497,0.106 0.955,0.215 1.378,0.325 0.911,0.65 1.828,1.142 2.789,1.495 v -1.166 c -0.695,-0.315 -1.538,-0.6 -2.55,-0.864 -0.414,-0.108 -0.856,-0.214 -1.329,-0.316 l -1.154,-0.27 c -0.257,-0.064 -0.505,-0.131 -0.747,-0.198 -0.89,-0.248 -1.674,-0.517 -2.365,-0.813 -0.18,-0.077 -0.351,-0.157 -0.518,-0.238 -0.663,-0.321 -1.227,-0.675 -1.697,-1.065 -0.173,-0.143 -0.335,-0.291 -0.482,-0.445 0.179,0.01 0.355,0.017 0.529,0.031 0.747,0.059 1.456,0.2 2.146,0.43 0.179,0.059 0.358,0.124 0.535,0.196 0.814,0.329 1.608,0.786 2.418,1.386 0.421,0.307 0.891,0.455 1.438,0.455 0.927,0 1.731,-0.533 2.138,-1.313 0.589,0.159 1.133,0.33 1.639,0.511 v -0.606 c -0.45,-0.157 -0.927,-0.306 -1.436,-0.444 0.049,-0.194 0.077,-0.396 0.077,-0.605 0,-0.038 0,-0.073 -0.01,-0.11 0.288,0.071 0.582,0.141 0.889,0.209 0.162,0.034 0.319,0.069 0.474,0.104 v -0.591 c -0.118,-0.027 -0.235,-0.053 -0.355,-0.079 -0.387,-0.085 -0.758,-0.173 -1.114,-0.265 -0.217,-0.687 -0.694,-1.12 -0.938,-1.306 -1.333,-0.974 -2.69,-1.667 -4.156,-2.113 -0.186,-0.057 -0.372,-0.11 -0.562,-0.159 -0.261,-0.067 -0.528,-0.127 -0.797,-0.179 -0.09,-0.161 -0.172,-0.326 -0.245,-0.496 0.038,0 0.075,0 0.112,0 0.322,0 0.636,0.013 0.943,0.038 0.191,0.016 0.381,0.036 0.568,0.062 0.77,0.106 1.506,0.298 2.224,0.581 0.384,0.231 0.829,0.447 1.341,0.649 0.438,0.251 0.874,0.535 1.314,0.861 0.296,0.215 0.604,0.312 0.999,0.312 0.267,0 0.518,-0.07 0.742,-0.186 1.222,-0.837 0.884,-1.834 0.884,-1.834 -0.117,-0.575 -0.51,-0.937 -0.7,-1.081 -1.392,-1.017 -2.814,-1.712 -4.375,-2.125 -0.139,-0.22 -0.258,-0.452 -0.361,-0.693 0.038,-10e-4 0.075,0 0.113,0 1.345,0 2.561,0.217 3.734,0.682 0.384,0.231 0.83,0.446 1.342,0.649 0.438,0.25 0.874,0.535 1.314,0.861 0.296,0.215 0.604,0.311 0.998,0.311 0.307,0 0.594,-0.087 0.84,-0.235 v -0.097 c 0,-0.621 0.331,-1.179 0.814,-1.493 -0.055,-0.688 -0.518,-1.114 -0.728,-1.274 -1.872,-1.367 -3.795,-2.153 -6.04,-2.451 0,-0.083 0.01,-0.164 0.014,-0.244 0.44,-0.083 0.909,-0.126 1.403,-0.126 2.374,0 4.344,0.675 6.39,2.191 0.297,0.216 0.605,0.312 0.999,0.312 0.306,0 0.592,-0.087 0.84,-0.234 v -0.097 c 0,-0.622 0.33,-1.18 0.814,-1.493 -0.056,-0.689 -0.519,-1.115 -0.729,-1.275 -2.057,-1.503 -4.176,-2.307 -6.717,-2.528 0.626,-0.189 1.333,-0.293 2.096,-0.293 2.373,0 4.343,0.676 6.39,2.191 0.297,0.216 0.604,0.312 0.998,0.312 0.306,0 0.594,-0.086 0.84,-0.234 v -0.097 c 0,-0.622 0.331,-1.18 0.815,-1.493 -0.055,-0.699 -0.518,-1.125 -0.728,-1.285 m -28.308,25.637 c -0.282,0.393 -0.585,0.771 -0.912,1.131 -0.043,0.047 -0.083,0.096 -0.126,0.143 -0.453,0.485 -0.941,0.929 -1.458,1.329 0.194,-0.34 0.373,-0.688 0.539,-1.042 0.112,-0.243 0.218,-0.49 0.317,-0.74 0.21,-0.535 0.387,-1.086 0.53,-1.647 0.091,0.079 0.184,0.157 0.281,0.232 0.259,0.202 0.538,0.395 0.839,0.578 0,0.01 -0.01,0.011 -0.01,0.016 m 4.274,1.71 -0.02,-0.014 c -0.016,-0.011 -0.032,-0.025 -0.047,-0.038 0.511,0.139 1.055,0.271 1.637,0.4 4.179,0.896 5.347,1.809 5.658,2.897 -2.629,-0.364 -4.969,-1.418 -7.228,-3.245 m -3.693,3.418 -0.019,-0.014 c -0.261,-0.177 -0.417,-0.501 -0.417,-0.865 0,-0.643 0.479,-1.146 1.092,-1.146 0.295,0 0.548,0.124 0.668,0.246 l 0.018,0.017 c 2.539,2.19 4.987,3.124 8.188,3.124 0.516,0 1.009,-0.042 1.474,-0.123 -0.115,0.891 -0.643,1.638 -1.466,2.156 -0.04,0 -0.078,0 -0.116,0 -3.559,0 -6.553,-1.079 -9.422,-3.398 m 7.12,-8.336 c 0.445,0.118 0.913,0.231 1.409,0.342 0.497,0.106 0.955,0.215 1.378,0.325 1.318,0.941 2.649,1.558 4.109,1.891 0.639,0.642 0.853,1.373 0.875,2.23 h -0.01 c -1.344,-2.011 -3.927,-3.381 -7.928,-4.271 0.018,-0.189 0.075,-0.365 0.165,-0.515 m -3.373,-1.205 c 0.342,0.167 0.709,0.327 1.105,0.48 0.519,0.199 1.085,0.389 1.704,0.567 -0.08,0.167 -0.134,0.352 -0.159,0.546 -0.871,-0.201 -1.603,-0.402 -2.222,-0.604 -0.313,-0.103 -0.598,-0.205 -0.854,-0.308 -0.534,-0.215 -0.954,-0.431 -1.281,-0.651 0.076,-0.311 0.142,-0.626 0.197,-0.943 0.435,0.328 0.936,0.632 1.51,0.913 m -2.013,-1.334 c -0.021,0.133 -0.042,0.265 -0.065,0.396 -0.02,0.107 -0.041,0.215 -0.063,0.321 -0.018,0.085 -0.037,0.17 -0.056,0.254 -0.593,-0.583 -0.68,-1.203 -0.68,-1.895 v -0.053 c 0.244,0.349 0.533,0.675 0.864,0.977 m 3.924,-3.211 c 0.087,0.073 0.179,0.145 0.273,0.216 0.436,0.329 0.938,0.632 1.516,0.915 0.167,0.081 0.34,0.161 0.521,0.24 0.668,0.289 1.424,0.557 2.282,0.804 -0.103,0.214 -0.163,0.454 -0.172,0.709 -0.066,-0.015 -0.131,-0.03 -0.198,-0.045 -0.936,-0.203 -1.743,-0.411 -2.441,-0.624 -0.199,-0.061 -0.388,-0.121 -0.569,-0.183 -0.467,-0.16 -0.877,-0.323 -1.237,-0.491 -0.19,-0.088 -0.366,-0.179 -0.528,-0.271 -0.988,-0.56 -1.489,-1.181 -1.717,-1.909 0.428,-0.126 0.899,-0.207 1.407,-0.236 0.186,0.23 0.392,0.45 0.62,0.66 0.077,0.074 0.158,0.145 0.243,0.215 m 3.288,-4.629 c 0.095,0.023 0.188,0.052 0.282,0.076 0.188,0.05 0.373,0.104 0.557,0.163 1.352,0.43 2.609,1.078 3.843,1.979 0.141,0.107 0.383,0.321 0.566,0.643 0.105,0.185 0.19,0.403 0.227,0.659 0.013,0.086 0.02,0.174 0.02,0.267 0,0.157 -0.021,0.31 -0.057,0.456 -0.047,0.192 -0.124,0.373 -0.225,0.537 -0.326,0.529 -0.901,0.884 -1.559,0.887 -0.423,0 -0.771,-0.113 -1.094,-0.347 -0.848,-0.628 -1.682,-1.107 -2.537,-1.454 -0.177,-0.072 -0.354,-0.139 -0.533,-0.199 -0.742,-0.249 -1.503,-0.402 -2.309,-0.467 -0.191,-0.016 -0.385,-0.024 -0.582,-0.03 -0.106,0 -0.212,-0.01 -0.32,-0.01 h -0.012 c -0.05,0 -0.1,10e-4 -0.15,0 -0.226,0.01 -0.445,0.018 -0.659,0.04 -0.402,0.042 -0.783,0.116 -1.139,0.22 -0.044,0.012 -0.085,0.026 -0.127,0.04 -0.143,0.044 -0.282,0.093 -0.416,0.146 -0.062,0.025 -0.12,0.053 -0.18,0.08 -0.069,0.031 -0.138,0.063 -0.205,0.096 -0.188,0.095 -0.368,0.199 -0.533,0.313 -0.471,0.325 -0.846,0.725 -1.103,1.185 -0.134,0.238 -0.236,0.493 -0.303,0.762 -0.063,0.254 -0.098,0.519 -0.098,0.795 v 0.074 c 0,0.996 0.236,1.807 1.094,2.514 0.145,0.119 0.309,0.236 0.491,0.35 0.307,0.192 0.669,0.377 1.099,0.557 0.183,0.076 0.378,0.151 0.585,0.227 0.767,0.276 1.705,0.541 2.85,0.802 0.127,0.028 0.256,0.058 0.389,0.087 0.086,0.02 0.17,0.039 0.254,0.059 3.453,0.794 5.744,1.92 7.043,3.537 0.167,0.208 0.316,0.424 0.452,0.649 0.048,0.081 0.096,0.165 0.141,0.249 0.184,0.344 0.333,0.707 0.447,1.091 0.198,0.663 0.294,1.386 0.294,2.175 v 0.073 c 0,0.334 -0.022,0.659 -0.061,0.978 -0.033,0.268 -0.079,0.53 -0.139,0.787 -0.84,3.61 -4.276,6.005 -8.929,6.005 h -0.011 -0.011 c -3.681,0 -6.913,-1.161 -9.878,-3.553 -0.461,-0.322 -0.736,-0.878 -0.736,-1.493 0,-1.074 0.812,-1.916 1.849,-1.916 h 0.012 0.01 c 0.448,0 0.901,0.174 1.189,0.457 2.382,2.051 4.68,2.927 7.674,2.93 1.284,0 2.403,-0.289 3.269,-0.793 0.311,-0.18 0.588,-0.389 0.831,-0.622 0.618,-0.599 0.994,-1.36 1.054,-2.231 0.01,-0.084 0.01,-0.168 0.01,-0.254 v -0.073 c 0,-0.092 0,-0.182 -0.01,-0.271 0.034,-0.01 0.068,-0.017 0.101,-0.027 -0.035,0 -0.069,-0.01 -0.103,-0.011 -0.011,-0.202 -0.034,-0.397 -0.072,-0.586 -0.318,-1.538 -1.69,-2.577 -6.135,-3.53 -0.734,-0.162 -1.432,-0.337 -2.094,-0.528 -0.194,-0.057 -0.386,-0.115 -0.573,-0.175 -0.776,-0.247 -1.492,-0.524 -2.142,-0.842 -0.28,-0.137 -0.547,-0.281 -0.802,-0.434 -0.479,-0.289 -0.912,-0.607 -1.295,-0.963 -0.168,-0.156 -0.328,-0.319 -0.476,-0.491 -0.968,-1.116 -1.505,-2.559 -1.505,-4.474 v -0.074 c 0,-1.157 0.263,-2.229 0.743,-3.181 0.107,-0.214 0.229,-0.417 0.357,-0.618 0.238,-0.37 0.512,-0.719 0.819,-1.041 0.143,-0.152 0.294,-0.299 0.452,-0.439 0.377,-0.336 0.792,-0.641 1.243,-0.907 0.241,-0.143 0.492,-0.274 0.751,-0.396 0.021,-0.01 0.043,-0.019 0.065,-0.029 0.17,-0.077 0.347,-0.149 0.524,-0.219 0.306,-0.117 0.622,-0.222 0.949,-0.31 0.181,-0.048 0.366,-0.091 0.554,-0.13 0.364,-0.078 0.74,-0.139 1.125,-0.178 0.336,-0.035 0.681,-0.057 1.032,-0.062 0.063,0 0.126,0 0.189,0 h 0.013 c 0.016,0 0.032,0 0.048,0 0.194,0 0.387,0.01 0.576,0.012 0.126,0 0.253,0.011 0.378,0.018 0.021,0 0.043,0 0.065,0 0.17,0.01 0.336,0.022 0.501,0.037 0.023,0 0.047,0 0.069,0.01 0.408,0.039 0.806,0.092 1.194,0.16 0.283,0.048 0.559,0.106 0.83,0.173 m -2.027,-0.917 c 0,-0.053 0.01,-0.105 0.011,-0.157 0.223,-0.042 0.454,-0.073 0.691,-0.094 0.045,0.118 0.094,0.233 0.146,0.348 -0.277,-0.041 -0.561,-0.072 -0.848,-0.097 m 5.005,-2.504 c 0.321,0.077 0.635,0.166 0.943,0.27 1.203,0.402 2.323,1 3.445,1.82 0.086,0.064 0.232,0.197 0.345,0.39 0.089,0.149 0.157,0.335 0.157,0.558 0,0.033 0,0.066 -0.01,0.1 -0.025,0.29 -0.161,0.547 -0.364,0.73 -0.193,0.173 -0.445,0.279 -0.722,0.279 -0.275,0 -0.469,-0.059 -0.667,-0.202 -0.472,-0.35 -0.945,-0.655 -1.423,-0.924 -0.427,-0.239 -0.858,-0.447 -1.294,-0.622 -0.474,-0.19 -0.955,-0.344 -1.445,-0.462 -0.348,-0.083 -0.7,-0.147 -1.06,-0.195 -0.188,-0.024 -0.378,-0.046 -0.57,-0.061 -0.304,-0.024 -0.614,-0.037 -0.93,-0.037 -0.106,0 -0.212,0 -0.318,0.01 -0.196,0.01 -0.388,0.021 -0.577,0.043 -0.135,0.016 -0.268,0.032 -0.399,0.054 -0.06,0.01 -0.117,0.021 -0.176,0.032 -0.147,0.027 -0.293,0.058 -0.436,0.094 -0.044,0.011 -0.085,0.025 -0.129,0.037 -0.202,0.055 -0.398,0.117 -0.586,0.189 -0.183,0.069 -0.358,0.146 -0.527,0.23 -0.072,0.035 -0.145,0.07 -0.214,0.108 -0.758,0.019 -1.485,0.107 -2.175,0.254 -0.188,0.04 -0.372,0.085 -0.552,0.134 -0.348,0.093 -0.686,0.2 -1.011,0.325 0.225,-0.376 0.491,-0.729 0.793,-1.056 0.141,-0.152 0.292,-0.296 0.45,-0.437 0.409,-0.366 0.867,-0.692 1.374,-0.968 0.221,-0.121 0.452,-0.23 0.689,-0.331 0.025,-0.011 0.048,-0.022 0.072,-0.032 0.151,-0.063 0.304,-0.119 0.459,-0.174 0.314,-0.11 0.64,-0.204 0.978,-0.281 0.183,-0.043 0.369,-0.08 0.557,-0.111 0.189,-0.033 0.379,-0.061 0.575,-0.083 0.187,-0.021 0.376,-0.038 0.567,-0.05 0.01,0 0.021,0 0.032,0 0.207,-0.012 0.416,-0.02 0.628,-0.02 0.116,0 0.228,0 0.342,0.01 0.097,0 0.19,0.01 0.286,0.011 0.197,0.01 0.392,0.017 0.583,0.029 0.145,0.011 0.291,0.021 0.434,0.034 0.193,0.019 0.383,0.04 0.571,0.065 0.446,0.063 0.879,0.146 1.3,0.25 m -1.881,-0.893 c 0,-0.015 0,-0.028 0,-0.043 0.186,-0.053 0.379,-0.099 0.579,-0.136 0.223,-0.041 0.453,-0.073 0.69,-0.094 0.065,0.169 0.135,0.333 0.214,0.491 -0.301,-0.06 -0.605,-0.112 -0.917,-0.154 -0.187,-0.024 -0.375,-0.045 -0.567,-0.064 m 4.272,-2.772 c 2.117,0.288 3.901,1.029 5.691,2.337 0.151,0.115 0.502,0.438 0.502,0.947 0,0.33 -0.145,0.627 -0.371,0.83 -1.075,0.827 -2.064,-0.553 -2.812,-0.847 -0.426,-0.239 -0.857,-0.446 -1.293,-0.622 -0.474,-0.19 -0.955,-0.344 -1.445,-0.461 -0.821,-0.196 -1.669,-0.294 -2.56,-0.294 -0.107,0 -0.214,0 -0.319,0.01 -0.196,0.01 -0.388,0.023 -0.577,0.044 -0.134,0.017 -0.269,0.032 -0.4,0.054 -0.209,0.034 -0.413,0.076 -0.611,0.126 -0.248,0.063 -0.485,0.14 -0.715,0.226 -0.183,0.068 -0.359,0.146 -0.529,0.229 -0.081,0.041 -0.162,0.08 -0.241,0.123 -0.077,-10e-4 -0.152,0 -0.23,0 -0.217,0 -0.43,0.01 -0.643,0.02 -0.193,0.011 -0.385,0.025 -0.573,0.045 -0.245,0.026 -0.484,0.062 -0.721,0.104 -0.188,0.033 -0.374,0.07 -0.557,0.112 -0.299,0.068 -0.593,0.147 -0.875,0.24 0.2,-0.308 0.43,-0.598 0.683,-0.869 0.141,-0.153 0.291,-0.301 0.449,-0.441 0.408,-0.364 0.867,-0.688 1.372,-0.963 0.222,-0.121 0.453,-0.232 0.692,-0.335 0.024,-0.01 0.047,-0.022 0.071,-0.032 0.15,-0.063 0.303,-0.119 0.459,-0.174 0.654,-0.229 1.36,-0.391 2.109,-0.475 0.188,-0.021 0.376,-0.04 0.568,-0.051 0.01,-10e-4 0.021,0 0.033,0 0.206,-0.011 0.416,-0.019 0.627,-0.019 0.116,0 0.228,0 0.341,0.01 0.45,0.01 0.882,0.033 1.302,0.073 0.194,0.018 0.385,0.04 0.573,0.066 m 9.382,-1.081 c 0.151,0.115 0.502,0.438 0.502,0.947 0,0.612 -0.49,1.11 -1.092,1.11 -0.275,0 -0.469,-0.06 -0.666,-0.202 -2.119,-1.569 -4.255,-2.302 -6.723,-2.302 -0.45,0 -0.882,0.038 -1.294,0.105 -0.21,0.034 -0.414,0.075 -0.612,0.126 -0.541,0.137 -1.04,0.33 -1.484,0.576 -0.076,0 -0.152,0 -0.23,0 -0.217,0 -0.431,0.01 -0.643,0.02 -0.194,0.012 -0.385,0.026 -0.573,0.046 -0.761,0.081 -1.482,0.234 -2.154,0.456 0.601,-0.928 1.457,-1.702 2.504,-2.273 0.245,-0.133 0.499,-0.257 0.763,-0.366 0.944,-0.394 2.011,-0.638 3.168,-0.703 0.206,-0.011 0.415,-0.018 0.627,-0.018 0.116,0 0.227,0 0.341,0 2.991,0.053 5.274,0.802 7.566,2.477 m 3.103,-1.361 c -0.274,0 -0.468,-0.059 -0.665,-0.202 -2.119,-1.57 -4.255,-2.301 -6.723,-2.301 -1.303,0 -2.463,0.294 -3.391,0.808 -0.076,0 -0.152,0 -0.229,0 -1.216,0 -2.35,0.185 -3.37,0.522 1.33,-2.059 3.902,-3.362 7.063,-3.362 3.16,0 5.526,0.743 7.907,2.481 0.15,0.116 0.501,0.438 0.501,0.947 0,0.613 -0.49,1.111 -1.093,1.111"
         style="fill:#2b2b2c" />
      <path
         inkscape:connector-curvature="0"
         id="path1734"
         d="m 2759.406,2948.363 c -0.09,-0.01 -0.177,-0.018 -0.268,-0.024 -0.1,-0.01 -0.201,-0.01 -0.301,-0.016 -0.049,0 -0.096,0 -0.144,-0.01 -0.188,-0.01 -0.379,-0.014 -0.574,-0.016 -0.069,0 -0.137,0 -0.208,0 -0.396,0 -0.783,0.022 -1.159,0.063 -0.332,0.036 -0.656,0.087 -0.97,0.153 -0.02,0 -0.039,0.01 -0.058,0.014 -0.189,0.041 -0.375,0.088 -0.557,0.139 -0.266,0.075 -0.525,0.16 -0.774,0.257 -0.18,0.069 -0.354,0.145 -0.524,0.224 -0.269,0.126 -0.527,0.264 -0.772,0.414 -0.222,0.137 -0.434,0.285 -0.635,0.441 -0.242,0.189 -0.468,0.393 -0.678,0.607 -0.165,0.168 -0.32,0.345 -0.464,0.529 -0.258,0.331 -0.482,0.688 -0.665,1.064 -0.132,0.27 -0.244,0.55 -0.333,0.84 -0.175,0.567 -0.268,1.171 -0.268,1.805 v 0.074 c 0,1.208 0.228,2.222 0.733,3.087 0.143,0.246 0.31,0.48 0.5,0.703 0.414,0.485 0.94,0.919 1.592,1.309 0.158,0.095 0.324,0.188 0.497,0.277 0.031,0.016 0.062,0.032 0.093,0.047 0.182,0.093 0.374,0.183 0.574,0.271 0.472,0.207 0.99,0.402 1.56,0.585 0.189,0.062 0.384,0.12 0.583,0.179 0.616,0.18 1.283,0.348 2.007,0.508 0.106,0.022 0.208,0.046 0.311,0.069 0.596,0.132 1.146,0.27 1.653,0.414 1.186,0.339 2.129,0.713 2.862,1.148 0.4,0.238 0.739,0.495 1.019,0.773 0.598,0.595 0.934,1.292 1.06,2.133 0.04,0.262 0.06,0.536 0.06,0.827 v 0.011 0.063 c 0,0.846 -0.221,1.614 -0.623,2.279 -0.145,0.239 -0.312,0.465 -0.501,0.676 -1.073,1.189 -2.84,1.907 -4.999,1.907 -3.249,0 -5.734,-0.948 -8.311,-3.17 l -0.029,-0.026 c -0.09,-0.092 -0.295,-0.19 -0.534,-0.19 -0.507,0 -0.903,0.419 -0.903,0.954 0,0.301 0.124,0.563 0.332,0.704 l 0.032,0.024 c 2.834,2.289 5.79,3.355 9.303,3.355 3.828,0 6.672,-1.674 7.731,-4.351 0.094,-0.237 0.172,-0.483 0.238,-0.736 0.14,-0.541 0.213,-1.116 0.213,-1.721 v -0.073 c 0,-0.35 -0.022,-0.684 -0.066,-1.004 -0.035,-0.256 -0.086,-0.502 -0.15,-0.739 -0.08,-0.292 -0.181,-0.572 -0.306,-0.839 -0.091,-0.192 -0.192,-0.379 -0.308,-0.558 -0.144,-0.226 -0.308,-0.438 -0.491,-0.644 -0.277,-0.309 -0.598,-0.597 -0.968,-0.864 -0.819,-0.595 -1.873,-1.096 -3.187,-1.524 -0.513,-0.168 -1.068,-0.324 -1.661,-0.471 -0.243,-0.06 -0.491,-0.119 -0.748,-0.176 -1.48,-0.323 -2.691,-0.66 -3.672,-1.04 -0.196,-0.076 -0.383,-0.153 -0.561,-0.233 -0.281,-0.126 -0.542,-0.257 -0.779,-0.394 -0.176,-0.1 -0.34,-0.204 -0.493,-0.312 -1.063,-0.746 -1.584,-1.66 -1.713,-2.854 -0.022,-0.206 -0.035,-0.421 -0.035,-0.644 v -0.074 c 0,-0.398 0.055,-0.779 0.158,-1.141 0.105,-0.366 0.259,-0.711 0.459,-1.032 0.137,-0.221 0.295,-0.43 0.473,-0.626 0.342,-0.375 0.758,-0.702 1.232,-0.974 0.167,-0.096 0.342,-0.184 0.525,-0.265 0.139,-0.062 0.282,-0.12 0.429,-0.173 0.016,-0.01 0.03,-0.013 0.046,-0.019 0.171,-0.059 0.346,-0.111 0.526,-0.159 0.016,0 0.032,-0.01 0.047,-0.013 0.232,-0.06 0.471,-0.109 0.718,-0.146 0.191,-0.029 0.387,-0.052 0.587,-0.067 0.218,-0.018 0.442,-0.026 0.668,-0.026 0.129,0 0.256,0 0.382,0.01 0.287,0.01 0.568,0.029 0.847,0.059 0.464,0.049 0.917,0.125 1.362,0.23 0.316,0.075 0.63,0.166 0.938,0.271 0.179,0.061 0.357,0.128 0.534,0.199 0.735,0.295 1.454,0.676 2.167,1.15 0.202,0.135 0.403,0.274 0.604,0.422 0.163,0.118 0.32,0.166 0.555,0.166 0.192,0 0.37,-0.063 0.517,-0.167 0.171,-0.121 0.298,-0.301 0.354,-0.512 0.02,-0.076 0.033,-0.156 0.033,-0.239 0,-0.261 -0.115,-0.465 -0.232,-0.605 -0.072,-0.087 -0.146,-0.149 -0.195,-0.188 -1.107,-0.81 -2.217,-1.398 -3.405,-1.796 -0.166,-0.056 -0.333,-0.107 -0.502,-0.155 -0.016,0 -0.031,-0.01 -0.047,-0.012 -0.64,-0.179 -1.305,-0.307 -2.009,-0.383 -0.11,-0.01 -0.222,-0.018 -0.334,-0.028"
         style="fill:#2b2b2c" />
      <path
         inkscape:connector-curvature="0"
         id="path1736"
         d="m 2783.97,2952.936 c 0.161,0.158 0.35,0.312 0.567,0.461 v -1.889 c -0.195,0.014 -0.385,0.035 -0.567,0.063 z"
         style="fill:#2b2b2c" />
      <path
         inkscape:connector-curvature="0"
         id="path1738"
         d="m 2786.792,2958.64 c 0.18,0.04 0.353,0.082 0.528,0.124 0.051,-0.166 0.079,-0.343 0.079,-0.525 -0.149,-0.038 -0.298,-0.076 -0.443,-0.115 -0.092,0.15 -0.148,0.326 -0.164,0.516"
         style="fill:#2b2b2c" />
      <path
         inkscape:connector-curvature="0"
         id="path1740"
         d="m 2785.666,2933.286 c -0.919,0 -1.696,0.807 -1.696,1.762 v 9.181 c 0.019,-0.01 0.038,-0.02 0.056,-0.027 0.148,-0.298 0.32,-0.585 0.512,-0.857 v -8.296 c 0,-0.643 0.517,-1.185 1.128,-1.185 0.642,0 1.165,0.531 1.165,1.185 v 6.194 c 0.183,-0.109 0.373,-0.212 0.568,-0.309 v -5.886 c 0,-0.971 -0.777,-1.762 -1.733,-1.762"
         style="fill:#2b2b2c" />
      <path
         inkscape:connector-curvature="0"
         id="path1742"
         d="m 2783.97,2957.897 c 0.18,0.06 0.368,0.118 0.567,0.178 v -0.733 c -0.196,-0.077 -0.386,-0.157 -0.567,-0.239 z"
         style="fill:#2b2b2c" />
      <path
         inkscape:connector-curvature="0"
         id="path1744"
         d="m 2786.831,2954.451 c 0.181,0.06 0.37,0.119 0.568,0.179 v -1.066 c -0.198,-0.094 -0.387,-0.189 -0.568,-0.289 z"
         style="fill:#2b2b2c" />
      <path
         inkscape:connector-curvature="0"
         id="path1746"
         d="m 2783.138,2957.596 c 0.177,0.07 0.367,0.142 0.568,0.212 v -0.827 c -0.198,-0.094 -0.386,-0.19 -0.568,-0.289 z"
         style="fill:#2b2b2c" />
      <path
         inkscape:connector-curvature="0"
         id="path1748"
         d="m 2782.499,2962.711 c -0.157,0.081 -0.336,0.129 -0.525,0.129 -0.439,0 -0.83,-0.282 -1.014,-0.679 -0.232,-0.096 -0.455,-0.193 -0.668,-0.294 0.104,0.859 0.832,1.549 1.682,1.549 0.318,0 0.615,-0.089 0.872,-0.241 -0.095,-0.128 -0.17,-0.271 -0.225,-0.426 -0.041,-0.012 -0.081,-0.026 -0.122,-0.038"
         style="fill:#2b2b2c" />
      <path
         inkscape:connector-curvature="0"
         id="path1750"
         d="m 2781.974,2936.704 c -0.321,0 -0.624,0.1 -0.883,0.268 -0.484,0.314 -0.814,0.872 -0.814,1.494 v 0.096 9.18 c 0.162,-0.342 0.351,-0.669 0.568,-0.979 v -8.296 c 0,-0.643 0.517,-1.185 1.129,-1.185 0.642,0 1.165,0.53 1.165,1.185 v 6.195 c 0.183,-0.109 0.372,-0.213 0.567,-0.311 v -5.885 c 0,-0.973 -0.777,-1.762 -1.732,-1.762"
         style="fill:#2b2b2c" />
      <path
         inkscape:connector-curvature="0"
         id="path1752"
         d="m 2779.446,2964.235 c 0.165,-0.138 0.357,-0.242 0.568,-0.306 v -2.197 c -0.198,-0.1 -0.387,-0.202 -0.568,-0.308 z"
         style="fill:#2b2b2c" />
      <path
         inkscape:connector-curvature="0"
         id="path1754"
         d="m 2778.281,2940.122 c -0.32,0 -0.622,0.1 -0.881,0.268 -0.484,0.314 -0.815,0.871 -0.815,1.493 v 0.097 3.828 c -0.085,-0.031 -0.176,-0.061 -0.264,-0.091 v -0.417 c 0,-0.971 -0.777,-1.761 -1.732,-1.761 -0.321,0 -0.624,0.1 -0.882,0.268 -0.484,0.315 -0.815,0.872 -0.815,1.493 v 0.098 1.993 c -0.402,-0.283 -0.888,-0.45 -1.414,-0.45 -0.356,0 -0.697,0.086 -1.005,0.234 -0.669,0.32 -1.185,0.944 -1.371,1.69 -0.049,0.195 -0.078,0.398 -0.078,0.606 v 1.674 0.591 0.847 0.607 2.514 1.165 1.169 0.792 8.173 0.824 4.836 c 0,1.373 1.123,2.531 2.454,2.531 1.374,0 2.49,-1.135 2.49,-2.531 v -2.538 c 0.194,0.081 0.403,0.129 0.621,0.129 0.144,0 0.283,-0.021 0.417,-0.055 -0.025,-0.146 -0.042,-0.292 -0.042,-0.443 0,-0.05 0,-0.099 0.01,-0.147 -0.12,0.043 -0.249,0.067 -0.382,0.067 -0.227,0 -0.441,-0.075 -0.621,-0.202 v -6.787 -1.764 -3.066 -1.65 -2.426 -0.771 -2.725 -0.623 -0.189 c 0,-0.311 -0.058,-0.607 -0.16,-0.883 -0.085,-0.232 -0.203,-0.449 -0.349,-0.644 v -0.043 -2.379 -0.224 c 0,-0.123 0.02,-0.242 0.055,-0.355 0.148,-0.475 0.58,-0.828 1.074,-0.828 0.642,0 1.164,0.531 1.164,1.184 v 0.23 0.601 2.464 0.63 1.446 0.706 9.496 0.719 6.309 c 0.169,-0.157 0.359,-0.29 0.568,-0.392 v -6.426 c 0.09,-0.09 0.179,-0.182 0.264,-0.275 v 4.267 c 0,0.954 0.777,1.761 1.696,1.761 0.32,0 0.618,-0.09 0.875,-0.242 -0.113,-0.153 -0.199,-0.328 -0.254,-0.519 -0.179,0.115 -0.392,0.184 -0.621,0.184 -0.612,0 -1.128,-0.542 -1.128,-1.184 v -4.984 -0.628 c -0.048,-0.063 -0.095,-0.127 -0.141,-0.192 -0.157,-0.222 -0.3,-0.45 -0.427,-0.689 v 1.361 c -0.084,0.115 -0.172,0.228 -0.264,0.337 v -2.265 c -0.374,-0.909 -0.56,-1.935 -0.56,-3.094 v -0.073 c 0,-1.045 0.197,-2.025 0.56,-2.918 v -0.033 -0.775 -1.645 c 0.091,0.044 0.18,0.088 0.264,0.134 v 1.745 c 0.166,-0.326 0.356,-0.637 0.568,-0.934 v -0.468 -0.7 -2.613 -0.612 -4.145 c 0,-0.642 0.516,-1.184 1.128,-1.184 0.643,0 1.166,0.53 1.166,1.184 v 5.37 0.705 0.324 c 0.074,-0.046 0.152,-0.087 0.228,-0.132 0.113,-0.065 0.224,-0.134 0.34,-0.196 v -0.252 -5.819 c -10e-4,-0.974 -0.778,-1.763 -1.734,-1.763 m -4.883,9.296 c 0,0.018 0,0.035 0,0.053 v 0.563 2.603 0.693 2.014 1.006 6.179 1.062 6.146 2.928 c 0,1.078 -0.862,1.953 -1.922,1.953 h -0.011 -0.011 c -1.023,0 -1.887,-0.895 -1.887,-1.953 v -5.471 -0.99 -6.662 -0.94 -1.546 -1.077 -2.579 -0.613 -0.918 -0.596 -1.799 c 0,-0.192 0.029,-0.379 0.083,-0.557 0.057,-0.191 0.142,-0.371 0.251,-0.535 0.161,-0.241 0.373,-0.443 0.617,-0.593 0.278,-0.169 0.597,-0.269 0.936,-0.269 h 0.011 0.011 c 0.559,0 1.062,0.245 1.414,0.635 0.071,0.077 0.134,0.162 0.192,0.252 0.19,0.291 0.304,0.638 0.314,1.011 m 3.187,-0.468 c -0.085,-0.041 -0.173,-0.082 -0.264,-0.122 v -2.509 c 0.089,0.032 0.177,0.065 0.264,0.098 z"
         style="fill:#2b2b2c" />
      <path
         inkscape:connector-curvature="0"
         id="path1756"
         d="m 2771.457,2948.48 c -0.18,0 -0.35,0.058 -0.495,0.155 -0.174,0.116 -0.311,0.291 -0.384,0.497 -0.038,0.106 -0.061,0.22 -0.061,0.339 v 2.043 0.604 1.073 0.632 2.799 0.83 1.938 0.581 c -0.025,0 -0.051,-0.01 -0.076,-0.012 0.027,0.06 0.05,0.124 0.076,0.187 v 5.846 6.672 c 0,0.537 0.431,0.991 0.94,0.991 0.537,0 0.975,-0.444 0.975,-0.991 v -7.973 -0.773 -8.793 -0.751 -1.573 -0.639 -2.491 -0.198 c 0,-0.157 -0.038,-0.306 -0.102,-0.438 -0.16,-0.328 -0.491,-0.555 -0.873,-0.555"
         style="fill:#2b2b2c" />
      <path
         inkscape:connector-curvature="0"
         id="path1758"
         d="m 2794.24,2965.954 c -0.016,-0.123 -0.038,-0.244 -0.062,-0.364 0,-0.01 0,-0.02 -0.01,-0.028 -0.108,-0.528 -0.284,-1.016 -0.53,-1.465 -10e-4,0 0,-0.01 0,-0.01 -0.276,-0.499 -0.64,-0.95 -1.101,-1.361 0,0 -10e-4,0 0,0 -0.079,-0.07 -0.161,-0.14 -0.245,-0.208 0,0 0,0 -0.01,0 -0.085,-0.069 -0.175,-0.138 -0.266,-0.203 v 0 c -0.818,-0.595 -1.873,-1.096 -3.187,-1.524 v 0 c -0.085,-0.027 -0.173,-0.056 -0.261,-0.081 -0.049,-0.017 -0.096,-0.031 -0.145,-0.046 -0.11,-0.033 -0.222,-0.065 -0.334,-0.099 -0.025,-0.01 -0.049,-0.014 -0.074,-0.021 -0.129,-0.037 -0.261,-0.073 -0.395,-0.108 -0.01,0 -0.013,0 -0.02,-0.01 -0.376,-0.1 -0.768,-0.195 -1.18,-0.287 -0.22,-0.048 -0.432,-0.097 -0.641,-0.146 -0.333,-0.077 -0.653,-0.156 -0.958,-0.237 -0.395,-0.104 -0.768,-0.211 -1.116,-0.321 -0.197,-0.063 -0.385,-0.127 -0.568,-0.191 -0.953,-0.338 -1.709,-0.708 -2.292,-1.132 -0.211,-0.153 -0.401,-0.313 -0.569,-0.481 -0.093,-0.095 -0.182,-0.19 -0.262,-0.29 -0.246,-0.301 -0.434,-0.625 -0.569,-0.979 -0.191,-0.503 -0.278,-1.064 -0.278,-1.697 v -0.074 c 0,-0.529 0.099,-1.029 0.278,-1.492 0.092,-0.237 0.205,-0.465 0.34,-0.681 0.07,-0.114 0.146,-0.224 0.229,-0.331 0.076,-0.101 0.157,-0.199 0.244,-0.294 0.01,-0.01 0.013,-0.014 0.019,-0.021 0.172,-0.186 0.363,-0.358 0.569,-0.521 0.47,-0.368 1.023,-0.67 1.646,-0.89 0.092,-0.032 0.186,-0.062 0.281,-0.091 0,0 0,0 0,0 0.095,-0.029 0.191,-0.056 0.289,-0.08 0.024,-0.01 0.049,-0.012 0.073,-0.018 0.186,-0.045 0.375,-0.084 0.568,-0.115 0.025,0 0.049,-0.01 0.075,-0.014 0.062,-0.01 0.125,-0.018 0.188,-0.025 0.034,0 0.067,-0.01 0.101,-0.014 0,0 0,0 0,0 0.098,-0.012 0.197,-0.021 0.296,-0.028 0.056,0 0.113,-0.01 0.169,-0.011 0.165,-0.01 0.331,-0.016 0.5,-0.016 0.616,0 1.213,0.047 1.793,0.139 0.191,0.03 0.381,0.065 0.569,0.105 0.076,0.017 0.153,0.032 0.229,0.051 1.262,0.3 2.457,0.835 3.638,1.619 0.201,0.136 0.403,0.274 0.605,0.424 0.163,0.117 0.319,0.165 0.553,0.165 0.192,0 0.37,-0.062 0.517,-0.166 0.128,-0.091 0.231,-0.216 0.298,-0.36 0,0 0,0 0,0 0.055,-0.118 0.086,-0.25 0.086,-0.39 0,-0.28 -0.13,-0.492 -0.256,-0.634 -0.012,-0.015 -0.026,-0.028 -0.039,-0.042 -0.01,-0.01 -0.019,-0.019 -0.028,-0.027 -0.011,-0.012 -0.024,-0.022 -0.035,-0.033 -0.01,-0.01 -0.014,-0.013 -0.021,-0.018 -0.016,-0.015 -0.032,-0.028 -0.045,-0.038 v 0 c -0.154,-0.112 -0.307,-0.221 -0.46,-0.323 -0.039,-0.026 -0.077,-0.05 -0.115,-0.075 -0.117,-0.077 -0.233,-0.153 -0.351,-0.227 -0.039,-0.024 -0.079,-0.047 -0.119,-0.071 -0.117,-0.07 -0.235,-0.14 -0.353,-0.207 -0.036,-0.02 -0.071,-0.038 -0.106,-0.058 -0.125,-0.068 -0.25,-0.135 -0.375,-0.197 -0.029,-0.016 -0.058,-0.029 -0.087,-0.044 -0.134,-0.066 -0.269,-0.13 -0.404,-0.19 -0.021,-0.01 -0.042,-0.019 -0.064,-0.028 -0.144,-0.063 -0.29,-0.124 -0.435,-0.182 -0.015,-0.01 -0.03,-0.011 -0.044,-0.017 -0.154,-0.061 -0.311,-0.117 -0.469,-0.17 l -0.021,-0.01 c -0.668,-0.224 -1.363,-0.386 -2.099,-0.491 -0.187,-0.027 -0.376,-0.052 -0.569,-0.071 -0.162,-0.017 -0.326,-0.032 -0.494,-0.044 v 0 c -0.396,-0.027 -0.803,-0.042 -1.226,-0.042 -0.193,0 -0.383,0.01 -0.572,0.016 -0.192,0.011 -0.381,0.025 -0.568,0.045 -0.088,0.01 -0.176,0.02 -0.263,0.031 -0.192,0.025 -0.382,0.056 -0.568,0.092 -0.833,0.16 -1.604,0.423 -2.292,0.772 -0.189,0.096 -0.374,0.199 -0.55,0.307 v 0 c -0.01,0 -0.012,0.01 -0.019,0.011 -0.089,0.057 -0.177,0.114 -0.262,0.174 -0.014,0.01 -0.029,0.018 -0.042,0.026 0,0 -0.01,0.01 -0.011,0.01 -0.103,0.071 -0.204,0.146 -0.301,0.222 -0.073,0.057 -0.145,0.116 -0.215,0.176 -1.376,1.161 -2.192,2.786 -2.192,4.67 v 0.074 c 0,2.043 0.651,3.533 2.192,4.678 0.178,0.133 0.367,0.26 0.569,0.383 0.085,0.053 0.173,0.104 0.262,0.155 0.181,0.101 0.371,0.2 0.569,0.296 0.574,0.277 1.224,0.531 1.956,0.767 0.068,0.021 0.138,0.044 0.208,0.065 0.042,0.013 0.086,0.026 0.128,0.039 0.024,0.01 0.048,0.015 0.072,0.021 0.162,0.049 0.328,0.097 0.497,0.144 0.525,0.146 1.085,0.284 1.685,0.417 0.106,0.023 0.208,0.046 0.312,0.068 0.146,0.033 0.289,0.066 0.429,0.099 h 0.014 c 0.14,0.033 0.277,0.067 0.412,0.102 h 0.01 c 0.135,0.033 0.269,0.068 0.399,0.104 v 0 c 0.132,0.035 0.261,0.07 0.387,0.106 1.187,0.338 2.131,0.713 2.863,1.149 0.401,0.237 0.738,0.494 1.019,0.772 0.598,0.596 0.934,1.293 1.06,2.133 0.02,0.126 0.032,0.255 0.042,0.386 0,0.015 0,0.029 0,0.045 0.01,0.129 0.014,0.261 0.014,0.397 v 0.01 0.063 c 0,0.846 -0.222,1.614 -0.623,2.279 -0.145,0.239 -0.311,0.465 -0.501,0.676 -1.071,1.189 -2.84,1.907 -4.999,1.907 -3.249,0 -5.735,-0.948 -8.31,-3.17 l -0.029,-0.026 c -0.09,-0.092 -0.295,-0.19 -0.535,-0.19 -0.506,0 -0.903,0.419 -0.903,0.954 0,0.301 0.125,0.563 0.333,0.704 l 0.032,0.024 c 2.834,2.289 5.79,3.355 9.302,3.355 3.828,0 6.673,-1.673 7.732,-4.351 0.047,-0.117 0.089,-0.238 0.129,-0.359 0,-0.01 0,-0.01 0,-0.012 0.04,-0.12 0.074,-0.242 0.106,-0.365 v 0 c 0.14,-0.541 0.214,-1.115 0.214,-1.72 v -0.073 c 0,-0.35 -0.022,-0.684 -0.067,-1.004"
         style="fill:#2b2b2c" />
      <path
         inkscape:connector-curvature="0"
         id="path1760"
         d="m 2800.792,2944.961 c -0.065,-0.015 -0.125,-0.028 -0.189,-0.043 0.194,-0.275 0.308,-0.611 0.308,-0.975 0,-0.77 -0.51,-1.242 -0.733,-1.413 -1.871,-1.366 -3.795,-2.155 -6.04,-2.454 0,-0.081 0.01,-0.161 0.014,-0.241 0.44,-0.081 0.909,-0.126 1.404,-0.126 2.373,0 4.343,0.676 6.389,2.192 0.297,0.215 0.605,0.312 0.999,0.312 0.916,0 1.661,-0.757 1.661,-1.688 0,-0.77 -0.511,-1.242 -0.735,-1.412 -2.058,-1.504 -4.177,-2.307 -6.718,-2.528 0.627,-0.189 1.333,-0.293 2.096,-0.293 2.373,0 4.344,0.676 6.39,2.191 0.297,0.216 0.605,0.312 0.999,0.312 0.916,0 1.661,-0.757 1.661,-1.688 0,-0.77 -0.51,-1.241 -0.734,-1.412 -2.456,-1.795 -4.998,-2.595 -8.243,-2.595 -3.684,0 -6.622,1.68 -7.908,4.265 -1.665,0.739 -2.951,1.928 -3.692,3.417 -0.109,0.049 -0.216,0.099 -0.32,0.151 -0.195,0.096 -0.385,0.198 -0.569,0.308 -0.931,0.553 -1.708,1.266 -2.292,2.101 -0.191,0.273 -0.364,0.56 -0.512,0.858 -0.019,0.01 -0.038,0.018 -0.057,0.026 -0.089,0.04 -0.177,0.081 -0.263,0.124 -0.195,0.097 -0.384,0.2 -0.568,0.31 -0.932,0.553 -1.708,1.265 -2.292,2.101 -0.217,0.311 -0.407,0.638 -0.568,0.98 -0.016,0.034 -0.034,0.067 -0.049,0.103 -0.073,0.036 -0.144,0.072 -0.214,0.11 -0.194,0.104 -0.384,0.212 -0.568,0.328 -0.918,0.575 -1.694,1.298 -2.293,2.138 -0.212,0.297 -0.402,0.608 -0.568,0.934 -0.096,0.187 -0.184,0.378 -0.264,0.574 -0.363,0.894 -0.561,1.873 -0.561,2.918 v 0.074 c 0,1.157 0.187,2.184 0.561,3.094 0.08,0.193 0.167,0.383 0.264,0.566 0.164,0.309 0.354,0.602 0.568,0.881 0.355,0.465 0.778,0.891 1.272,1.277 0.311,0.242 0.65,0.47 1.021,0.686 0.181,0.105 0.371,0.208 0.568,0.308 0.091,0.046 0.184,0.091 0.277,0.136 0.213,0.101 0.435,0.198 0.667,0.294 0.471,0.192 0.982,0.376 1.54,0.55 0.042,0.013 0.082,0.025 0.123,0.039 0.055,0.154 0.129,0.297 0.225,0.425 0.094,0.128 0.208,0.238 0.337,0.327 2.355,1.9 4.881,3.014 7.669,3.379 0.01,0.073 0.01,0.148 0.011,0.224 -0.469,0.091 -0.969,0.14 -1.497,0.14 -3.052,0 -5.388,-0.891 -7.812,-2.979 -0.254,-0.252 -0.659,-0.407 -1.062,-0.407 -0.167,0 -0.327,0.024 -0.478,0.07 -0.211,0.063 -0.403,0.168 -0.568,0.306 -0.376,0.314 -0.615,0.796 -0.615,1.349 0,0.17 0.025,0.335 0.07,0.49 0.055,0.19 0.141,0.365 0.254,0.519 0.094,0.126 0.206,0.238 0.335,0.328 2.629,2.121 5.47,3.262 8.652,3.477 -0.565,0.162 -1.201,0.25 -1.889,0.25 -2.85,0 -5.035,-0.832 -7.305,-2.781 -0.394,-0.379 -0.979,-0.605 -1.568,-0.605 -0.383,0 -0.742,0.091 -1.06,0.247 -0.208,0.103 -0.399,0.235 -0.568,0.393 -0.454,0.423 -0.746,1.024 -0.783,1.708 0,0.049 -0.01,0.098 -0.01,0.146 0,0.151 0.017,0.3 0.042,0.444 0.108,0.617 0.434,1.163 0.924,1.513 3.064,2.467 6.407,3.667 10.216,3.667 5.216,0 8.993,-2.866 9.607,-7.109 0.706,-0.61 1.278,-1.333 1.689,-2.15 1.664,-0.747 2.943,-1.927 3.692,-3.417 1.665,-0.748 2.943,-1.928 3.694,-3.418 2.744,-1.233 4.445,-3.644 4.445,-6.678 v -0.074 c 0,-3.993 -2.537,-6.256 -8.482,-7.574 m -1.473,-11.282 c 3.16,0 5.526,0.743 7.906,2.482 0.151,0.115 0.501,0.438 0.501,0.946 0,0.612 -0.489,1.11 -1.092,1.11 -0.274,0 -0.468,-0.059 -0.666,-0.202 -2.119,-1.57 -4.255,-2.301 -6.723,-2.301 -1.302,0 -2.462,0.294 -3.39,0.808 -0.077,-10e-4 -0.153,0 -0.23,0 -1.216,0 -2.35,0.185 -3.37,0.521 1.331,-2.055 3.903,-3.36 7.064,-3.36 m -8.249,4.501 c 0.244,-0.132 0.499,-0.253 0.762,-0.362 0.944,-0.394 2.01,-0.637 3.167,-0.701 0.207,-0.012 0.416,-0.02 0.629,-0.02 0.115,0 0.228,0 0.34,0 2.99,0.053 5.272,0.801 7.565,2.477 0.151,0.115 0.502,0.438 0.502,0.947 0,0.612 -0.49,1.11 -1.092,1.11 -0.275,0 -0.469,-0.06 -0.666,-0.202 -2.119,-1.57 -4.256,-2.301 -6.722,-2.301 -0.45,0 -0.882,0.035 -1.295,0.104 -0.209,0.033 -0.414,0.075 -0.612,0.125 -0.542,0.137 -1.04,0.332 -1.484,0.579 -0.077,0 -0.153,0 -0.23,0 -0.217,0 -0.431,0.01 -0.643,0.02 -0.194,0.011 -0.385,0.025 -0.573,0.045 -0.762,0.08 -1.482,0.235 -2.154,0.457 0.603,-0.931 1.457,-1.708 2.506,-2.279 m -4.239,3.749 c 0.177,-0.116 0.356,-0.228 0.546,-0.331 0.01,-0.01 0.015,-0.01 0.022,-0.012 0.236,-0.128 0.484,-0.244 0.74,-0.352 0.779,-0.324 1.641,-0.548 2.568,-0.652 0.186,-0.02 0.376,-0.035 0.567,-0.047 0,0.01 0,0.018 0,0.026 0.01,-0.01 0.021,-0.019 0.031,-0.028 0.208,-0.012 0.416,-0.02 0.629,-0.02 0.115,0 0.228,0 0.34,0.01 0.449,0.01 0.884,0.03 1.303,0.07 0.194,0.019 0.384,0.04 0.572,0.065 2.118,0.288 3.9,1.033 5.691,2.341 0.15,0.115 0.502,0.438 0.502,0.947 0,0.33 -0.143,0.626 -0.369,0.83 -0.193,0.173 -0.447,0.279 -0.723,0.279 -0.274,0 -0.468,-0.059 -0.666,-0.202 -0.472,-0.35 -0.947,-0.655 -1.423,-0.924 -0.428,-0.239 -0.857,-0.446 -1.294,-0.622 -0.474,-0.19 -0.955,-0.344 -1.445,-0.461 -0.82,-0.196 -1.668,-0.294 -2.56,-0.294 -0.107,0 -0.213,0 -0.318,0.01 -0.197,0.01 -0.39,0.021 -0.578,0.041 -0.135,0.016 -0.268,0.034 -0.399,0.056 -0.209,0.034 -0.413,0.076 -0.612,0.126 -0.542,0.137 -1.039,0.332 -1.484,0.578 -0.076,0 -0.151,0 -0.229,0 -0.218,0 -0.431,0.01 -0.644,0.019 -0.067,0.01 -0.133,0.012 -0.2,0.018 -0.125,0.01 -0.251,0.016 -0.375,0.028 -0.065,0.01 -0.129,0.019 -0.194,0.026 -0.688,0.084 -1.345,0.227 -1.958,0.43 0.494,-0.76 1.159,-1.416 1.96,-1.945 m -3.693,3.419 c 0.177,-0.117 0.357,-0.229 0.546,-0.332 0.01,0 0.016,-0.01 0.022,-0.011 0.086,-0.048 0.174,-0.091 0.263,-0.134 0.156,-0.077 0.314,-0.151 0.477,-0.219 0.03,-0.012 0.062,-0.024 0.092,-0.037 0.702,-0.281 1.471,-0.483 2.292,-0.591 0.062,-0.01 0.123,-0.018 0.185,-0.024 0.126,-0.014 0.255,-0.021 0.384,-0.032 0.061,0 0.121,-0.011 0.182,-0.015 0,0.01 0,0.018 0,0.025 0.011,-0.01 0.021,-0.019 0.032,-0.027 0.207,-0.012 0.415,-0.02 0.629,-0.02 0.115,0 0.226,0 0.34,0.01 0.449,0.01 0.883,0.03 1.302,0.07 0.193,0.02 0.384,0.04 0.572,0.066 0.448,0.06 0.879,0.144 1.299,0.247 0.322,0.078 0.636,0.169 0.945,0.272 1.201,0.404 2.323,1.001 3.446,1.821 0.085,0.064 0.232,0.197 0.346,0.39 0.088,0.149 0.157,0.334 0.157,0.558 0,0.033 0,0.066 -0.01,0.1 -0.025,0.29 -0.162,0.547 -0.365,0.73 -0.193,0.173 -0.445,0.279 -0.723,0.279 -0.274,0 -0.468,-0.059 -0.666,-0.202 -0.473,-0.35 -0.946,-0.655 -1.424,-0.924 -0.427,-0.239 -0.857,-0.447 -1.294,-0.622 -0.474,-0.191 -0.953,-0.344 -1.445,-0.462 -0.819,-0.196 -1.668,-0.293 -2.559,-0.293 -0.108,0 -0.214,0 -0.319,0.01 -0.153,0.01 -0.304,0.017 -0.452,0.031 -0.042,0 -0.085,0.01 -0.126,0.011 -0.135,0.015 -0.268,0.034 -0.398,0.055 -0.015,0 -0.029,0.01 -0.045,0.01 -0.193,0.032 -0.383,0.071 -0.567,0.118 -0.531,0.135 -1.019,0.326 -1.457,0.564 -0.09,0 -0.179,0.01 -0.269,0.013 -0.191,0.01 -0.381,0.022 -0.569,0.04 -0.088,0.01 -0.176,0.017 -0.263,0.026 -0.191,0.022 -0.381,0.049 -0.568,0.08 -0.729,0.121 -1.422,0.306 -2.068,0.554 0.505,-0.837 1.208,-1.556 2.071,-2.125 m 4.466,1.576 c -0.068,-0.01 -0.136,-0.018 -0.205,-0.026 -0.188,-0.023 -0.377,-0.044 -0.569,-0.063 -0.025,0 -0.05,-0.01 -0.075,-0.01 0,-0.054 0.01,-0.105 0.01,-0.157 0.022,0 0.043,-0.01 0.065,-0.011 0.185,-0.032 0.375,-0.059 0.569,-0.077 0.019,0 0.038,-0.01 0.057,-0.01 0.046,0.119 0.096,0.234 0.148,0.347 m -4.077,16.12 -0.019,-0.015 c -0.017,-0.012 -0.032,-0.025 -0.049,-0.038 0.511,0.138 1.056,0.271 1.64,0.399 4.176,0.896 5.345,1.81 5.657,2.896 -2.63,-0.364 -4.968,-1.416 -7.229,-3.242 m -3.692,3.417 -0.019,-0.015 c -0.088,-0.06 -0.162,-0.136 -0.225,-0.225 -0.123,-0.175 -0.192,-0.397 -0.192,-0.639 0,-0.463 0.248,-0.851 0.614,-1.034 0.144,-0.072 0.305,-0.113 0.478,-0.113 0.294,0 0.548,0.124 0.668,0.247 l 0.017,0.016 c 2.539,2.189 4.988,3.124 8.188,3.124 0.517,0 1.008,-0.045 1.475,-0.127 -0.114,0.893 -0.642,1.641 -1.468,2.16 -0.039,0 -0.076,0 -0.116,0 -3.557,10e-4 -6.55,-1.078 -9.42,-3.397 m 15.44,0.57 c 0,0.333 -0.022,0.659 -0.061,0.978 -0.033,0.268 -0.08,0.529 -0.14,0.787 -0.839,3.61 -4.276,6.005 -8.928,6.005 h -0.011 -0.012 c -3.681,0 -6.913,-1.162 -9.877,-3.553 -0.406,-0.284 -0.668,-0.749 -0.724,-1.274 -0.01,-0.072 -0.012,-0.145 -0.012,-0.219 0,-0.673 0.319,-1.255 0.811,-1.595 0.294,-0.204 0.65,-0.321 1.038,-0.321 0.01,0 0.01,0 0.013,0 0,0 0.01,0 0.01,0 0.447,0 0.901,0.174 1.188,0.456 2.383,2.052 4.68,2.928 7.675,2.931 2.927,-0.01 5.003,-1.49 5.154,-3.646 0.01,-0.084 0.01,-0.168 0.01,-0.254 v -0.073 c 0,-0.104 0,-0.207 -0.01,-0.309 -0.01,-0.1 -0.013,-0.196 -0.024,-0.292 v -0.017 c -0.012,-0.095 -0.026,-0.187 -0.045,-0.277 -0.318,-1.538 -1.691,-2.577 -6.136,-3.53 -0.575,-0.127 -1.128,-0.263 -1.659,-0.407 -0.146,-0.04 -0.292,-0.081 -0.435,-0.122 -0.042,-0.012 -0.083,-0.025 -0.125,-0.037 -0.151,-0.045 -0.3,-0.09 -0.448,-0.137 -0.596,-0.189 -1.157,-0.396 -1.68,-0.627 -0.195,-0.086 -0.383,-0.175 -0.568,-0.267 -0.089,-0.045 -0.176,-0.091 -0.263,-0.138 -0.196,-0.104 -0.386,-0.214 -0.568,-0.328 -0.979,-0.611 -1.757,-1.359 -2.293,-2.298 -0.238,-0.417 -0.428,-0.872 -0.568,-1.369 v -4.243 c 0.14,-0.484 0.331,-0.944 0.568,-1.379 0.541,-0.99 1.32,-1.842 2.293,-2.511 0.153,-0.105 0.311,-0.208 0.474,-0.305 0.031,-0.019 0.063,-0.035 0.094,-0.053 0.087,-0.05 0.174,-0.101 0.263,-0.147 0,0 0.01,0 0.01,-0.01 v 0 c 0.125,-0.066 0.251,-0.129 0.381,-0.19 0.057,-0.025 0.116,-0.051 0.174,-0.075 0.704,-0.311 1.471,-0.541 2.292,-0.685 0.187,-0.032 0.377,-0.06 0.568,-0.083 0.061,-0.01 0.12,-0.016 0.182,-0.021 0.027,0 0.055,-0.01 0.082,-0.01 0.14,-0.013 0.282,-0.025 0.425,-0.034 h 0.01 c 0.045,0 0.09,0 0.135,-0.01 0.126,-0.01 0.253,-0.013 0.382,-0.015 0.063,0 0.125,0 0.189,0 0,0 0.01,0 0.013,0 0.364,0 0.718,0.012 1.066,0.031 0.193,0.013 0.382,0.027 0.571,0.045 0.024,0 0.047,0.01 0.071,0.01 0.191,0.019 0.382,0.04 0.569,0.065 0.187,0.025 0.372,0.055 0.554,0.087 0.112,0.02 0.223,0.042 0.332,0.064 0.036,0.01 0.072,0.015 0.108,0.021 0.13,0.028 0.259,0.058 0.387,0.088 1.68,0.41 3.197,1.135 4.683,2.22 0.142,0.107 0.383,0.321 0.566,0.643 0.024,0.042 0.047,0.087 0.068,0.134 0.01,0.01 0.01,0.019 0.013,0.027 0.019,0.042 0.038,0.086 0.054,0.131 0,0.01 0,0.012 0.01,0.018 0.038,0.107 0.068,0.225 0.085,0.35 0.013,0.085 0.02,0.174 0.02,0.268 0,0.156 -0.021,0.309 -0.057,0.454 -0.048,0.193 -0.124,0.374 -0.225,0.539 -0.326,0.528 -0.901,0.883 -1.559,0.886 -0.423,0 -0.772,-0.112 -1.095,-0.348 -1.303,-0.965 -2.575,-1.581 -3.94,-1.897 -0.188,-0.044 -0.377,-0.082 -0.569,-0.114 -0.568,-0.096 -1.156,-0.144 -1.771,-0.144 0,0 -0.01,0 -0.012,0 -0.174,0 -0.343,0.01 -0.51,0.019 -0.101,0.01 -0.202,0.014 -0.3,0.023 v 0 0 c -0.091,0.01 -0.18,0.022 -0.269,0.034 -0.089,0.013 -0.177,0.027 -0.263,0.044 -0.196,0.036 -0.385,0.08 -0.568,0.132 -0.98,0.275 -1.77,0.767 -2.292,1.416 -0.116,0.144 -0.221,0.295 -0.309,0.453 v 0 c -0.032,0.06 -0.064,0.119 -0.093,0.181 0,0 0,0 0,0 -0.028,0.059 -0.054,0.118 -0.078,0.179 v 0.012 c -0.024,0.059 -0.045,0.116 -0.064,0.176 0,0.01 0,0.012 -0.01,0.019 -0.01,0.014 -0.01,0.028 -0.012,0.043 -0.091,0.298 -0.141,0.614 -0.141,0.946 v 0.074 c 0,0.401 0.039,0.773 0.141,1.12 0.108,0.368 0.287,0.708 0.568,1.025 0.454,0.515 1.177,0.974 2.292,1.402 0.18,0.068 0.368,0.137 0.568,0.204 0.094,0.032 0.188,0.063 0.287,0.095 0.201,0.063 0.415,0.127 0.637,0.19 0.531,0.15 1.124,0.299 1.781,0.446 0.078,0.018 0.153,0.034 0.231,0.052 0.139,0.031 0.272,0.063 0.408,0.096 3.367,0.791 5.61,1.908 6.89,3.5 0.083,0.102 0.159,0.207 0.233,0.313 0.01,0.01 0.01,0.014 0.014,0.021 0.071,0.104 0.139,0.209 0.204,0.315 0.049,0.082 0.097,0.167 0.143,0.251 0.183,0.344 0.332,0.707 0.447,1.09 0.198,0.663 0.294,1.386 0.294,2.175 v 0.071 z m -11.568,-15.411 c 0.086,-0.017 0.174,-0.033 0.263,-0.048 0.184,-0.028 0.374,-0.05 0.569,-0.063 0.031,0 0.063,-0.01 0.096,-0.01 0.25,0.311 0.532,0.603 0.858,0.875 0.385,0.321 0.829,0.62 1.338,0.898 0.182,0.099 0.371,0.195 0.569,0.289 0.762,0.363 1.65,0.689 2.684,0.987 -0.102,0.214 -0.162,0.454 -0.171,0.71 -0.066,-0.016 -0.131,-0.031 -0.199,-0.046 -0.88,-0.191 -1.646,-0.386 -2.314,-0.585 -0.198,-0.06 -0.387,-0.119 -0.569,-0.179 -0.997,-0.331 -1.74,-0.679 -2.292,-1.055 -0.219,-0.147 -0.408,-0.301 -0.569,-0.46 -0.097,-0.094 -0.185,-0.19 -0.263,-0.289 v -1.026 z m 0.263,6.277 c -0.09,-0.029 -0.178,-0.06 -0.263,-0.09 -0.202,-0.07 -0.392,-0.141 -0.568,-0.211 -1.471,-0.594 -2.063,-1.203 -2.292,-1.875 v -0.924 c 0.271,0.356 0.586,0.688 0.955,0.996 0.384,0.321 0.829,0.619 1.337,0.897 0.182,0.1 0.37,0.196 0.568,0.29 0.086,0.041 0.174,0.082 0.263,0.121 0.183,0.082 0.372,0.161 0.569,0.24 0.559,0.222 1.173,0.43 1.853,0.626 -0.08,0.167 -0.135,0.352 -0.16,0.546 -0.634,-0.146 -1.196,-0.293 -1.693,-0.439 -0.201,-0.059 -0.389,-0.118 -0.569,-0.177 m 4.395,0.569 c 0.495,0.106 0.954,0.215 1.378,0.325 1.318,0.941 2.648,1.558 4.109,1.89 0.639,0.643 0.853,1.374 0.877,2.231 h -0.01 c -1.284,-1.92 -3.7,-3.256 -7.399,-4.146 -0.174,-0.042 -0.348,-0.084 -0.528,-0.125 0.016,-0.188 0.072,-0.364 0.165,-0.515 0.145,0.038 0.292,0.076 0.443,0.113 0.308,0.08 0.629,0.156 0.964,0.229 m 9.263,4.382 v 0.011 c 0,0.042 0,0.084 0,0.126 0,0.196 -0.013,0.391 -0.031,0.58 -0.073,0.765 -0.262,1.476 -0.558,2.125 -0.118,0.26 -0.255,0.51 -0.406,0.75 -0.229,0.36 -0.496,0.694 -0.797,1.004 0.01,-0.137 0.011,-0.274 0.011,-0.413 v -0.073 c 0,-1.154 -0.197,-2.183 -0.602,-3.098 0.016,-0.103 0.029,-0.208 0.039,-0.314 0,-0.012 0,-0.023 0,-0.036 0.01,-0.117 0.016,-0.235 0.016,-0.355 v -0.073 c 0,-0.038 0,-0.074 0,-0.112 -0.014,-0.829 -0.188,-1.526 -0.568,-2.125 -0.156,-0.245 -0.346,-0.474 -0.576,-0.688 -0.834,-0.783 -2.174,-1.376 -4.171,-1.898 -0.415,-0.109 -0.856,-0.215 -1.329,-0.317 -0.057,-0.013 -0.112,-0.024 -0.17,-0.037 -0.34,-0.075 -0.667,-0.152 -0.984,-0.232 -0.034,-0.01 -0.066,-0.017 -0.1,-0.025 -0.193,-0.05 -0.384,-0.1 -0.569,-0.151 -0.026,-0.01 -0.053,-0.014 -0.079,-0.021 -0.825,-0.229 -1.561,-0.479 -2.213,-0.75 -0.198,-0.082 -0.386,-0.167 -0.569,-0.253 -0.089,-0.042 -0.178,-0.084 -0.263,-0.127 -0.2,-0.101 -0.387,-0.206 -0.568,-0.313 -1.069,-0.634 -1.819,-1.379 -2.292,-2.28 v -0.011 c 0.271,-0.79 0.927,-1.422 1.849,-1.813 0.104,0.322 0.251,0.62 0.444,0.897 0.157,0.228 0.346,0.44 0.568,0.643 0.083,0.074 0.17,0.147 0.263,0.22 0.173,0.134 0.361,0.264 0.569,0.387 0.604,0.362 1.362,0.686 2.292,0.984 0.183,0.059 0.372,0.117 0.569,0.174 0.653,0.19 1.383,0.371 2.194,0.548 0.136,0.03 0.268,0.062 0.4,0.092 0.255,0.061 0.502,0.122 0.743,0.185 2.808,0.736 4.667,1.713 5.737,3.066 0.176,0.223 0.331,0.454 0.465,0.697 0.103,0.187 0.193,0.379 0.272,0.578 0.072,0.183 0.135,0.373 0.189,0.567 0.093,0.343 0.157,0.702 0.193,1.081 0.021,0.239 0.034,0.485 0.034,0.74 v 0.06 z m -0.329,-3.535 c -1.119,-1.806 -3.323,-3.05 -6.819,-3.918 0,-0.021 0,-0.043 0,-0.064 0,-0.232 0.063,-0.445 0.171,-0.624 l 2.787,0.667 c 2.133,0.555 3.391,1.168 4.109,1.89 0.639,0.644 0.854,1.374 0.876,2.231 -0.379,-0.046 -0.753,-0.108 -1.121,-0.182 m 4.022,0.118 v 0.01 c 0,0.044 0,0.084 0,0.126 0,0.196 -0.014,0.391 -0.031,0.581 -0.073,0.764 -0.262,1.476 -0.558,2.124 -0.118,0.261 -0.255,0.51 -0.407,0.75 -0.606,0.956 -1.47,1.743 -2.546,2.32 0.206,-0.576 0.338,-1.188 0.392,-1.834 0.015,-0.191 0.025,-0.385 0.027,-0.582 0,-0.022 0,-0.045 0,-0.067 v -0.073 c 0,-0.187 -0.01,-0.367 -0.019,-0.547 0.334,-0.451 0.574,-0.96 0.703,-1.516 0.045,-0.193 0.074,-0.393 0.092,-0.596 0,-0.012 0,-0.023 0,-0.035 0.01,-0.118 0.015,-0.235 0.015,-0.356 v -0.073 c 0,-0.038 0,-0.074 0,-0.111 -0.014,-0.83 -0.188,-1.527 -0.568,-2.126 -0.156,-0.245 -0.347,-0.474 -0.576,-0.688 -0.834,-0.782 -2.174,-1.376 -4.17,-1.898 l -3.231,-0.784 c -1.196,-0.333 -2.204,-0.705 -3.044,-1.131 -0.199,-0.101 -0.388,-0.204 -0.569,-0.311 -0.572,-0.339 -1.052,-0.71 -1.446,-1.119 0.499,0.015 0.979,0.063 1.446,0.147 0.191,0.034 0.381,0.075 0.569,0.122 1.246,0.309 2.413,0.885 3.61,1.772 0.421,0.307 0.893,0.455 1.439,0.455 0.926,0 1.73,-0.532 2.136,-1.313 3.524,0.949 5.52,2.286 6.319,4.301 0.073,0.184 0.136,0.373 0.19,0.567 0.092,0.342 0.157,0.702 0.192,1.082 0.022,0.239 0.035,0.484 0.035,0.739 z m -6.459,-8.009 c 0.287,0.071 0.581,0.141 0.888,0.209 5.353,1.146 6.366,2.506 6.366,4.613 v 0.073 c 0,0.174 -0.013,0.343 -0.036,0.51 -0.191,0.04 -0.387,0.072 -0.589,0.099 -0.823,-2.255 -2.961,-3.765 -6.703,-4.789 0.049,-0.193 0.077,-0.396 0.077,-0.604 0,-0.037 0,-0.074 0,-0.111 m 10.152,4.591 v 0.011 c 0,1.035 -0.207,1.985 -0.592,2.83 -0.119,0.261 -0.255,0.511 -0.408,0.75 -0.606,0.956 -1.47,1.744 -2.546,2.32 0.206,-0.576 0.338,-1.188 0.391,-1.834 0.016,-0.191 0.025,-0.385 0.028,-0.582 0,-0.022 0,-0.044 0,-0.067 v -0.073 c 0,-0.186 -0.01,-0.367 -0.019,-0.546 0.334,-0.451 0.573,-0.961 0.703,-1.517 0.047,-0.205 0.078,-0.415 0.095,-0.631 0.01,-0.117 0.016,-0.236 0.016,-0.356 v -0.073 c 0,-2.779 -1.72,-4.087 -6.815,-5.178 -0.388,-0.086 -0.758,-0.176 -1.114,-0.267 -0.216,-0.685 -0.693,-1.119 -0.938,-1.305 -1.734,-1.268 -3.507,-2.062 -5.512,-2.451 -0.091,-0.161 -0.175,-0.326 -0.249,-0.497 0.038,0 0.075,0 0.114,0 1.345,0 2.561,0.218 3.734,0.682 0.384,0.231 0.829,0.447 1.342,0.65 0.437,0.25 0.874,0.534 1.313,0.859 0.297,0.216 0.605,0.312 0.998,0.312 0.307,0 0.595,-0.086 0.843,-0.235 0.188,0.043 0.38,0.088 0.579,0.131 5.314,1.177 7.697,3.02 8,6.267 0.022,0.238 0.035,0.484 0.035,0.739 v 0.063 z m -8.103,-7.677 c 0.143,-0.205 0.242,-0.443 0.284,-0.701 0.682,0.205 1.429,0.396 2.247,0.578 5.352,1.147 6.367,2.506 6.367,4.613 v 0.073 c 0,0.572 -0.126,1.104 -0.359,1.582 -0.586,-3.093 -3.177,-4.957 -8.351,-6.103 -0.064,-0.013 -0.125,-0.027 -0.188,-0.042 m 11.795,4.27 c 0,2.625 -1.323,4.71 -3.544,5.9 0.273,-0.766 0.42,-1.598 0.42,-2.482 v -0.074 c 0,-0.186 -0.01,-0.367 -0.019,-0.547 0.522,-0.705 0.813,-1.555 0.813,-2.503 v -0.073 c 0,-2.779 -1.72,-4.086 -6.815,-5.178 -0.87,-0.192 -1.66,-0.397 -2.377,-0.619 -0.116,-0.574 -0.51,-0.936 -0.699,-1.081 -1.395,-1.019 -2.816,-1.715 -4.377,-2.128 -0.137,-0.221 -0.257,-0.451 -0.359,-0.69 0.038,0 0.076,0 0.114,0 1.345,0 2.561,0.218 3.735,0.682 0.384,0.231 0.83,0.446 1.341,0.649 0.437,0.25 0.874,0.535 1.314,0.86 0.297,0.216 0.604,0.312 0.998,0.312 0.308,0 0.595,-0.087 0.843,-0.236 0.188,0.044 0.379,0.088 0.579,0.131 5.706,1.264 8.034,3.294 8.034,7.006 v 0.073 z"
         style="fill:#2b2b2c" />
    </g>
  </g>
</svg>
