<?xml version="1.0" encoding="UTF-8" standalone="no"?>
<svg
   xmlns:dc="http://purl.org/dc/elements/1.1/"
   xmlns:cc="http://creativecommons.org/ns#"
   xmlns:rdf="http://www.w3.org/1999/02/22-rdf-syntax-ns#"
   xmlns:svg="http://www.w3.org/2000/svg"
   xmlns="http://www.w3.org/2000/svg"
   xmlns:xlink="http://www.w3.org/1999/xlink"
   xmlns:sodipodi="http://sodipodi.sourceforge.net/DTD/sodipodi-0.dtd"
   xmlns:inkscape="http://www.inkscape.org/namespaces/inkscape"
   inkscape:version="1.0rc1 (09960d6, 2020-04-09)"
   sodipodi:docname="fuego.svg"
   id="svg5745"
   version="1.1"
   viewBox="0 0 27 27"
   height="27mm"
   width="27mm">
  <defs
     id="defs5739">
    <clipPath
       id="SVGID_4_">
      <use
         height="100%"
         width="100%"
         y="0"
         x="0"
         xlink:href="#SVGID_3_"
         style="overflow:visible"
         id="use927" />
    </clipPath>
    <rect
       id="SVGID_3_"
       x="1990.1331"
       y="-117.51"
       width="1094.546"
       height="474.207" />
  </defs>
  <sodipodi:namedview
     inkscape:window-maximized="0"
     inkscape:window-y="23"
     inkscape:window-x="115"
     inkscape:window-height="787"
     inkscape:window-width="1251"
     showgrid="false"
     inkscape:document-rotation="0"
     inkscape:current-layer="layer1"
     inkscape:document-units="mm"
     inkscape:cy="62.67434"
     inkscape:cx="88.361794"
     inkscape:zoom="3.4474507"
     inkscape:pageshadow="2"
     inkscape:pageopacity="0.0"
     borderopacity="1.0"
     bordercolor="#666666"
     pagecolor="#ffffff"
     id="base" />
  <metadata
     id="metadata5742">
    <rdf:RDF>
      <cc:Work
         rdf:about="">
        <dc:format>image/svg+xml</dc:format>
        <dc:type
           rdf:resource="http://purl.org/dc/dcmitype/StillImage" />
        <dc:title></dc:title>
      </cc:Work>
    </rdf:RDF>
  </metadata>
  <g
     id="layer1"
     inkscape:groupmode="layer"
     inkscape:label="Capa 1">
    <g
       transform="matrix(0.30802532,0,0,0.29304612,-800.78456,-213.03916)"
       id="g5200">
      <g
         id="g5198">
        <path
           inkscape:connector-curvature="0"
           style="fill:#2b2b2c"
           d="m 2601.435,808.919 -0.193,-1.362 c -0.305,-2.148 1.189,-4.137 3.337,-4.441 l 76.749,-10.895 c 2.148,-0.305 4.137,1.189 4.441,3.337 l 0.193,1.362 c 0.305,2.147 -1.189,4.137 -3.337,4.441 l -76.75,10.895 c -2.146,0.305 -4.135,-1.189 -4.44,-3.337 z"
           id="path5196" />
      </g>
    </g>
    <g
       transform="matrix(0.30802532,0,0,0.29304612,-800.78456,-213.03916)"
       id="g5206">
      <g
         id="g5204">
        <path
           inkscape:connector-curvature="0"
           style="fill:#2b2b2c"
           d="m 2685.77,808.919 0.193,-1.362 c 0.305,-2.148 -1.189,-4.137 -3.337,-4.441 l -76.75,-10.895 c -2.148,-0.305 -4.136,1.189 -4.441,3.337 l -0.193,1.362 c -0.305,2.147 1.189,4.137 3.337,4.441 l 76.749,10.895 c 2.148,0.305 4.137,-1.189 4.442,-3.337 z"
           id="path5202" />
      </g>
    </g>
    <path
       inkscape:connector-curvature="0"
       style="fill:#dea639;stroke-width:0.300442"
       d="m 19.296505,14.054594 h 3.08e-4 l -0.003,-0.0062 C 19.188754,13.786408 19.064615,13.533216 18.922924,13.290868 L 15.079639,5.4390379 C 14.434942,4.1217956 12.463272,4.13088 11.83182,5.4539786 L 8.048344,13.381756 c -0.4623464,0.824631 -0.7250914,1.765896 -0.7250914,2.765769 0,3.25164 2.7706884,5.88759 6.1885374,5.88759 3.417848,0 6.188537,-2.63595 6.188537,-5.88759 0,-0.737305 -0.14354,-1.442373 -0.403822,-2.092935 z"
       id="path5208" />
    <path
       inkscape:connector-curvature="0"
       style="fill:#c45241;stroke-width:0.300442"
       d="m 16.498403,17.91489 v 0 -0.0032 c -0.05421,-0.135094 -0.118282,-0.265792 -0.191592,-0.390923 L 14.32282,13.46703 c -0.332974,-0.68016 -1.350691,-0.675471 -1.676582,0.0073 l -1.953496,4.092975 c -0.238719,0.425797 -0.374251,0.911667 -0.374251,1.428015 0,1.678861 1.43047,3.039474 3.195148,3.039474 1.764676,0 3.194837,-1.360906 3.194837,-3.039474 0,-0.380668 -0.07454,-0.74463 -0.20884,-1.080461 z"
       id="path5210" />
  </g>
</svg>
