<?xml version="1.0" encoding="UTF-8" standalone="no"?>
<svg
   xmlns:dc="http://purl.org/dc/elements/1.1/"
   xmlns:cc="http://creativecommons.org/ns#"
   xmlns:rdf="http://www.w3.org/1999/02/22-rdf-syntax-ns#"
   xmlns:svg="http://www.w3.org/2000/svg"
   xmlns="http://www.w3.org/2000/svg"
   xmlns:xlink="http://www.w3.org/1999/xlink"
   xmlns:sodipodi="http://sodipodi.sourceforge.net/DTD/sodipodi-0.dtd"
   xmlns:inkscape="http://www.inkscape.org/namespaces/inkscape"
   width="4.5mm"
   height="4.5mm"
   viewBox="0 0 4.5 4.5"
   version="1.1"
   id="svg5745"
   sodipodi:docname="ig2.svg"
   inkscape:version="1.0rc1 (09960d6, 2020-04-09)">
  <defs
     id="defs5739">
    <clipPath
       id="SVGID_4_">
      <use
         id="use927"
         style="overflow:visible"
         xlink:href="#SVGID_3_"
         x="0"
         y="0"
         width="100%"
         height="100%" />
    </clipPath>
    <rect
       height="474.207"
       width="1094.546"
       y="-117.51"
       x="1990.1331"
       id="SVGID_3_" />
    <clipPath
       id="SVGID_6_">
      <use
         xlink:href="#SVGID_5_"
         style="overflow:visible"
         id="use1017"
         x="0"
         y="0"
         width="100%"
         height="100%" />
    </clipPath>
    <circle
       id="SVGID_5_"
       cx="2286.6079"
       cy="2654.2849"
       r="51.238998" />
    <clipPath
       id="SVGID_12_">
      <use
         xlink:href="#SVGID_11_"
         style="overflow:visible"
         id="use1053"
         x="0"
         y="0"
         width="100%"
         height="100%" />
    </clipPath>
    <circle
       id="SVGID_11_"
       cx="2774.25"
       cy="2654.2849"
       r="51.237999" />
  </defs>
  <sodipodi:namedview
     id="base"
     pagecolor="#ffffff"
     bordercolor="#666666"
     borderopacity="1.0"
     inkscape:pageopacity="0.0"
     inkscape:pageshadow="2"
     inkscape:zoom="44.615323"
     inkscape:cx="10.686653"
     inkscape:cy="3.5968612"
     inkscape:document-units="mm"
     inkscape:current-layer="layer1"
     inkscape:document-rotation="0"
     showgrid="false"
     inkscape:window-width="1251"
     inkscape:window-height="787"
     inkscape:window-x="115"
     inkscape:window-y="23"
     inkscape:window-maximized="0" />
  <metadata
     id="metadata5742">
    <rdf:RDF>
      <cc:Work
         rdf:about="">
        <dc:format>image/svg+xml</dc:format>
        <dc:type
           rdf:resource="http://purl.org/dc/dcmitype/StillImage" />
        <dc:title></dc:title>
      </cc:Work>
    </rdf:RDF>
  </metadata>
  <g
     inkscape:label="Capa 1"
     inkscape:groupmode="layer"
     id="layer1">
    <g
       transform="matrix(0.26458333,0,0,0.26458333,-899.53492,-68.96767)"
       id="g2174">
      <path
         style="fill:#c45241"
         d="m 3411.478,260.8 h -6.294 c -2.896,0 -5.246,2.349 -5.246,5.246 v 6.294 c 0,2.896 2.349,5.245 5.246,5.245 h 6.294 c 2.896,0 5.245,-2.349 5.245,-5.245 v -6.294 c 0,-2.897 -2.348,-5.246 -5.245,-5.246 z m 3.671,11.539 c 0,2.025 -1.647,3.672 -3.671,3.672 h -6.294 c -2.025,0 -3.672,-1.647 -3.672,-3.672 v -6.294 c 0,-2.025 1.647,-3.672 3.672,-3.672 h 6.294 c 2.024,0 3.671,1.647 3.671,3.672 z m 0,0"
         id="path2168"
         inkscape:connector-curvature="0" />
      <path
         style="fill:#c45241"
         d="m 3408.331,264.996 c -2.317,0 -4.196,1.879 -4.196,4.196 0,2.317 1.879,4.196 4.196,4.196 2.317,0 4.196,-1.879 4.196,-4.196 0,-2.317 -1.879,-4.196 -4.196,-4.196 z m 0,6.819 c -1.446,0 -2.623,-1.177 -2.623,-2.623 0,-1.447 1.177,-2.623 2.623,-2.623 1.445,0 2.623,1.176 2.623,2.623 0,1.446 -1.178,2.623 -2.623,2.623 z m 0,0"
         id="path2170"
         inkscape:connector-curvature="0" />
      <path
         style="fill:#c45241"
         d="m 3413.401,264.682 c 0,0.309 -0.25,0.559 -0.559,0.559 -0.309,0 -0.559,-0.25 -0.559,-0.559 0,-0.309 0.25,-0.559 0.559,-0.559 0.309,0 0.559,0.25 0.559,0.559 z m 0,0"
         id="path2172"
         inkscape:connector-curvature="0" />
    </g>
  </g>
</svg>
