<?xml version="1.0" encoding="UTF-8" standalone="no"?>
<svg
   xmlns:dc="http://purl.org/dc/elements/1.1/"
   xmlns:cc="http://creativecommons.org/ns#"
   xmlns:rdf="http://www.w3.org/1999/02/22-rdf-syntax-ns#"
   xmlns:svg="http://www.w3.org/2000/svg"
   xmlns="http://www.w3.org/2000/svg"
   xmlns:xlink="http://www.w3.org/1999/xlink"
   xmlns:sodipodi="http://sodipodi.sourceforge.net/DTD/sodipodi-0.dtd"
   xmlns:inkscape="http://www.inkscape.org/namespaces/inkscape"
   width="4.5mm"
   height="4.5mm"
   viewBox="0 0 4.5 4.5"
   version="1.1"
   id="svg5745"
   sodipodi:docname="ig3.svg"
   inkscape:version="1.0rc1 (09960d6, 2020-04-09)">
  <defs
     id="defs5739">
    <clipPath
       id="SVGID_4_">
      <use
         id="use927"
         style="overflow:visible"
         xlink:href="#SVGID_3_"
         x="0"
         y="0"
         width="100%"
         height="100%" />
    </clipPath>
    <rect
       height="474.207"
       width="1094.546"
       y="-117.51"
       x="1990.1331"
       id="SVGID_3_" />
    <clipPath
       id="SVGID_6_">
      <use
         xlink:href="#SVGID_5_"
         style="overflow:visible"
         id="use1017"
         x="0"
         y="0"
         width="100%"
         height="100%" />
    </clipPath>
    <circle
       id="SVGID_5_"
       cx="2286.6079"
       cy="2654.2849"
       r="51.238998" />
    <clipPath
       id="SVGID_12_">
      <use
         xlink:href="#SVGID_11_"
         style="overflow:visible"
         id="use1053"
         x="0"
         y="0"
         width="100%"
         height="100%" />
    </clipPath>
    <circle
       id="SVGID_11_"
       cx="2774.25"
       cy="2654.2849"
       r="51.237999" />
  </defs>
  <sodipodi:namedview
     id="base"
     pagecolor="#ffffff"
     bordercolor="#666666"
     borderopacity="1.0"
     inkscape:pageopacity="0.0"
     inkscape:pageshadow="2"
     inkscape:zoom="14.50798"
     inkscape:cx="15.637327"
     inkscape:cy="10.019812"
     inkscape:document-units="mm"
     inkscape:current-layer="layer1"
     inkscape:document-rotation="0"
     showgrid="false"
     inkscape:window-width="1251"
     inkscape:window-height="787"
     inkscape:window-x="115"
     inkscape:window-y="23"
     inkscape:window-maximized="0" />
  <metadata
     id="metadata5742">
    <rdf:RDF>
      <cc:Work
         rdf:about="">
        <dc:format>image/svg+xml</dc:format>
        <dc:type
           rdf:resource="http://purl.org/dc/dcmitype/StillImage" />
        <dc:title></dc:title>
      </cc:Work>
    </rdf:RDF>
  </metadata>
  <g
     inkscape:label="Capa 1"
     inkscape:groupmode="layer"
     id="layer1">
    <path
       inkscape:connector-curvature="0"
       id="path1614"
       d="M 3.1020271,0.04101583 H 1.4367396 C 0.6705062,0.04101583 0.049,0.66252208 0.049,1.4287554 V 3.094043 c 0,0.7662333 0.6215062,1.3877396 1.3877396,1.3877396 h 1.6652875 c 0.7662333,0 1.3877396,-0.6215063 1.3877396,-1.3877396 V 1.4287554 C 4.4900312,0.66252208 3.868525,0.04101583 3.1020271,0.04101583 Z m 0.97155,3.05302717 c 0,0.5355166 -0.4357688,0.97155 -0.9712854,0.97155 H 1.4370042 c -0.5355167,0 -0.9712855,-0.4357688 -0.9712855,-0.97155 V 1.4287554 c 0,-0.53551665 0.4357688,-0.97154999 0.9712855,-0.97154999 h 1.6652875 c 0.5355166,0 0.9712854,0.43576875 0.9712854,0.97154999 z m 0,0"
       style="fill:#ffffff;stroke-width:0.264583" />
    <path
       inkscape:connector-curvature="0"
       id="path1616"
       d="m 2.2693833,1.1512075 c -0.6130396,0 -1.1101916,0.497152 -1.1101916,1.1101917 0,0.6130396 0.497152,1.1101917 1.1101916,1.1101917 0.6130396,0 1.1101917,-0.4971521 1.1101917,-1.1101917 0,-0.6130397 -0.4971521,-1.1101917 -1.1101917,-1.1101917 z m 0,1.8041938 c -0.3823229,0 -0.6937375,-0.3114146 -0.6937375,-0.6937375 0,-0.3828521 0.3114146,-0.6940022 0.6937375,-0.6940022 0.3825875,0 0.6940021,0.3111501 0.6940021,0.6940022 0,0.3823229 -0.3114146,0.6937375 -0.6940021,0.6937375 z m 0,0"
       style="fill:#ffffff;stroke-width:0.264583" />
    <path
       inkscape:connector-curvature="0"
       id="path1618"
       d="m 3.6108208,1.0681283 c 0,0.081756 -0.066146,0.1479021 -0.1479021,0.1479021 -0.081756,0 -0.1481666,-0.066146 -0.1481666,-0.1479021 0,-0.0820208 0.066146,-0.14816664 0.1481666,-0.14816664 0.081756,0 0.1479021,0.0661458 0.1479021,0.14816664 z m 0,0"
       style="fill:#ffffff;stroke-width:0.264583" />
  </g>
</svg>
