<?xml version="1.0" encoding="iso-8859-1"?>
<!-- Generator: Adobe Illustrator 16.0.0, SVG Export Plug-In . SVG Version: 6.00 Build 0)  -->
<!DOCTYPE svg PUBLIC "-//W3C//DTD SVG 1.1//EN" "http://www.w3.org/Graphics/SVG/1.1/DTD/svg11.dtd">
<svg version="1.1" id="Layer_1" xmlns="http://www.w3.org/2000/svg" xmlns:xlink="http://www.w3.org/1999/xlink" x="0px" y="0px"
	 width="188.1px" height="70.19px" viewBox="0 0 188.1 70.19" style="enable-background:new 0 0 188.1 70.19;" xml:space="preserve"
	>
<g>
	<path style="fill:#DFA738;" d="M53.841,58.282c3.547-4.195,5.708-9.597,5.746-15.355c0.069-10.799-7.217-20.416-17.72-23.234
		c-1.77-0.476-3.083-1.21-3.983-2.863c-0.87-1.598-2.478-1.975-4.152-1.54c-1.64,0.426-2.558,1.615-2.714,3.317
		c-0.048,0.525-0.014,1.058-0.027,1.586c-0.076,3.056-1.974,4.954-4.981,4.503c-1.245-0.187-2.544-1.136-3.472-2.077
		c-2.524-2.561-5.773-2.926-8.141-0.678c-2.225,2.113-2.19,5.925,0.076,8.218c2.201,2.227,1.92,5.621-0.74,7.285
		c-1.177,0.737-2.564,1.163-3.888,1.643c-1.327,0.479-2.271,1.245-2.468,2.698c-0.21,1.539,0.266,2.745,1.692,3.56
		c1.77,1.011,2.777,2.53,3.378,4.521c3.449,11.425,14.786,18.372,26.899,16.597c1.415-0.207,2.789-0.546,4.112-1.004l-0.053,0.054
		c1.242,0.205,2.527,1.173,3.44,2.128c2.485,2.599,5.728,3.013,8.129,0.799c2.257-2.079,2.28-5.892,0.049-8.219
		C54.461,59.636,54.069,58.972,53.841,58.282z M36.105,56.729c-7.532,0-13.637-6.073-13.637-13.565
		c0-7.491,6.105-13.564,13.637-13.564c7.532,0,13.638,6.073,13.638,13.564C49.743,50.655,43.637,56.729,36.105,56.729z"/>
	<path style="fill:#DFA738;" d="M26.193,15.559c-1.865-0.018-3.396,1.48-3.42,3.346c-0.025,1.944,1.431,3.477,3.337,3.516
		c1.895,0.039,3.461-1.49,3.475-3.388C29.597,17.11,28.101,15.578,26.193,15.559z"/>
	<path style="fill:#DFA738;" d="M10.146,30.474c-1.667-0.083-3.147,1.315-3.196,3.019c-0.047,1.669,1.281,3.087,2.952,3.152
		c1.743,0.067,3.17-1.236,3.235-2.954C13.203,31.979,11.883,30.559,10.146,30.474z"/>
	<path style="fill:#DFA738;" d="M2.646,27.594C1.411,27.612,0.37,28.64,0.352,29.86c-0.019,1.254,1.045,2.326,2.318,2.334
		c1.287,0.009,2.315-1.019,2.313-2.312C4.979,28.597,3.935,27.575,2.646,27.594z"/>
	<path style="fill:#DFA738;" d="M11.505,16.25c-1.224-0.008-2.141,0.888-2.157,2.109c-0.016,1.219,0.889,2.142,2.107,2.149
		c1.209,0.008,2.162-0.914,2.172-2.102C13.638,17.21,12.701,16.258,11.505,16.25z"/>
	<path style="fill:#DFA738;" d="M32.105,8.515c-1.128-0.002-2.089,0.959-2.101,2.099c-0.011,1.138,0.92,2.093,2.07,2.123
		c1.134,0.029,2.117-0.906,2.147-2.045C34.254,9.52,33.278,8.517,32.105,8.515z"/>
	<path style="fill:#DFA738;" d="M25.814,6.468c1.003,0,1.818-0.812,1.805-1.797c-0.014-0.999-0.827-1.77-1.845-1.752
		c-1.017,0.019-1.777,0.818-1.746,1.836C24.057,5.725,24.832,6.467,25.814,6.468z"/>
	<path style="fill:#DFA738;" d="M24.253,10.412c0.005-0.773-0.638-1.413-1.407-1.398c-0.76,0.015-1.352,0.673-1.319,1.468
		c0.03,0.753,0.632,1.313,1.389,1.292C23.673,11.751,24.249,11.167,24.253,10.412z"/>
	<path style="fill:#DFA738;" d="M3.716,18.691c-0.777,0.007-1.333,0.56-1.343,1.337c-0.01,0.779,0.525,1.346,1.303,1.378
		c0.785,0.031,1.442-0.572,1.455-1.336C5.143,19.305,4.507,18.685,3.716,18.691z"/>
	<path style="fill:#DFA738;" d="M13.122,1.625c-0.019-0.794-0.631-1.343-1.458-1.307c-0.771,0.034-1.308,0.612-1.285,1.383
		c0.022,0.755,0.607,1.325,1.362,1.328C12.536,3.032,13.141,2.416,13.122,1.625z"/>
	<path style="fill:#DFA738;" d="M8.738,11.877c-0.019-0.794-0.631-1.343-1.458-1.307c-0.771,0.035-1.308,0.612-1.285,1.383
		c0.022,0.755,0.607,1.325,1.362,1.328C8.152,13.284,8.757,12.668,8.738,11.877z"/>
	<g>
		<path style="fill:#FFFFFF;" d="M68.518,32.007v-4.564c0.055-1.019,0.287-1.926,0.696-2.721c0.171-0.333,0.388-0.663,0.651-0.989
			c0.263-0.326,0.584-0.618,0.963-0.876c0.379-0.258,0.827-0.463,1.342-0.616c0.516-0.152,1.118-0.229,1.808-0.229h0.625
			c0.669,0,1.263,0.077,1.782,0.229c0.519,0.153,0.972,0.358,1.358,0.616c0.386,0.259,0.71,0.55,0.973,0.876s0.479,0.656,0.65,0.989
			c0.403,0.795,0.635,1.702,0.696,2.721v4.564c-0.014,0.415-0.071,0.853-0.174,1.315c-0.082,0.387-0.21,0.811-0.384,1.273
			c-0.174,0.461-0.421,0.9-0.743,1.314l1.403,1.833l-1.957,1.509l-1.445-1.854c-0.293,0.108-0.618,0.197-0.973,0.265
			c-0.355,0.068-0.744,0.103-1.168,0.103h-0.666c-0.683,0-1.284-0.083-1.803-0.249c-0.519-0.167-0.972-0.387-1.357-0.658
			s-0.708-0.577-0.968-0.918c-0.26-0.338-0.472-0.688-0.636-1.048C68.805,34.042,68.58,33.081,68.518,32.007z M70.977,31.447
			c0.027,0.679,0.167,1.297,0.42,1.854c0.095,0.238,0.224,0.472,0.384,0.703c0.16,0.231,0.356,0.44,0.588,0.627
			c0.232,0.187,0.505,0.346,0.82,0.479c0.314,0.133,0.68,0.212,1.096,0.24v0.02v-0.02c0.417-0.027,0.784-0.107,1.102-0.24
			c0.318-0.132,0.592-0.292,0.825-0.479c0.232-0.187,0.424-0.396,0.578-0.627c0.154-0.231,0.285-0.465,0.395-0.703
			c0.252-0.557,0.393-1.175,0.42-1.854v-3.281c-0.027-0.639-0.167-1.223-0.42-1.752c-0.109-0.225-0.241-0.447-0.395-0.668
			c-0.154-0.221-0.346-0.417-0.578-0.591c-0.233-0.173-0.506-0.323-0.82-0.448c-0.314-0.125-0.683-0.202-1.107-0.229v-0.021v0.021
			c-0.416,0.027-0.782,0.104-1.096,0.229c-0.314,0.125-0.587,0.275-0.82,0.448c-0.232,0.173-0.428,0.372-0.588,0.596
			c-0.161,0.224-0.289,0.445-0.384,0.663c-0.253,0.53-0.393,1.114-0.42,1.752V31.447z"/>
		<path style="fill:#FFFFFF;" d="M84.016,32.068v-9.802h2.479v9.242c0.027,0.679,0.167,1.297,0.42,1.854
			c0.096,0.237,0.224,0.472,0.384,0.703c0.161,0.23,0.356,0.44,0.589,0.626c0.232,0.187,0.502,0.347,0.809,0.479
			c0.308,0.132,0.673,0.212,1.097,0.239l0.02,0.042v-0.042c0.417-0.027,0.782-0.107,1.096-0.239s0.587-0.292,0.82-0.479
			c0.232-0.187,0.425-0.396,0.578-0.626c0.154-0.231,0.285-0.466,0.395-0.703c0.252-0.558,0.393-1.175,0.42-1.854v-9.242h2.459
			v9.802c-0.068,1.073-0.303,2.035-0.697,2.884c-0.172,0.36-0.388,0.711-0.651,1.055c-0.263,0.344-0.584,0.649-0.963,0.917
			c-0.379,0.269-0.827,0.487-1.342,0.657s-1.118,0.255-1.808,0.255h-0.645c-0.683,0-1.284-0.085-1.803-0.255
			c-0.52-0.17-0.972-0.389-1.358-0.657c-0.386-0.268-0.711-0.573-0.978-0.917s-0.482-0.695-0.646-1.055
			C84.289,34.103,84.063,33.142,84.016,32.068z"/>
		<path style="fill:#FFFFFF;" d="M98.244,37.561l4.502-15.294h1.262h1.219l4.551,15.294h-2.449l-1.164-3.984h-4.303l-1.16,3.984
			H98.244z M102.568,31.151h2.887l-1.445-4.946L102.568,31.151z"/>
		<path style="fill:#FFFFFF;" d="M113.084,37.602V22.307h2.48l6.525,10.791V22.287h2.602v15.315h-2.602l-6.525-10.811v10.811
			H113.084z"/>
		<path style="fill:#FFFFFF;" d="M128.061,24.722v-2.456h10.971v2.456h-4.262v12.838h-2.488V24.722H128.061z"/>
		<path style="fill:#FFFFFF;" d="M142.615,32.068v-9.802h2.479v9.242c0.027,0.679,0.168,1.297,0.42,1.854
			c0.096,0.237,0.225,0.472,0.383,0.703c0.162,0.23,0.357,0.44,0.59,0.626c0.232,0.187,0.502,0.347,0.811,0.479
			c0.307,0.132,0.67,0.212,1.096,0.239l0.021,0.042v-0.042c0.416-0.027,0.779-0.107,1.096-0.239
			c0.313-0.132,0.586-0.292,0.818-0.479c0.23-0.187,0.424-0.396,0.578-0.626c0.154-0.231,0.285-0.466,0.395-0.703
			c0.254-0.558,0.393-1.175,0.42-1.854v-9.242h2.461v9.802c-0.07,1.073-0.303,2.035-0.697,2.884
			c-0.172,0.36-0.389,0.711-0.652,1.055c-0.262,0.344-0.584,0.649-0.963,0.917c-0.377,0.269-0.824,0.487-1.34,0.657
			s-1.119,0.255-1.811,0.255h-0.645c-0.682,0-1.283-0.085-1.803-0.255c-0.518-0.17-0.971-0.389-1.357-0.657
			c-0.387-0.268-0.711-0.573-0.979-0.917c-0.266-0.344-0.482-0.695-0.646-1.055C142.887,34.103,142.662,33.142,142.615,32.068z"/>
		<path style="fill:#FFFFFF;" d="M158.645,37.561V22.266h2.479l3.32,5.533l3.309-5.533h2.479v15.294h-2.479V26.729l-3.309,5.614
			l-3.32-5.635v10.852H158.645z"/>
	</g>
	<g>
		<path style="fill:#DFA738;" d="M74.182,48.663h-4.171c0.037,0.477,0.192,0.854,0.466,1.137c0.275,0.276,0.627,0.416,1.058,0.416
			c0.334,0,0.611-0.079,0.83-0.238c0.216-0.158,0.461-0.453,0.735-0.881l1.135,0.631c-0.175,0.298-0.36,0.552-0.555,0.763
			c-0.196,0.213-0.405,0.388-0.627,0.524c-0.224,0.136-0.464,0.236-0.723,0.301c-0.26,0.062-0.54,0.095-0.843,0.095
			c-0.869,0-1.566-0.277-2.091-0.833c-0.526-0.559-0.789-1.299-0.789-2.223c0-0.914,0.254-1.656,0.765-2.223
			c0.514-0.56,1.195-0.838,2.043-0.838c0.857,0,1.535,0.271,2.032,0.813c0.494,0.539,0.741,1.286,0.741,2.241L74.182,48.663z
			 M72.802,47.57c-0.188-0.714-0.639-1.07-1.357-1.07c-0.163,0-0.316,0.024-0.459,0.075c-0.144,0.048-0.273,0.12-0.391,0.213
			s-0.219,0.205-0.302,0.337c-0.084,0.13-0.147,0.278-0.191,0.445H72.802z"/>
		<path style="fill:#DFA738;" d="M75.615,45.454h1.351v0.534c0.469-0.463,0.999-0.694,1.59-0.694c0.676,0,1.204,0.212,1.583,0.635
			c0.326,0.362,0.489,0.95,0.489,1.765v3.55h-1.35V48.01c0-0.569-0.08-0.965-0.24-1.183c-0.155-0.221-0.438-0.333-0.848-0.333
			c-0.447,0-0.764,0.146-0.95,0.44c-0.184,0.289-0.275,0.794-0.275,1.516v2.793h-1.351V45.454z"/>
		<path style="fill:#DFA738;" d="M87.589,48.663h-4.171c0.036,0.477,0.191,0.854,0.466,1.137c0.274,0.276,0.627,0.416,1.058,0.416
			c0.334,0,0.611-0.079,0.83-0.238c0.216-0.158,0.46-0.453,0.735-0.881l1.135,0.631c-0.175,0.298-0.36,0.552-0.556,0.763
			c-0.195,0.213-0.404,0.388-0.627,0.524c-0.224,0.136-0.464,0.236-0.723,0.301c-0.26,0.062-0.541,0.095-0.844,0.095
			c-0.868,0-1.566-0.277-2.091-0.833c-0.525-0.559-0.789-1.299-0.789-2.223c0-0.914,0.254-1.656,0.765-2.223
			c0.514-0.56,1.195-0.838,2.043-0.838c0.857,0,1.535,0.271,2.032,0.813c0.494,0.539,0.741,1.286,0.741,2.241L87.589,48.663z
			 M86.209,47.57c-0.188-0.714-0.64-1.07-1.357-1.07c-0.163,0-0.316,0.024-0.459,0.075c-0.144,0.048-0.274,0.12-0.392,0.213
			c-0.117,0.093-0.218,0.205-0.302,0.337c-0.084,0.13-0.147,0.278-0.191,0.445H86.209z"/>
		<path style="fill:#DFA738;" d="M89.023,45.454h1.345v0.518c0.247-0.258,0.466-0.434,0.657-0.529
			c0.196-0.101,0.426-0.148,0.693-0.148c0.354,0,0.725,0.114,1.111,0.345l-0.615,1.224c-0.255-0.182-0.504-0.272-0.747-0.272
			c-0.733,0-1.1,0.551-1.1,1.651v3.002h-1.345V45.454z"/>
		<path style="fill:#DFA738;" d="M99.195,51.106c0,0.274-0.01,0.515-0.027,0.723s-0.043,0.39-0.076,0.55
			c-0.096,0.436-0.281,0.81-0.561,1.123c-0.527,0.602-1.248,0.904-2.17,0.904c-0.775,0-1.416-0.209-1.918-0.625
			c-0.518-0.429-0.816-1.021-0.896-1.777h1.35c0.053,0.285,0.138,0.505,0.259,0.66c0.277,0.36,0.684,0.541,1.217,0.541
			c0.984,0,1.477-0.601,1.477-1.801v-0.81c-0.535,0.544-1.148,0.815-1.848,0.815c-0.791,0-1.442-0.286-1.947-0.855
			c-0.511-0.579-0.765-1.303-0.765-2.17c0-0.845,0.237-1.562,0.71-2.152c0.511-0.626,1.185-0.938,2.021-0.938
			c0.732,0,1.342,0.271,1.828,0.813v-0.653h1.346V51.106z M97.902,48.359c0-0.562-0.148-1.012-0.453-1.349
			c-0.307-0.345-0.697-0.517-1.178-0.517c-0.51,0-0.912,0.188-1.207,0.564c-0.266,0.337-0.4,0.772-0.4,1.308
			c0,0.527,0.134,0.959,0.4,1.296c0.291,0.368,0.693,0.554,1.207,0.554c0.516,0,0.922-0.188,1.219-0.56
			C97.768,49.319,97.902,48.887,97.902,48.359z"/>
		<path style="fill:#DFA738;" d="M102.688,50.167l-2.615-4.713h1.559l1.781,3.328l1.662-3.328h1.518l-4.637,8.939h-1.535
			L102.688,50.167z"/>
		<path style="fill:#DFA738;" d="M115.092,46.138l1.66,1.997l0.057-0.06c0.178-0.193,0.346-0.385,0.508-0.57
			c0.158-0.187,0.313-0.375,0.459-0.566l0.91,0.929c-0.113,0.158-0.26,0.344-0.441,0.553c-0.18,0.21-0.396,0.451-0.646,0.726
			l1.707,2.098h-1.73l-0.922-1.122c-0.844,0.867-1.723,1.301-2.637,1.301c-0.814,0-1.51-0.26-2.08-0.778
			c-0.555-0.522-0.834-1.17-0.834-1.939c0-0.914,0.441-1.674,1.326-2.282l0.604-0.409c0.008-0.005,0.021-0.015,0.041-0.03
			c0.02-0.015,0.049-0.036,0.084-0.065c-0.609-0.645-0.914-1.281-0.914-1.908c0-0.617,0.203-1.121,0.609-1.51
			c0.414-0.387,0.949-0.582,1.602-0.582c0.633,0,1.156,0.188,1.572,0.564c0.414,0.378,0.621,0.852,0.621,1.428
			c0,0.396-0.113,0.755-0.34,1.075C116.084,45.306,115.678,45.69,115.092,46.138z M113.988,46.916l-0.078,0.054
			c-0.57,0.393-0.957,0.707-1.166,0.944c-0.203,0.238-0.305,0.49-0.305,0.755c0,0.382,0.152,0.729,0.461,1.047
			c0.318,0.305,0.668,0.457,1.053,0.457c0.537,0,1.154-0.35,1.855-1.052L113.988,46.916z M114.285,45.162l0.115-0.083
			c0.193-0.147,0.355-0.274,0.482-0.384c0.129-0.108,0.219-0.2,0.275-0.276c0.119-0.146,0.18-0.326,0.18-0.54
			c0-0.242-0.082-0.438-0.246-0.588c-0.162-0.151-0.381-0.227-0.656-0.227c-0.252,0-0.461,0.077-0.635,0.232
			c-0.17,0.146-0.256,0.334-0.256,0.564c0,0.27,0.107,0.534,0.322,0.796l0.346,0.416C114.227,45.093,114.25,45.123,114.285,45.162z"
			/>
		<path style="fill:#DFA738;" d="M129.156,48.663h-4.17c0.035,0.477,0.191,0.854,0.467,1.137c0.273,0.276,0.627,0.416,1.059,0.416
			c0.334,0,0.609-0.079,0.828-0.238c0.217-0.158,0.461-0.453,0.736-0.881l1.135,0.631c-0.174,0.298-0.361,0.552-0.557,0.763
			c-0.193,0.213-0.404,0.388-0.625,0.524c-0.225,0.136-0.465,0.236-0.725,0.301c-0.258,0.062-0.539,0.095-0.842,0.095
			c-0.869,0-1.566-0.277-2.092-0.833c-0.525-0.559-0.789-1.299-0.789-2.223c0-0.914,0.256-1.656,0.766-2.223
			c0.514-0.56,1.193-0.838,2.043-0.838c0.857,0,1.535,0.271,2.031,0.813c0.494,0.539,0.74,1.286,0.74,2.241L129.156,48.663z
			 M127.777,47.57c-0.189-0.714-0.641-1.07-1.355-1.07c-0.164,0-0.318,0.024-0.461,0.075c-0.145,0.048-0.273,0.12-0.393,0.213
			c-0.115,0.093-0.217,0.205-0.301,0.337c-0.084,0.13-0.148,0.278-0.191,0.445H127.777z"/>
		<path style="fill:#DFA738;" d="M130.592,45.454h1.35v0.534c0.469-0.463,1-0.694,1.59-0.694c0.678,0,1.205,0.212,1.584,0.635
			c0.326,0.362,0.49,0.95,0.49,1.765v3.55h-1.35V48.01c0-0.569-0.08-0.965-0.24-1.183c-0.156-0.221-0.438-0.333-0.848-0.333
			c-0.447,0-0.766,0.146-0.951,0.44c-0.184,0.289-0.275,0.794-0.275,1.516v2.793h-1.35V45.454z"/>
		<path style="fill:#DFA738;" d="M142.895,51.106c0,0.274-0.008,0.515-0.027,0.723c-0.018,0.208-0.043,0.39-0.074,0.55
			c-0.094,0.436-0.283,0.81-0.563,1.123c-0.525,0.602-1.248,0.904-2.168,0.904c-0.777,0-1.416-0.209-1.918-0.625
			c-0.52-0.429-0.816-1.021-0.896-1.777h1.35c0.051,0.285,0.139,0.505,0.258,0.66c0.277,0.36,0.686,0.541,1.221,0.541
			c0.982,0,1.475-0.601,1.475-1.801v-0.81c-0.533,0.544-1.15,0.815-1.848,0.815c-0.791,0-1.441-0.286-1.947-0.855
			c-0.51-0.579-0.766-1.303-0.766-2.17c0-0.845,0.238-1.562,0.711-2.152c0.51-0.626,1.184-0.938,2.02-0.938
			c0.734,0,1.344,0.271,1.83,0.813v-0.653h1.344V51.106z M141.604,48.359c0-0.562-0.15-1.012-0.453-1.349
			c-0.307-0.345-0.699-0.517-1.178-0.517c-0.51,0-0.912,0.188-1.207,0.564c-0.266,0.337-0.4,0.772-0.4,1.308
			c0,0.527,0.135,0.959,0.4,1.296c0.291,0.368,0.693,0.554,1.207,0.554s0.92-0.188,1.219-0.56
			C141.467,49.319,141.604,48.887,141.604,48.359z"/>
		<path style="fill:#DFA738;" d="M144.352,43.047c0-0.234,0.086-0.437,0.258-0.605c0.172-0.171,0.375-0.257,0.615-0.257
			c0.242,0,0.449,0.086,0.623,0.257c0.17,0.166,0.254,0.369,0.254,0.611s-0.084,0.448-0.254,0.618
			c-0.168,0.169-0.375,0.256-0.617,0.256c-0.244,0-0.449-0.087-0.621-0.256C144.438,43.501,144.352,43.293,144.352,43.047z
			 M145.898,45.454v5.789h-1.344v-5.789H145.898z"/>
		<path style="fill:#DFA738;" d="M147.564,45.454h1.354v0.534c0.469-0.463,0.998-0.694,1.59-0.694c0.674,0,1.203,0.212,1.582,0.635
			c0.326,0.362,0.49,0.95,0.49,1.765v3.55h-1.352V48.01c0-0.569-0.08-0.965-0.238-1.183c-0.156-0.221-0.438-0.333-0.85-0.333
			c-0.445,0-0.762,0.146-0.949,0.44c-0.184,0.289-0.273,0.794-0.273,1.516v2.793h-1.354V45.454z"/>
		<path style="fill:#DFA738;" d="M159.539,48.663h-4.17c0.035,0.477,0.191,0.854,0.465,1.137c0.275,0.276,0.629,0.416,1.059,0.416
			c0.336,0,0.611-0.079,0.83-0.238c0.215-0.158,0.461-0.453,0.734-0.881l1.137,0.631c-0.174,0.298-0.361,0.552-0.557,0.763
			c-0.193,0.213-0.404,0.388-0.627,0.524c-0.223,0.136-0.465,0.236-0.723,0.301c-0.26,0.062-0.539,0.095-0.844,0.095
			c-0.867,0-1.566-0.277-2.092-0.833c-0.525-0.559-0.787-1.299-0.787-2.223c0-0.914,0.254-1.656,0.766-2.223
			c0.514-0.56,1.193-0.838,2.043-0.838c0.857,0,1.535,0.271,2.031,0.813c0.494,0.539,0.74,1.286,0.74,2.241L159.539,48.663z
			 M158.16,47.57c-0.189-0.714-0.641-1.07-1.355-1.07c-0.164,0-0.318,0.024-0.463,0.075c-0.143,0.048-0.271,0.12-0.391,0.213
			c-0.117,0.093-0.217,0.205-0.301,0.337c-0.084,0.13-0.148,0.278-0.191,0.445H158.16z"/>
		<path style="fill:#DFA738;" d="M166.273,48.663h-4.17c0.035,0.477,0.191,0.854,0.465,1.137c0.275,0.276,0.627,0.416,1.059,0.416
			c0.334,0,0.611-0.079,0.83-0.238c0.215-0.158,0.461-0.453,0.734-0.881l1.135,0.631c-0.172,0.298-0.359,0.552-0.555,0.763
			c-0.195,0.213-0.404,0.388-0.625,0.524c-0.225,0.136-0.467,0.236-0.725,0.301c-0.26,0.062-0.541,0.095-0.842,0.095
			c-0.869,0-1.566-0.277-2.092-0.833c-0.525-0.559-0.789-1.299-0.789-2.223c0-0.914,0.256-1.656,0.766-2.223
			c0.514-0.56,1.193-0.838,2.043-0.838c0.855,0,1.533,0.271,2.031,0.813c0.494,0.539,0.74,1.286,0.74,2.241L166.273,48.663z
			 M164.895,47.57c-0.189-0.714-0.641-1.07-1.357-1.07c-0.164,0-0.316,0.024-0.459,0.075c-0.145,0.048-0.275,0.12-0.393,0.213
			s-0.217,0.205-0.301,0.337c-0.084,0.13-0.148,0.278-0.191,0.445H164.895z"/>
		<path style="fill:#DFA738;" d="M167.709,45.454h1.344v0.518c0.246-0.258,0.465-0.434,0.656-0.529
			c0.195-0.101,0.428-0.148,0.693-0.148c0.355,0,0.727,0.114,1.111,0.345l-0.613,1.224c-0.256-0.182-0.506-0.272-0.748-0.272
			c-0.734,0-1.1,0.551-1.1,1.651v3.002h-1.344V45.454z"/>
		<path style="fill:#DFA738;" d="M172.232,43.047c0-0.234,0.084-0.437,0.256-0.605c0.172-0.171,0.377-0.257,0.615-0.257
			c0.244,0,0.449,0.086,0.621,0.257c0.172,0.166,0.258,0.369,0.258,0.611s-0.086,0.448-0.258,0.618
			c-0.168,0.169-0.371,0.256-0.615,0.256c-0.242,0-0.449-0.087-0.621-0.256C172.316,43.501,172.232,43.293,172.232,43.047z
			 M173.779,45.454v5.789h-1.344v-5.789H173.779z"/>
		<path style="fill:#DFA738;" d="M175.445,45.454h1.35v0.534c0.471-0.463,1-0.694,1.59-0.694c0.678,0,1.205,0.212,1.584,0.635
			c0.328,0.362,0.49,0.95,0.49,1.765v3.55h-1.35V48.01c0-0.569-0.08-0.965-0.24-1.183c-0.154-0.221-0.438-0.333-0.848-0.333
			c-0.447,0-0.764,0.146-0.949,0.44c-0.186,0.289-0.277,0.794-0.277,1.516v2.793h-1.35V45.454z"/>
		<path style="fill:#DFA738;" d="M187.748,51.106c0,0.274-0.01,0.515-0.027,0.723s-0.043,0.39-0.074,0.55
			c-0.094,0.436-0.283,0.81-0.561,1.123c-0.525,0.602-1.25,0.904-2.17,0.904c-0.777,0-1.418-0.209-1.918-0.625
			c-0.52-0.429-0.816-1.021-0.896-1.777h1.35c0.051,0.285,0.137,0.505,0.258,0.66c0.277,0.36,0.686,0.541,1.219,0.541
			c0.984,0,1.477-0.601,1.477-1.801v-0.81c-0.533,0.544-1.15,0.815-1.848,0.815c-0.791,0-1.441-0.286-1.947-0.855
			c-0.512-0.579-0.764-1.303-0.764-2.17c0-0.845,0.234-1.562,0.709-2.152c0.51-0.626,1.184-0.938,2.02-0.938
			c0.734,0,1.344,0.271,1.83,0.813v-0.653h1.344V51.106z M186.457,48.359c0-0.562-0.15-1.012-0.453-1.349
			c-0.309-0.345-0.699-0.517-1.178-0.517c-0.51,0-0.912,0.188-1.207,0.564c-0.266,0.337-0.4,0.772-0.4,1.308
			c0,0.527,0.135,0.959,0.4,1.296c0.291,0.368,0.693,0.554,1.207,0.554s0.92-0.188,1.219-0.56
			C186.32,49.319,186.457,48.887,186.457,48.359z"/>
	</g>
</g>
</svg>
