<?xml version="1.0" encoding="UTF-8" standalone="no"?>
<svg
   xmlns:dc="http://purl.org/dc/elements/1.1/"
   xmlns:cc="http://creativecommons.org/ns#"
   xmlns:rdf="http://www.w3.org/1999/02/22-rdf-syntax-ns#"
   xmlns:svg="http://www.w3.org/2000/svg"
   xmlns="http://www.w3.org/2000/svg"
   xmlns:sodipodi="http://sodipodi.sourceforge.net/DTD/sodipodi-0.dtd"
   xmlns:inkscape="http://www.inkscape.org/namespaces/inkscape"
   sodipodi:docname="luz.svg"
   inkscape:version="1.0rc1 (09960d6, 2020-04-09)"
   id="svg12798"
   version="1.1"
   viewBox="0 0 18 18"
   height="18mm"
   width="18mm">
  <defs
     id="defs12792" />
  <sodipodi:namedview
     inkscape:window-maximized="0"
     inkscape:window-y="23"
     inkscape:window-x="0"
     inkscape:window-height="787"
     inkscape:window-width="1251"
     showgrid="false"
     inkscape:document-rotation="0"
     inkscape:current-layer="layer1"
     inkscape:document-units="mm"
     inkscape:cy="67.255688"
     inkscape:cx="63.494643"
     inkscape:zoom="3.0280241"
     inkscape:pageshadow="2"
     inkscape:pageopacity="0.0"
     borderopacity="1.0"
     bordercolor="#666666"
     pagecolor="#ffffff"
     id="base" />
  <metadata
     id="metadata12795">
    <rdf:RDF>
      <cc:Work
         rdf:about="">
        <dc:format>image/svg+xml</dc:format>
        <dc:type
           rdf:resource="http://purl.org/dc/dcmitype/StillImage" />
        <dc:title></dc:title>
      </cc:Work>
    </rdf:RDF>
  </metadata>
  <g
     id="layer1"
     inkscape:groupmode="layer"
     inkscape:label="Capa 1">
    <g
       transform="matrix(0.26458333,0,0,0.26458333,-259.90476,-490.01504)"
       id="g2360">
      <g
         id="g2358">
        <path
           id="path2350"
           d="m 1047.842,1915.352 c 0.922,-0.555 1.22,-1.751 0.666,-2.673 l -9.206,-15.313 c -0.554,-0.921 -1.75,-1.22 -2.673,-0.666 -0.14,0.085 -0.265,0.184 -0.375,0.294 -0.618,0.617 -0.76,1.597 -0.291,2.38 l 9.206,15.312 c 0.555,0.922 1.751,1.22 2.673,0.666 z m 0,0"
           style="fill:#c45241"
           inkscape:connector-curvature="0" />
        <path
           id="path2352"
           d="m 985.013,1915.352 c 0.922,0.555 2.119,0.257 2.673,-0.665 l 9.206,-15.313 c 0.554,-0.922 0.256,-2.118 -0.666,-2.672 -0.782,-0.471 -1.762,-0.327 -2.38,0.29 -0.109,0.11 -0.209,0.235 -0.293,0.375 l -9.206,15.313 c -0.554,0.922 -0.256,2.118 0.666,2.672 z m 0,0"
           style="fill:#c45241"
           inkscape:connector-curvature="0" />
        <path
           id="path2354"
           d="m 1016.427,1915.63 c 1.075,10e-4 1.948,-0.87 1.948,-1.948 v -15.312 c 0,-1.075 -0.872,-1.947 -1.947,-1.947 -0.538,-10e-4 -1.025,0.218 -1.378,0.569 -0.353,0.354 -0.57,0.84 -0.57,1.379 v 15.313 c 0,1.075 0.872,1.947 1.947,1.946 z m 0,0"
           style="fill:#c45241"
           inkscape:connector-curvature="0" />
        <path
           id="path2356"
           d="m 995.584,1855.21 c -2.038,0.01 -3.896,0.825 -5.244,2.173 -1.069,1.07 -1.817,2.474 -2.078,4.07 l -1.145,6.85 c -0.177,1.06 0.539,2.064 1.6,2.242 1.063,0.178 2.066,-0.539 2.243,-1.6 l 1.146,-6.858 c 0.281,-1.728 1.757,-2.982 3.507,-2.981 h 1.918 c 0,0 0.001,-10e-4 0.002,0 h 37.789 c 0,-10e-4 0,-10e-4 0,0 h 1.916 c 1.751,0 3.226,1.254 3.508,2.99 l 1.863,11.107 h -52.371 l 1.442,-8.629 c 0.178,-1.061 -0.539,-2.064 -1.6,-2.242 -1.061,-0.177 -2.064,0.539 -2.242,1.602 l -1.823,10.897 c 0,0.01 0,0.019 -0.002,0.028 -0.013,0.096 -0.024,0.193 -0.023,0.293 l -10e-4,9.776 c 0,1.022 0.397,1.981 1.12,2.704 0.18,0.18 0.375,0.34 0.583,0.479 v 0 c 0.621,0.416 1.354,0.641 2.119,0.64 l 53.225,10e-4 c 0.127,0 0.253,-0.01 0.379,-0.02 0.879,-0.086 1.692,-0.469 2.324,-1.1 0.722,-0.723 1.119,-1.684 1.119,-2.703 v -9.778 c 10e-4,-0.101 -0.01,-0.198 -0.024,-0.295 0,-0.01 -10e-4,-0.018 0,-0.026 l -2.24,-13.369 c -0.588,-3.613 -3.666,-6.238 -7.324,-6.251 m -3.896,-10e-4 -33.894,10e-4 m -9.592,21.89 h 53.077 v 7.756 h -53.077 z m 0,0"
           style="fill:#c45241"
           inkscape:connector-curvature="0" />
      </g>
    </g>
  </g>
</svg>
