<?xml version="1.0" encoding="UTF-8" standalone="no"?>
<svg
   xmlns:dc="http://purl.org/dc/elements/1.1/"
   xmlns:cc="http://creativecommons.org/ns#"
   xmlns:rdf="http://www.w3.org/1999/02/22-rdf-syntax-ns#"
   xmlns:svg="http://www.w3.org/2000/svg"
   xmlns="http://www.w3.org/2000/svg"
   xmlns:sodipodi="http://sodipodi.sourceforge.net/DTD/sodipodi-0.dtd"
   xmlns:inkscape="http://www.inkscape.org/namespaces/inkscape"
   sodipodi:docname="nube.svg"
   inkscape:version="1.0rc1 (09960d6, 2020-04-09)"
   id="svg12798"
   version="1.1"
   viewBox="0 0 21 21"
   height="21mm"
   width="21mm">
  <defs
     id="defs12792" />
  <sodipodi:namedview
     inkscape:window-maximized="0"
     inkscape:window-y="23"
     inkscape:window-x="70"
     inkscape:window-height="787"
     inkscape:window-width="1251"
     showgrid="false"
     inkscape:document-rotation="0"
     inkscape:current-layer="layer1"
     inkscape:document-units="mm"
     inkscape:cy="38.204654"
     inkscape:cx="78.024124"
     inkscape:zoom="4.2885806"
     inkscape:pageshadow="2"
     inkscape:pageopacity="0.0"
     borderopacity="1.0"
     bordercolor="#666666"
     pagecolor="#ffffff"
     id="base" />
  <metadata
     id="metadata12795">
    <rdf:RDF>
      <cc:Work
         rdf:about="">
        <dc:format>image/svg+xml</dc:format>
        <dc:type
           rdf:resource="http://purl.org/dc/dcmitype/StillImage" />
        <dc:title></dc:title>
      </cc:Work>
    </rdf:RDF>
  </metadata>
  <g
     id="layer1"
     inkscape:groupmode="layer"
     inkscape:label="Capa 1">
    <g
       transform="matrix(0.26458333,0,0,0.26458333,-345.06998,-489.58808)"
       id="g2348">
      <path
         id="path2344"
         d="m 1309.331,1900.243 c -2.225,1.856 -3.282,4.841 -2.583,7.808 0.48,2.038 1.726,3.766 3.506,4.868 1.781,1.101 3.884,1.443 5.922,0.962 2.039,-0.479 3.767,-1.726 4.869,-3.506 0.698,-1.13 1.092,-2.39 1.163,-3.68 1.104,-0.019 2.208,-0.157 3.298,-0.415 2.495,-0.588 4.799,-1.787 6.705,-3.464 1.863,3.751 4.815,6.873 8.523,8.958 3.173,1.785 6.71,2.701 10.287,2.701 1.615,0 3.239,-0.187 4.839,-0.564 10.445,-2.461 17.329,-12.432 16.053,-22.971 3.915,-3.803 5.554,-9.347 4.29,-14.711 -1.966,-8.341 -10.351,-13.527 -18.693,-11.562 -2.068,0.488 -4,1.387 -5.686,2.637 -1.811,-2.771 -4.366,-5.034 -7.375,-6.49 -3.772,-1.829 -8.102,-2.306 -12.191,-1.342 -4.096,0.966 -7.762,3.333 -10.323,6.663 -2.208,2.874 -3.519,6.354 -3.764,9.94 -3.953,0.985 -7.302,3.431 -9.449,6.901 -2.184,3.531 -2.862,7.701 -1.91,11.742 0.472,1.999 1.33,3.874 2.519,5.525 z m 2.502,-15.342 c 1.669,-2.699 4.292,-4.587 7.381,-5.316 0.331,-0.078 0.673,-0.144 1.015,-0.192 0.908,-0.135 1.577,-0.922 1.562,-1.841 -0.118,-6.841 4.638,-12.947 11.308,-14.52 6.652,-1.567 13.628,1.757 16.585,7.904 0.258,0.537 0.761,0.914 1.347,1.012 0.586,0.098 1.184,-0.096 1.601,-0.519 1.563,-1.581 3.54,-2.688 5.718,-3.202 6.378,-1.504 12.792,2.462 14.295,8.842 1.027,4.359 -0.453,8.873 -3.865,11.783 -0.491,0.417 -0.725,1.063 -0.617,1.697 1.534,9.005 -4.237,17.704 -13.139,19.803 -4.252,1.002 -8.69,0.376 -12.495,-1.765 -3.782,-2.128 -6.614,-5.558 -7.971,-9.66 -0.213,-0.643 -0.764,-1.116 -1.432,-1.229 -0.102,-0.018 -0.203,-0.025 -0.305,-0.025 -0.563,0 -1.103,0.261 -1.451,0.716 -1.66,2.167 -4.04,3.705 -6.702,4.333 -1.397,0.329 -2.822,0.405 -4.234,0.224 -0.601,-0.077 -1.2,0.148 -1.601,0.603 -0.401,0.454 -0.552,1.076 -0.403,1.663 l 0.021,0.081 c 0.255,1.087 0.074,2.209 -0.514,3.158 -0.588,0.95 -1.51,1.615 -2.598,1.872 -1.087,0.256 -2.209,0.074 -3.159,-0.515 -0.949,-0.587 -1.614,-1.509 -1.87,-2.598 -0.475,-2.013 0.566,-4.042 2.475,-4.825 0.562,-0.23 0.972,-0.725 1.095,-1.318 0.124,-0.594 -0.055,-1.211 -0.478,-1.646 -1.487,-1.532 -2.533,-3.448 -3.027,-5.539 -0.73,-3.091 -0.212,-6.281 1.458,-8.981 z m 0,0"
         inkscape:connector-curvature="0" />
      <path
         id="path2346"
         d="m 1306.807,1928.484 -0.783,-0.783 c -1.293,-1.293 -1.293,-3.391 0,-4.684 l 70.396,-70.396 c 1.293,-1.294 3.391,-1.294 4.684,0 l 0.783,0.782 c 1.293,1.294 1.293,3.391 0,4.685 l -70.396,70.396 c -1.294,1.294 -3.391,1.294 -4.684,0 z"
         style="fill:#c45241"
         inkscape:connector-curvature="0" />
    </g>
  </g>
</svg>
