<?xml version="1.0" encoding="UTF-8" standalone="no"?>
<svg
   xmlns:dc="http://purl.org/dc/elements/1.1/"
   xmlns:cc="http://creativecommons.org/ns#"
   xmlns:rdf="http://www.w3.org/1999/02/22-rdf-syntax-ns#"
   xmlns:svg="http://www.w3.org/2000/svg"
   xmlns="http://www.w3.org/2000/svg"
   xmlns:xlink="http://www.w3.org/1999/xlink"
   xmlns:sodipodi="http://sodipodi.sourceforge.net/DTD/sodipodi-0.dtd"
   xmlns:inkscape="http://www.inkscape.org/namespaces/inkscape"
   width="23mm"
   height="18mm"
   viewBox="0 0 23 18"
   version="1.1"
   id="svg5745"
   sodipodi:docname="plastic.svg"
   inkscape:version="1.0rc1 (09960d6, 2020-04-09)">
  <defs
     id="defs5739">
    <clipPath
       id="SVGID_4_">
      <use
         id="use927"
         style="overflow:visible"
         xlink:href="#SVGID_3_"
         x="0"
         y="0"
         width="100%"
         height="100%" />
    </clipPath>
    <rect
       height="474.207"
       width="1094.546"
       y="-117.51"
       x="1990.1331"
       id="SVGID_3_" />
    <clipPath
       id="SVGID_6_">
      <use
         xlink:href="#SVGID_5_"
         style="overflow:visible"
         id="use1017"
         x="0"
         y="0"
         width="100%"
         height="100%" />
    </clipPath>
    <circle
       id="SVGID_5_"
       cx="2286.6079"
       cy="2654.2849"
       r="51.238998" />
    <clipPath
       id="SVGID_12_">
      <use
         xlink:href="#SVGID_11_"
         style="overflow:visible"
         id="use1053"
         x="0"
         y="0"
         width="100%"
         height="100%" />
    </clipPath>
    <circle
       id="SVGID_11_"
       cx="2774.25"
       cy="2654.2849"
       r="51.237999" />
  </defs>
  <sodipodi:namedview
     id="base"
     pagecolor="#ffffff"
     bordercolor="#666666"
     borderopacity="1.0"
     inkscape:pageopacity="0.0"
     inkscape:pageshadow="2"
     inkscape:zoom="3.5457638"
     inkscape:cx="64.059568"
     inkscape:cy="48.315654"
     inkscape:document-units="mm"
     inkscape:current-layer="layer1"
     inkscape:document-rotation="0"
     showgrid="false"
     inkscape:window-width="1251"
     inkscape:window-height="787"
     inkscape:window-x="115"
     inkscape:window-y="23"
     inkscape:window-maximized="0" />
  <metadata
     id="metadata5742">
    <rdf:RDF>
      <cc:Work
         rdf:about="">
        <dc:format>image/svg+xml</dc:format>
        <dc:type
           rdf:resource="http://purl.org/dc/dcmitype/StillImage" />
        <dc:title></dc:title>
      </cc:Work>
    </rdf:RDF>
  </metadata>
  <g
     inkscape:label="Capa 1"
     inkscape:groupmode="layer"
     id="layer1">
    <g
       transform="matrix(0.26458333,0,0,0.26458333,-748.66404,-771.85467)"
       id="g1876">
      <g
         id="g1874">
        <g
           id="g1872">
          <g
             id="g1820">
            <path
               inkscape:connector-curvature="0"
               id="path1796"
               d="m 2861.648,2933.129 c -0.045,0.014 -0.12,0.01 -0.186,0.01 -0.025,0 -0.051,0 -0.076,0 h -0.01 l 1.917,9.307 c 0.183,0 0.396,0.014 0.642,0.05 l -1.95,-9.354 z"
               style="fill:#00abec" />
            <path
               inkscape:connector-curvature="0"
               id="path1798"
               d="m 2862.979,2943.693 c 0.158,0.129 0.355,0.184 0.517,0.144 l 0.084,-0.021 0.052,-0.014 c 0.18,-0.046 0.364,-0.092 0.555,-0.118 0.082,-0.012 0.165,-0.021 0.25,-0.021 0.115,0 0.223,0 0.331,0 0.17,0 0.337,0 0.497,0.01 0.197,0.01 0.392,-0.01 0.598,-0.021 0.231,-0.018 0.471,-0.035 0.711,-0.018 l 0.095,0.01 c 0.227,0.018 0.441,0.034 0.647,-0.034 0.182,-0.061 0.37,-0.066 0.529,-0.063 l 0.357,0.01 c 0.354,0.01 0.72,0.02 1.077,0 0.19,-0.01 0.38,-0.011 0.57,-0.012 0.153,0 0.307,0 0.46,-0.01 0.359,-0.014 0.717,-0.03 1.076,-0.046 0.377,-0.018 0.754,-0.034 1.131,-0.048 0.205,-0.01 0.415,-0.012 0.632,-0.012 0.486,0 1.008,0.02 1.578,0.058 0.838,0.056 1.522,0.142 2.152,0.269 0.774,0.156 1.474,0.253 2.137,0.295 0.291,0.019 0.582,0.022 0.873,0.025 0.203,0 0.406,0.01 0.609,0.013 0.828,0.03 1.661,0.174 2.476,0.428 0.43,0.134 0.851,0.308 1.257,0.476 0.27,0.112 0.54,0.224 0.814,0.325 0.241,0.088 0.461,0.166 0.694,0.156 0.366,-0.018 0.7,-0.089 1.019,-0.217 0.429,-0.171 0.875,-0.174 1.306,-0.178 h 0.17 c 0.159,0 0.309,-0.01 0.338,-0.023 0.01,-0.011 0.029,-0.068 0.045,-0.119 0.016,-0.047 0.034,-0.104 0.06,-0.17 0.339,-0.895 0.446,-1.811 0.316,-2.724 -0.086,-0.604 -0.087,-1.066 0,-1.499 0.08,-0.419 0.029,-0.798 -0.156,-1.158 -0.087,-0.17 -0.172,-0.34 -0.257,-0.512 -0.129,-0.258 -0.258,-0.516 -0.394,-0.771 -0.188,-0.353 -0.343,-0.701 -0.474,-1.066 -0.167,-0.464 -0.333,-0.873 -0.67,-1.181 -0.167,-0.151 -0.203,-0.369 -0.224,-0.562 -0.013,-0.12 -0.017,-0.241 -0.02,-0.362 0,-0.155 -0.01,-0.301 -0.033,-0.444 -0.131,-0.742 -0.527,-1.094 -1.198,-1.069 -0.409,0.014 -0.824,0.01 -1.224,0.01 h -0.464 c -0.334,0 -0.631,-0.063 -0.907,-0.188 -0.233,-0.105 -0.499,-0.172 -0.812,-0.205 -0.267,-0.028 -0.542,-0.025 -0.81,-0.022 -0.153,0 -0.305,0 -0.457,0 -0.307,-0.01 -0.628,-0.022 -0.943,-0.102 0.037,0.02 0.072,0.039 0.108,0.059 l 1.554,0.854 c 0.142,0.078 0.21,0.188 0.203,0.328 -0.01,0.127 -0.073,0.228 -0.181,0.278 -0.164,0.076 -0.311,-0.01 -0.366,-0.036 l -0.33,-0.182 c -0.463,-0.255 -0.927,-0.511 -1.395,-0.759 -0.256,-0.136 -0.465,-0.287 -0.639,-0.462 -0.101,-0.102 -0.202,-0.196 -0.326,-0.24 -0.471,-0.166 -0.929,-0.42 -1.485,-0.824 -0.122,-0.088 -0.239,-0.181 -0.357,-0.273 -0.264,-0.207 -0.513,-0.403 -0.8,-0.55 -1.514,-0.774 -3.137,-1 -4.824,-0.671 -0.752,0.146 -1.499,0.377 -2.221,0.601 l -0.299,0.092 c -0.83,0.254 -1.528,0.356 -2.191,0.326 -0.223,-0.011 -0.445,-0.021 -0.668,-0.029 -0.412,-0.018 -0.824,-0.034 -1.235,-0.062 -0.661,-0.042 -1.334,-0.012 -1.986,0.019 -0.1,0 -0.201,0.01 -0.301,0.013 -0.089,0 -0.179,0.01 -0.269,0.012 -0.104,0 -0.207,0.016 -0.31,0.025 -0.085,0.01 -0.17,0.012 -0.255,0.021 -0.111,0.012 -0.224,0.022 -0.337,0.032 -0.192,0.016 -0.387,0.023 -0.583,0.011 -0.019,0 -0.038,0 -0.058,0 0.038,0.174 0.075,0.346 0.111,0.518 l 0.07,0.328 c 0.01,0.025 0.012,0.042 0.058,0.053 0,0 0,0 0,0 0.212,0.049 0.377,0.076 0.537,0.088 0.022,0 0.045,0 0.068,0 0.194,0.012 0.393,0.011 0.586,0.01 0.01,0 0.014,0 0.021,0 0.192,0 0.389,0 0.587,0.01 0,0 0.01,0 0.01,0 0.647,0.04 1.31,0.047 1.95,0.053 h 0.279 c 1.099,0.012 2.106,0.15 3.078,0.422 0.536,0.15 1.074,0.29 1.613,0.428 0.275,0.069 0.553,0.128 0.832,0.188 0.42,0.09 0.855,0.182 1.277,0.312 0.326,0.101 0.549,0.234 0.723,0.433 0.228,0.262 0.068,0.451 0.014,0.503 -0.07,0.066 -0.145,0.105 -0.229,0.097 -0.094,0 -0.183,-0.051 -0.272,-0.146 -0.097,-0.102 -0.193,-0.17 -0.301,-0.209 -0.157,0.493 -0.241,0.989 -0.254,1.489 -0.01,0.297 0.039,0.587 0.089,0.893 0.032,0.196 0.064,0.394 0.081,0.593 0.031,0.359 0.066,0.769 -0.072,1.172 -0.051,0.146 -0.124,0.276 -0.195,0.401 -0.026,0.046 -0.052,0.091 -0.077,0.138 -0.044,0.082 -0.041,0.138 0.011,0.21 0.072,0.099 0.157,0.188 0.246,0.282 l 0.103,0.109 c 0.349,0.38 0.422,0.803 0.219,1.254 -0.146,0.324 -0.29,0.65 -0.434,0.977 l -0.25,0.564 c -0.075,0.169 -0.21,0.291 -0.403,0.363 -0.326,0.123 -0.62,0.18 -0.907,0.173 -0.832,-0.019 -1.674,0.044 -2.489,0.104 -0.271,0.02 -0.543,0.04 -0.814,0.057 -0.609,0.04 -1.112,0.02 -1.576,-0.058 -0.031,-0.01 -0.063,-0.01 -0.094,-0.014 -0.17,-0.031 -0.339,-0.048 -0.507,-0.057 -0.216,-0.012 -0.426,0 -0.631,0.01 -0.199,0.014 -0.392,0.033 -0.574,0.058 -0.026,0 -0.055,0.01 -0.081,0.01 -0.012,0 -0.019,0 -0.023,0.01 0,0 0,0.014 0,0.032 -0.01,0.119 0.066,0.251 0.189,0.356 0.01,0 0.01,0 0.015,0 z"
               style="fill:#ffffff" />
            <path
               inkscape:connector-curvature="0"
               id="path1800"
               d="m 2869.987,2934.204 c -0.5,-0.109 -1.017,-0.221 -1.522,-0.361 0.013,0.054 0.033,0.104 0.06,0.154 0.235,0.449 0.272,0.938 0.278,1.357 0.011,0.896 -0.095,1.793 -0.2,2.553 -0.066,0.477 -0.064,0.871 0.01,1.24 0.071,0.369 0.127,0.716 0.112,1.223 0,0.375 0.117,0.884 0.319,1.392 0.089,0.224 0.189,0.474 0.21,0.754 0.28,0 0.55,-0.01 0.812,-0.073 0.159,-0.039 0.239,-0.107 0.298,-0.252 0.144,-0.354 0.3,-0.701 0.458,-1.049 l 0.141,-0.314 c 0.087,-0.195 0.064,-0.348 -0.076,-0.494 -0.075,-0.079 -0.148,-0.158 -0.22,-0.238 l -0.044,-0.049 c -0.118,-0.129 -0.24,-0.263 -0.303,-0.452 -0.106,-0.319 0.026,-0.583 0.17,-0.825 0.104,-0.174 0.165,-0.329 0.191,-0.488 0.04,-0.24 0.013,-0.479 -0.015,-0.732 l -0.01,-0.087 c -0.015,-0.146 -0.041,-0.29 -0.066,-0.435 -0.036,-0.204 -0.073,-0.415 -0.083,-0.631 -0.032,-0.707 0.059,-1.386 0.271,-2.017 -0.261,-0.063 -0.524,-0.12 -0.787,-0.176 z"
               style="fill:#808082" />
            <circle
               id="circle1802"
               r="0.241"
               cy="2927.498"
               cx="2860.4199"
               style="fill:#94d7f0" />
            <path
               inkscape:connector-curvature="0"
               id="path1804"
               d="m 2864.377,2944.6 -0.065,-0.313 c -0.302,-0.02 -0.61,-0.039 -0.644,-0.041 l 0.035,0.17 0.1,0.482 3.231,15.69 c 0.238,0.067 0.476,0.134 0.717,0.194 l -3.235,-15.521 z"
               style="fill:#00abec" />
            <path
               inkscape:connector-curvature="0"
               id="path1806"
               d="m 2868.583,2944.391 c -0.012,-0.055 -0.023,-0.112 -0.028,-0.172 -0.186,-0.01 -0.372,-0.012 -0.558,-0.014 -0.057,-10e-4 -0.112,-10e-4 -0.166,-10e-4 0.092,0.025 0.188,0.045 0.286,0.065 0.155,0.033 0.313,0.065 0.466,0.122 z"
               style="fill:none" />
            <path
               inkscape:connector-curvature="0"
               id="path1808"
               d="m 2867.71,2933.635 c -0.923,-0.271 -1.918,-0.42 -2.957,-0.439 l -0.623,-0.01 c -0.51,-0.01 -1.035,-0.017 -1.555,-0.038 l 1.971,9.454 c 0.398,0.072 0.812,0.101 1.233,0.079 h 0.171 c 0.438,-0.01 0.883,-0.047 1.314,-0.082 0.43,-0.035 0.874,-0.072 1.315,-0.082 -0.01,-0.106 -0.037,-0.209 -0.088,-0.334 -0.23,-0.555 -0.368,-1.079 -0.421,-1.604 -0.013,-0.129 -0.014,-0.26 -0.014,-0.389 0,-0.143 0,-0.277 -0.019,-0.411 -0.016,-0.122 -0.037,-0.243 -0.058,-0.364 -0.043,-0.247 -0.087,-0.504 -0.089,-0.768 0,-0.422 0.052,-0.842 0.105,-1.246 l 0.041,-0.318 c 0.086,-0.713 0.117,-1.35 0.092,-1.945 -0.014,-0.332 -0.08,-0.61 -0.203,-0.852 -0.107,-0.211 -0.153,-0.395 -0.144,-0.577 0.01,-0.045 0.01,-0.052 -0.071,-0.075 z"
               style="fill:#cdeaf5" />
            <path
               inkscape:connector-curvature="0"
               id="path1810"
               d="m 2872.842,2919.145 c -11.652,0 -21.131,9.479 -21.131,21.131 0,9.41 6.183,17.399 14.699,20.127 l -3.264,-15.85 c -0.256,-0.139 -0.452,-0.252 -0.499,-0.297 -0.398,-0.383 -0.606,-0.709 -0.489,-1.249 0.014,-0.063 0.025,-0.106 0.054,-0.167 0.027,-0.043 0.158,-0.219 0.515,-0.323 l -1.945,-9.448 -0.296,-0.052 c -0.288,-0.048 -0.486,-0.244 -0.556,-0.551 -0.071,-0.315 -0.134,-0.633 -0.198,-0.95 l -0.025,-0.125 c -0.016,-0.077 -0.022,-0.157 -0.022,-0.235 0,-0.119 0.031,-0.214 0.094,-0.281 0.066,-0.071 0.162,-0.107 0.283,-0.107 h 0.246 l -0.238,-1.155 c -1.018,-0.169 -1.786,-1.052 -1.786,-2.101 0,-1.179 0.958,-2.137 2.137,-2.137 1.179,0 2.137,0.958 2.137,2.137 0,0.656 -0.299,1.267 -0.808,1.671 l 0.321,1.539 c 0.161,-0.01 0.322,-0.016 0.483,-0.024 0.382,-0.021 0.778,-0.044 1.169,-0.039 0.553,0.01 1.112,0.038 1.653,0.069 0.246,0.014 0.493,0.028 0.74,0.039 0.823,0.041 1.556,-0.051 2.235,-0.277 0.291,-0.097 0.584,-0.184 0.878,-0.271 l 0.357,-0.106 c 1.101,-0.333 2.036,-0.494 2.941,-0.508 0.812,-0.011 1.629,0.112 2.437,0.37 0.885,0.282 1.604,0.66 2.195,1.153 0.341,0.284 0.711,0.536 1.101,0.748 0.11,0.06 0.226,0.105 0.341,0.152 0.125,0.05 0.255,0.103 0.38,0.171 0.033,0.019 0.045,0.019 0.076,0.01 0.321,-0.11 0.624,-0.113 0.9,-0.01 0.392,0.15 0.813,0.142 1.22,0.133 0.743,-0.015 1.466,0 2.158,0.321 0.069,0.032 0.148,0.05 0.217,0.062 0.196,0.036 0.394,0.037 0.604,0.04 0.287,0 0.551,0 0.815,0 0.212,0 0.425,0 0.638,-0.01 0.889,0 1.49,0.455 1.738,1.312 0.103,0.355 0.114,0.717 0.117,1.028 0,0.171 0.018,0.278 0.103,0.359 0.242,0.229 0.424,0.505 0.558,0.845 0.283,0.72 0.525,1.316 0.855,1.899 0.167,0.295 0.312,0.605 0.452,0.906 l 0.034,0.072 c 0.206,0.441 0.271,0.857 0.199,1.271 -0.081,0.462 -0.089,0.937 -0.026,1.41 0.118,0.878 0.087,1.646 -0.096,2.344 -0.172,0.661 -0.415,1.427 -0.903,2.098 -0.354,0.485 -0.757,0.759 -1.232,0.834 -0.46,0.073 -0.9,0.235 -1.345,0.496 -0.741,0.435 -1.602,0.683 -2.56,0.737 -0.145,0.01 -0.291,0.012 -0.437,0.012 -0.226,0 -0.452,-0.01 -0.673,-0.016 -0.193,-0.01 -0.386,-0.013 -0.579,-0.014 h -0.312 c -0.665,-0.01 -1.329,-0.013 -1.992,-0.01 -0.222,0 -0.44,-0.01 -0.66,-0.014 -0.289,-0.012 -0.587,-0.023 -0.876,-0.01 -0.333,0.019 -0.667,0.011 -0.99,0 h -0.174 c -0.218,-0.01 -0.437,-0.011 -0.654,-0.019 -0.477,-0.014 -0.969,-0.03 -1.452,-0.016 l -0.244,0.01 c -0.631,0.02 -1.283,0.041 -1.932,-0.063 -1.083,-0.174 -2.023,-0.447 -2.876,-0.835 -0.177,-0.081 -0.35,-0.168 -0.524,-0.255 -0.345,-0.174 -0.701,-0.354 -1.074,-0.468 l -0.047,-0.015 c -0.266,-0.082 -0.54,-0.166 -0.795,-0.303 -0.506,-0.271 -1.061,-0.501 -1.648,-0.682 -0.113,-0.034 -0.224,-0.076 -0.335,-0.119 -0.023,-0.01 -0.048,-0.018 -0.071,-0.026 l 3.211,15.405 c 1.443,0.313 2.94,0.481 4.476,0.481 11.652,0 21.131,-9.479 21.131,-21.132 0,-11.647 -9.482,-21.127 -21.134,-21.127 z"
               style="fill:#cdeaf5" />
            <path
               inkscape:connector-curvature="0"
               id="path1812"
               d="m 2861.984,2927.509 c 0,-0.862 -0.702,-1.563 -1.564,-1.563 -0.862,0 -1.564,0.701 -1.564,1.563 0,0.821 0.645,1.503 1.469,1.554 l 0.219,0.014 0.347,1.684 h 0.601 l -0.382,-1.832 0.164,-0.107 c 0.444,-0.292 0.71,-0.78 0.71,-1.309 z m -1.564,0.803 c -0.449,0 -0.814,-0.365 -0.814,-0.813 0,-0.449 0.365,-0.814 0.814,-0.814 0.449,0 0.814,0.365 0.814,0.814 0,0.448 -0.365,0.813 -0.814,0.813 z"
               style="fill:#00abec" />
            <path
               inkscape:connector-curvature="0"
               id="path1814"
               d="m 2866.63,2944.336 c -0.05,-0.031 -0.106,-0.044 -0.156,-0.044 -0.198,0 -0.396,0.01 -0.595,0.019 -0.279,0.013 -0.568,0.025 -0.857,0.014 -0.032,0 -0.064,-10e-4 -0.096,0 -0.01,0 -0.014,0 -0.021,0 l 0.09,0.432 c 0.124,0.043 0.248,0.088 0.372,0.133 l 0.291,0.106 c 0.125,0.045 0.251,0.087 0.377,0.13 0.398,0.133 0.81,0.272 1.191,0.488 0.217,0.123 0.452,0.227 0.697,0.307 0.597,0.193 1.192,0.445 1.77,0.747 0.769,0.4 1.656,0.68 2.792,0.877 0.457,0.079 0.903,0.114 1.327,0.104 0.142,0 0.283,-0.013 0.424,-0.021 0.155,-0.01 0.31,-0.019 0.464,-0.022 0.492,-0.01 0.99,0.01 1.472,0.022 0.252,0.01 0.504,0.017 0.757,0.021 0.253,0.01 0.507,0 0.761,0 0.285,0 0.569,0 0.853,0 0.712,0.017 1.431,-0.01 2.157,0.024 0.15,0.01 0.301,0 0.452,0 0.1,0 0.201,-0.01 0.303,-0.01 0.082,0 0.165,0 0.247,0.01 0.368,0.023 0.746,0.021 1.112,0.02 0.15,0 0.3,0 0.449,0 0.01,0 0.019,0 0.028,0 0.829,0 1.611,-0.199 2.323,-0.594 0.49,-0.271 1.031,-0.535 1.671,-0.633 0.431,-0.066 0.693,-0.366 0.919,-0.728 -0.497,0 -0.967,0.026 -1.425,0.2 -0.666,0.254 -1.255,0.272 -1.801,0.058 l -0.324,-0.126 c -0.414,-0.162 -0.828,-0.324 -1.239,-0.494 -0.619,-0.258 -1.307,-0.44 -2.104,-0.56 -0.521,-0.078 -1.059,-0.085 -1.579,-0.092 l -0.288,-0.01 c -0.811,-0.014 -1.64,-0.106 -2.466,-0.277 -1.042,-0.215 -2.152,-0.327 -3.492,-0.352 -0.735,-0.012 -1.484,0.023 -2.208,0.059 l -0.478,0.021 c -0.45,0.021 -0.901,0.027 -1.352,0.033 h -0.216 c 0.01,0.03 0.01,0.06 0.014,0.088 0.01,0.042 0.013,0.083 0.021,0.124 0.033,0.169 0.078,0.398 0.012,0.631 -0.037,0.132 -0.118,0.225 -0.226,0.259 -0.108,0.035 -0.224,0.01 -0.33,-0.076 -0.125,-0.1 -0.263,-0.177 -0.419,-0.237 -0.092,-0.035 -0.191,-0.052 -0.297,-0.069 -0.072,-0.013 -0.143,-0.024 -0.214,-0.042 -0.43,-0.108 -0.813,-0.329 -1.163,-0.552 z"
               style="fill:#cccccc" />
            <path
               inkscape:connector-curvature="0"
               id="path1816"
               d="m 2872.842,2918.38 c -12.074,0 -21.896,9.822 -21.896,21.896 0,12.074 9.822,21.896 21.896,21.896 12.074,0 21.896,-9.822 21.896,-21.896 0,-12.073 -9.822,-21.896 -21.896,-21.896 z m -5.809,42.209 -3.231,-15.69 -0.1,-0.482 -0.035,-0.17 c 0.034,0 0.342,0.021 0.644,0.041 l 0.065,0.313 0.138,0.662 3.235,15.521 c -0.24,-0.061 -0.478,-0.127 -0.716,-0.195 z m 0.895,-26.301 c 0.123,0.241 0.189,0.52 0.203,0.852 0.024,0.596 -0.01,1.232 -0.092,1.945 l -0.041,0.318 c -0.053,0.404 -0.108,0.824 -0.105,1.246 10e-4,0.264 0.046,0.521 0.089,0.768 0.021,0.121 0.042,0.242 0.058,0.364 0.018,0.134 0.018,0.269 0.019,0.411 0,0.129 0,0.26 0.014,0.389 0.053,0.524 0.19,1.049 0.421,1.604 0.052,0.125 0.08,0.228 0.088,0.334 -0.441,0.01 -0.885,0.047 -1.315,0.082 -0.431,0.035 -0.876,0.072 -1.314,0.082 h -0.171 c -0.421,0.021 -0.835,-0.01 -1.233,-0.079 l -1.971,-9.454 c 0.521,0.021 1.045,0.031 1.555,0.038 l 0.623,0.01 c 1.039,0.02 2.033,0.168 2.957,0.439 0.077,0.022 0.076,0.029 0.074,0.075 -0.012,0.182 0.034,0.366 0.141,0.577 z m 2.576,2.107 c 0.01,0.216 0.047,0.427 0.083,0.631 0.025,0.145 0.051,0.289 0.066,0.435 l 0.01,0.087 c 0.028,0.253 0.054,0.492 0.015,0.732 -0.026,0.159 -0.087,0.314 -0.191,0.488 -0.144,0.242 -0.276,0.506 -0.17,0.825 0.063,0.189 0.185,0.323 0.303,0.452 l 0.044,0.049 c 0.072,0.08 0.146,0.159 0.22,0.238 0.14,0.146 0.163,0.299 0.076,0.494 l -0.141,0.314 c -0.158,0.348 -0.314,0.695 -0.458,1.049 -0.059,0.145 -0.139,0.213 -0.298,0.252 -0.262,0.064 -0.532,0.073 -0.812,0.073 -0.021,-0.28 -0.122,-0.53 -0.21,-0.754 -0.202,-0.508 -0.318,-1.017 -0.319,-1.392 0.016,-0.507 -0.041,-0.854 -0.112,-1.223 -0.07,-0.369 -0.072,-0.764 -0.01,-1.24 0.105,-0.76 0.211,-1.657 0.2,-2.553 -0.01,-0.419 -0.042,-0.908 -0.278,-1.357 -0.026,-0.051 -0.046,-0.101 -0.06,-0.154 0.505,0.141 1.022,0.252 1.522,0.361 0.263,0.057 0.526,0.113 0.788,0.175 -0.213,0.632 -0.304,1.311 -0.272,2.018 z m -6.566,6.095 c -0.245,-0.036 -0.459,-0.052 -0.642,-0.05 l -1.917,-9.307 h 0.01 c 0.025,0 0.05,0 0.076,0 0.066,0 0.141,0.01 0.186,-0.01 l 0.339,0.01 z m -1.159,0.802 c 0,0 0.011,0 0.023,-0.01 0.026,0 0.055,-0.01 0.081,-0.01 0.182,-0.024 0.375,-0.044 0.574,-0.058 0.206,-0.014 0.416,-0.021 0.631,-0.01 0.167,0.01 0.337,0.025 0.507,0.057 0.03,0.01 0.063,0.01 0.094,0.014 0.464,0.077 0.967,0.098 1.576,0.058 0.271,-0.017 0.543,-0.037 0.814,-0.057 0.815,-0.06 1.658,-0.122 2.489,-0.104 0.287,0.01 0.581,-0.05 0.907,-0.173 0.193,-0.072 0.329,-0.194 0.403,-0.363 l 0.25,-0.564 c 0.144,-0.326 0.287,-0.652 0.434,-0.977 0.204,-0.451 0.13,-0.874 -0.219,-1.254 l -0.103,-0.109 c -0.089,-0.094 -0.174,-0.184 -0.246,-0.282 -0.052,-0.072 -0.055,-0.128 -0.011,-0.21 0.024,-0.047 0.05,-0.092 0.077,-0.138 0.071,-0.125 0.145,-0.255 0.195,-0.401 0.139,-0.403 0.104,-0.813 0.072,-1.172 -0.017,-0.199 -0.049,-0.396 -0.081,-0.593 -0.05,-0.306 -0.098,-0.596 -0.089,-0.893 0.013,-0.5 0.097,-0.996 0.254,-1.489 0.108,0.039 0.205,0.107 0.301,0.209 0.089,0.096 0.179,0.144 0.272,0.146 0.085,0.01 0.16,-0.03 0.229,-0.097 0.054,-0.052 0.214,-0.241 -0.014,-0.503 -0.174,-0.198 -0.397,-0.332 -0.723,-0.433 -0.422,-0.13 -0.857,-0.222 -1.277,-0.312 -0.278,-0.06 -0.556,-0.118 -0.832,-0.188 -0.539,-0.138 -1.078,-0.277 -1.613,-0.428 -0.972,-0.271 -1.979,-0.41 -3.078,-0.422 h -0.279 c -0.64,-0.01 -1.303,-0.013 -1.95,-0.053 0,0 -0.01,0 -0.01,0 -0.198,-0.012 -0.396,-0.01 -0.587,-0.01 -0.01,0 -0.014,0 -0.021,0 -0.193,0 -0.392,0 -0.586,-0.01 -0.022,-10e-4 -0.045,-10e-4 -0.068,0 -0.159,-0.012 -0.325,-0.039 -0.537,-0.088 -10e-4,-10e-4 0,-10e-4 0,-10e-4 -0.046,-0.011 -0.053,-0.027 -0.058,-0.053 l -0.07,-0.328 c -0.036,-0.172 -0.073,-0.344 -0.111,-0.518 0.02,0 0.039,0 0.058,0 0.197,0.013 0.392,0 0.583,-0.011 0.113,-0.01 0.226,-0.021 0.337,-0.032 0.085,-0.01 0.17,-0.013 0.255,-0.021 0.103,-0.01 0.206,-0.021 0.31,-0.025 0.09,0 0.179,-0.01 0.269,-0.012 0.1,0 0.201,-0.01 0.301,-0.013 0.652,-0.03 1.325,-0.061 1.986,-0.019 0.411,0.027 0.823,0.044 1.235,0.062 0.223,0.01 0.445,0.019 0.668,0.029 0.663,0.03 1.362,-0.072 2.191,-0.326 l 0.299,-0.092 c 0.722,-0.224 1.469,-0.454 2.221,-0.601 1.687,-0.329 3.31,-0.104 4.824,0.671 0.287,0.146 0.537,0.343 0.8,0.55 0.118,0.093 0.236,0.186 0.357,0.273 0.556,0.404 1.014,0.658 1.485,0.824 0.124,0.044 0.225,0.139 0.326,0.24 0.174,0.175 0.383,0.326 0.639,0.462 0.468,0.248 0.932,0.504 1.395,0.759 l 0.33,0.182 c 0.055,0.031 0.202,0.112 0.366,0.036 0.108,-0.051 0.174,-0.151 0.181,-0.278 0.01,-0.14 -0.061,-0.25 -0.203,-0.328 l -1.554,-0.854 c -0.036,-0.02 -0.072,-0.039 -0.108,-0.059 0.315,0.079 0.637,0.094 0.943,0.102 0.152,0 0.304,0 0.457,0 0.267,0 0.543,-0.01 0.81,0.022 0.313,0.033 0.579,0.1 0.812,0.205 0.276,0.125 0.573,0.186 0.907,0.188 h 0.464 c 0.4,0 0.815,0.01 1.224,-0.01 0.671,-0.024 1.067,0.327 1.198,1.069 0.026,0.144 0.029,0.289 0.033,0.444 0,0.121 0.01,0.242 0.02,0.362 0.021,0.192 0.057,0.41 0.224,0.562 0.336,0.308 0.502,0.717 0.67,1.181 0.131,0.365 0.287,0.714 0.474,1.066 0.136,0.256 0.265,0.514 0.394,0.771 0.085,0.172 0.17,0.342 0.257,0.512 0.185,0.36 0.236,0.739 0.156,1.158 -0.083,0.433 -0.082,0.896 0,1.499 0.13,0.913 0.023,1.829 -0.316,2.724 -0.025,0.066 -0.044,0.123 -0.06,0.17 -0.017,0.051 -0.036,0.108 -0.045,0.119 -0.029,0.018 -0.179,0.021 -0.338,0.023 h -0.17 c -0.431,0 -0.877,0.01 -1.306,0.178 -0.319,0.128 -0.653,0.199 -1.019,0.217 -0.233,0.01 -0.453,-0.068 -0.694,-0.156 -0.274,-0.102 -0.544,-0.213 -0.814,-0.325 -0.406,-0.168 -0.827,-0.342 -1.257,-0.476 -0.815,-0.254 -1.648,-0.397 -2.476,-0.428 -0.203,-0.01 -0.406,-0.01 -0.609,-0.013 -0.291,0 -0.582,-0.01 -0.873,-0.025 -0.663,-0.042 -1.362,-0.139 -2.137,-0.295 -0.63,-0.127 -1.314,-0.213 -2.152,-0.269 -0.57,-0.038 -1.092,-0.058 -1.578,-0.058 -0.217,0 -0.427,0 -0.632,0.012 -0.377,0.014 -0.753,0.03 -1.131,0.048 -0.358,0.016 -0.717,0.032 -1.076,0.046 -0.153,0.01 -0.307,0.01 -0.46,0.01 -0.19,0 -0.38,0 -0.57,0.012 -0.357,0.02 -0.723,0.01 -1.077,0 l -0.357,-0.01 c -0.159,0 -0.347,0 -0.529,0.063 -0.206,0.068 -0.421,0.052 -0.647,0.034 l -0.095,-0.01 c -0.24,-0.018 -0.479,0 -0.711,0.018 -0.206,0.016 -0.4,0.029 -0.598,0.021 -0.16,-0.01 -0.327,-0.01 -0.497,-0.01 -0.108,0 -0.216,0 -0.331,0 -0.085,0 -0.168,0.01 -0.25,0.021 -0.191,0.026 -0.375,0.072 -0.555,0.118 l -0.052,0.014 -0.084,0.021 c -0.161,0.04 -0.359,-0.015 -0.517,-0.144 -0.01,0 -0.01,-0.01 -0.013,-0.013 -0.123,-0.105 -0.194,-0.237 -0.189,-0.356 0,-0.01 0,-0.021 0,-0.023 z m -1.287,-12.536 h -0.601 l -0.347,-1.684 -0.219,-0.014 c -0.824,-0.051 -1.469,-0.732 -1.469,-1.554 0,-0.862 0.702,-1.563 1.564,-1.563 0.862,0 1.564,0.701 1.564,1.563 0,0.528 -0.266,1.017 -0.71,1.308 l -0.164,0.107 z m 6.518,14.173 c 0.105,0.018 0.205,0.034 0.297,0.069 0.156,0.061 0.293,0.138 0.419,0.237 0.105,0.084 0.222,0.111 0.33,0.076 0.108,-0.034 0.188,-0.127 0.226,-0.259 0.066,-0.232 0.021,-0.462 -0.012,-0.631 -0.01,-0.041 -0.015,-0.082 -0.021,-0.124 0,-0.028 -0.01,-0.058 -0.014,-0.088 h 0.216 c 0.451,-0.01 0.902,-0.013 1.352,-0.033 l 0.478,-0.021 c 0.724,-0.035 1.473,-0.07 2.208,-0.059 1.34,0.024 2.45,0.137 3.492,0.352 0.826,0.171 1.655,0.264 2.466,0.277 h 0.288 c 0.521,0.01 1.058,0.014 1.579,0.092 0.797,0.119 1.485,0.302 2.104,0.56 0.411,0.17 0.825,0.332 1.239,0.494 l 0.324,0.126 c 0.546,0.215 1.135,0.196 1.801,-0.058 0.458,-0.174 0.928,-0.198 1.425,-0.2 -0.226,0.361 -0.488,0.661 -0.919,0.728 -0.64,0.098 -1.181,0.362 -1.671,0.633 -0.712,0.395 -1.494,0.594 -2.323,0.594 -0.01,0 -0.019,0 -0.028,0 -0.149,0 -0.299,0 -0.449,0 -0.366,0 -0.744,0 -1.112,-0.02 -0.083,-0.01 -0.165,-0.01 -0.247,-0.01 -0.103,0 -0.204,0 -0.303,0.01 -0.151,0 -0.302,0.01 -0.452,0 -0.726,-0.03 -1.445,-0.01 -2.157,-0.024 -0.283,-0.01 -0.568,-0.01 -0.853,0 -0.254,10e-4 -0.508,0 -0.761,0 -0.252,-0.01 -0.505,-0.013 -0.757,-0.021 -0.482,-0.016 -0.98,-0.032 -1.472,-0.022 -0.155,0 -0.31,0.014 -0.464,0.022 -0.142,0.01 -0.283,0.019 -0.424,0.021 -0.424,0.011 -0.87,-0.024 -1.327,-0.104 -1.137,-0.197 -2.024,-0.477 -2.792,-0.877 -0.578,-0.302 -1.173,-0.554 -1.77,-0.747 -0.245,-0.08 -0.479,-0.184 -0.697,-0.307 -0.381,-0.216 -0.793,-0.355 -1.191,-0.488 -0.126,-0.043 -0.252,-0.085 -0.377,-0.13 l -0.291,-0.106 c -0.124,-0.045 -0.248,-0.09 -0.372,-0.133 l -0.09,-0.432 c 0.01,0 0.014,0 0.021,0 0.032,0 0.064,0 0.096,0 0.289,0.012 0.578,0 0.857,-0.014 0.198,-0.01 0.396,-0.019 0.595,-0.019 0.05,0 0.106,0.013 0.156,0.044 0.35,0.223 0.733,0.443 1.166,0.551 0.068,0.019 0.139,0.031 0.211,0.043 z m -0.178,-0.724 c 0.053,0 0.108,0 0.166,0 0.186,0 0.372,0.01 0.558,0.014 0.01,0.06 0.016,0.117 0.028,0.172 -0.154,-0.057 -0.312,-0.089 -0.465,-0.121 -0.099,-0.021 -0.195,-0.041 -0.287,-0.066 z m 5.01,17.203 c -1.536,0 -3.032,-0.169 -4.476,-0.481 l -3.211,-15.405 c 0.023,0.01 0.048,0.018 0.071,0.026 0.111,0.043 0.222,0.085 0.335,0.119 0.587,0.181 1.142,0.41 1.648,0.682 0.255,0.137 0.529,0.221 0.795,0.303 l 0.047,0.015 c 0.373,0.114 0.729,0.294 1.074,0.468 0.174,0.087 0.347,0.174 0.524,0.255 0.853,0.388 1.793,0.661 2.876,0.835 0.648,0.104 1.301,0.082 1.932,0.063 l 0.244,-0.01 c 0.483,-0.015 0.976,0 1.452,0.016 0.218,0.01 0.436,0.014 0.654,0.019 h 0.174 c 0.323,0.01 0.658,0.016 0.99,0 0.29,-0.017 0.588,-0.01 0.876,0.01 0.22,0.01 0.438,0.018 0.66,0.014 0.664,-0.01 1.328,0 1.992,0.01 h 0.312 c 0.193,10e-4 0.386,0.01 0.579,0.014 0.221,0.01 0.447,0.016 0.673,0.016 0.146,0 0.292,0 0.437,-0.012 0.958,-0.055 1.819,-0.303 2.56,-0.737 0.445,-0.261 0.885,-0.423 1.345,-0.496 0.475,-0.075 0.878,-0.349 1.232,-0.834 0.488,-0.671 0.731,-1.437 0.903,-2.098 0.183,-0.698 0.214,-1.466 0.096,-2.344 -0.063,-0.474 -0.055,-0.948 0.026,-1.41 0.072,-0.413 0.01,-0.829 -0.199,-1.271 l -0.034,-0.072 c -0.14,-0.301 -0.285,-0.611 -0.452,-0.906 -0.33,-0.583 -0.573,-1.18 -0.855,-1.899 -0.134,-0.34 -0.316,-0.616 -0.558,-0.845 -0.084,-0.081 -0.101,-0.188 -0.103,-0.359 0,-0.312 -0.014,-0.673 -0.117,-1.028 -0.249,-0.856 -0.85,-1.311 -1.738,-1.312 -0.213,0 -0.425,0 -0.638,0 -0.264,0 -0.528,0.01 -0.815,0 -0.21,0 -0.408,0 -0.604,-0.04 -0.069,-0.012 -0.148,-0.029 -0.217,-0.062 -0.691,-0.323 -1.415,-0.336 -2.158,-0.321 -0.407,0.01 -0.828,0.018 -1.22,-0.133 -0.276,-0.107 -0.579,-0.104 -0.9,0.01 -0.031,0.01 -0.042,0.01 -0.076,-0.01 -0.125,-0.068 -0.254,-0.121 -0.38,-0.171 -0.115,-0.047 -0.231,-0.093 -0.341,-0.152 -0.389,-0.212 -0.76,-0.464 -1.101,-0.748 -0.592,-0.493 -1.31,-0.871 -2.195,-1.153 -0.807,-0.258 -1.625,-0.381 -2.437,-0.37 -0.906,0.014 -1.84,0.175 -2.941,0.508 l -0.357,0.106 c -0.294,0.087 -0.588,0.174 -0.878,0.271 -0.68,0.227 -1.412,0.318 -2.235,0.277 -0.247,-0.011 -0.494,-0.025 -0.74,-0.039 -0.541,-0.031 -1.1,-0.063 -1.653,-0.069 -0.391,-0.01 -0.787,0.018 -1.169,0.039 -0.161,0.01 -0.322,0.018 -0.483,0.024 l -0.321,-1.539 c 0.509,-0.404 0.808,-1.015 0.808,-1.671 0,-1.179 -0.958,-2.137 -2.137,-2.137 -1.179,0 -2.137,0.958 -2.137,2.137 0,1.049 0.768,1.932 1.786,2.101 l 0.238,1.155 h -0.246 c -0.121,0 -0.216,0.036 -0.283,0.107 -0.063,0.067 -0.094,0.162 -0.094,0.281 0,0.078 0.01,0.158 0.022,0.235 l 0.025,0.125 c 0.064,0.317 0.127,0.635 0.198,0.95 0.07,0.307 0.268,0.503 0.556,0.551 l 0.296,0.052 1.945,9.448 c -0.357,0.104 -0.488,0.28 -0.515,0.323 -0.028,0.061 -0.04,0.104 -0.054,0.167 -0.117,0.54 0.091,0.866 0.489,1.249 0.047,0.045 0.243,0.158 0.499,0.297 l 3.264,15.85 c -8.516,-2.728 -14.699,-10.717 -14.699,-20.127 0,-11.651 9.479,-21.131 21.131,-21.131 11.652,0 21.131,9.479 21.131,21.131 0,11.648 -9.476,21.128 -21.128,21.128 z" />
            <path
               inkscape:connector-curvature="0"
               id="path1818"
               d="m 2860.42,2926.684 c -0.449,0 -0.814,0.365 -0.814,0.814 0,0.448 0.365,0.813 0.814,0.813 0.449,0 0.814,-0.365 0.814,-0.813 0,-0.449 -0.365,-0.814 -0.814,-0.814 z m 0,1.055 c -0.133,0 -0.241,-0.108 -0.241,-0.24 0,-0.133 0.108,-0.241 0.241,-0.241 0.132,0 0.24,0.108 0.24,0.241 0,0.131 -0.108,0.24 -0.24,0.24 z" />
          </g>
          <g
             id="g1870">
            <path
               inkscape:connector-curvature="0"
               id="path1822"
               d="m 2831.025,2965.99 c 0,-0.264 0.216,-0.48 0.468,-0.48 h 2.682 c 1.899,0 3.15,1.01 3.15,2.669 v 0.023 c 0,1.816 -1.515,2.754 -3.307,2.754 h -2.043 v 2.549 c 0,0.265 -0.217,0.48 -0.481,0.48 -0.252,0 -0.468,-0.216 -0.468,-0.48 v -7.515 z m 3.029,4.1 c 1.395,0 2.309,-0.746 2.309,-1.852 v -0.024 c 0,-1.202 -0.902,-1.827 -2.26,-1.827 h -2.128 v 3.703 z"
               style="fill:#231f20" />
            <path
               inkscape:connector-curvature="0"
               id="path1824"
               d="m 2838.417,2968.118 c 0,-0.252 0.204,-0.469 0.457,-0.469 0.265,0 0.469,0.205 0.469,0.469 v 1.166 c 0.457,-1.033 1.358,-1.658 2.14,-1.658 0.276,0 0.457,0.204 0.457,0.469 0,0.252 -0.168,0.433 -0.409,0.469 -1.203,0.145 -2.188,1.046 -2.188,2.838 v 2.115 c 0,0.253 -0.193,0.469 -0.458,0.469 -0.264,0 -0.468,-0.204 -0.468,-0.469 z"
               style="fill:#231f20" />
            <path
               inkscape:connector-curvature="0"
               id="path1826"
               d="m 2845.257,2974.069 c -1.708,0 -3.102,-1.311 -3.102,-3.234 v -0.023 c 0,-1.791 1.262,-3.234 2.981,-3.234 1.839,0 2.885,1.504 2.885,3.15 0,0.253 -0.204,0.433 -0.433,0.433 h -4.497 c 0.132,1.347 1.082,2.104 2.188,2.104 0.77,0 1.335,-0.301 1.792,-0.722 0.072,-0.06 0.156,-0.108 0.265,-0.108 0.229,0 0.409,0.181 0.409,0.397 0,0.107 -0.048,0.216 -0.145,0.3 -0.588,0.565 -1.285,0.937 -2.343,0.937 z m 1.839,-3.594 c -0.096,-1.131 -0.745,-2.116 -1.983,-2.116 -1.082,0 -1.9,0.901 -2.02,2.116 z"
               style="fill:#231f20" />
            <path
               inkscape:connector-curvature="0"
               id="path1828"
               d="m 2848.791,2970.847 v -0.024 c 0,-1.755 1.37,-3.246 3.186,-3.246 1.034,0 1.731,0.396 2.285,0.902 0.072,0.061 0.144,0.18 0.144,0.324 0,0.253 -0.204,0.445 -0.445,0.445 -0.12,0 -0.229,-0.049 -0.3,-0.108 -0.445,-0.409 -0.95,-0.745 -1.695,-0.745 -1.263,0 -2.224,1.069 -2.224,2.404 v 0.023 c 0,1.348 0.986,2.417 2.284,2.417 0.709,0 1.274,-0.325 1.731,-0.757 0.06,-0.061 0.144,-0.121 0.264,-0.121 0.229,0 0.421,0.205 0.421,0.422 0,0.107 -0.048,0.216 -0.12,0.288 -0.589,0.589 -1.298,0.997 -2.345,0.997 -1.816,10e-4 -3.186,-1.478 -3.186,-3.221 z"
               style="fill:#231f20" />
            <path
               inkscape:connector-curvature="0"
               id="path1830"
               d="m 2855.558,2965.761 c 0,-0.3 0.24,-0.493 0.541,-0.493 0.313,0 0.553,0.193 0.553,0.493 v 0.157 c 0,0.288 -0.241,0.492 -0.553,0.492 -0.301,0 -0.541,-0.204 -0.541,-0.492 z m 0.084,2.357 c 0,-0.252 0.205,-0.469 0.457,-0.469 0.265,0 0.469,0.205 0.469,0.469 v 5.398 c 0,0.265 -0.192,0.469 -0.457,0.469 -0.265,0 -0.469,-0.204 -0.469,-0.469 z"
               style="fill:#231f20" />
            <path
               inkscape:connector-curvature="0"
               id="path1832"
               d="m 2857.853,2970.847 v -0.024 c 0,-1.755 1.371,-3.246 3.246,-3.246 1.864,0 3.234,1.468 3.234,3.223 v 0.023 c 0,1.756 -1.383,3.246 -3.258,3.246 -1.863,0 -3.222,-1.466 -3.222,-3.222 z m 5.531,0 v -0.024 c 0,-1.334 -0.998,-2.428 -2.309,-2.428 -1.346,0 -2.272,1.094 -2.272,2.404 v 0.023 c 0,1.336 0.985,2.417 2.296,2.417 1.347,10e-4 2.285,-1.08 2.285,-2.392 z"
               style="fill:#231f20" />
            <path
               inkscape:connector-curvature="0"
               id="path1834"
               d="m 2870.848,2973.516 c 0,0.253 -0.192,0.469 -0.457,0.469 -0.252,0 -0.457,-0.204 -0.457,-0.469 v -0.673 c -0.421,0.673 -1.058,1.214 -2.128,1.214 -1.503,0 -2.38,-1.01 -2.38,-2.488 v -3.451 c 0,-0.264 0.192,-0.469 0.457,-0.469 0.252,0 0.469,0.205 0.469,0.469 v 3.223 c 0,1.154 0.625,1.875 1.719,1.875 1.058,0 1.864,-0.781 1.864,-1.947 v -3.15 c 0,-0.264 0.192,-0.469 0.457,-0.469 0.252,0 0.457,0.205 0.457,0.469 v 5.397 z"
               style="fill:#231f20" />
            <path
               inkscape:connector-curvature="0"
               id="path1836"
               d="m 2872.109,2973.264 c -0.084,-0.061 -0.168,-0.181 -0.168,-0.337 0,-0.216 0.18,-0.396 0.409,-0.396 0.084,0 0.168,0.023 0.229,0.072 0.637,0.433 1.298,0.661 1.972,0.661 0.746,0 1.287,-0.385 1.287,-0.986 v -0.023 c 0,-0.625 -0.733,-0.866 -1.551,-1.095 -0.974,-0.276 -2.056,-0.613 -2.056,-1.755 v -0.024 c 0,-1.069 0.89,-1.779 2.116,-1.779 0.661,0 1.382,0.204 1.983,0.529 0.121,0.071 0.229,0.204 0.229,0.385 0,0.216 -0.181,0.396 -0.409,0.396 -0.084,0 -0.156,-0.024 -0.205,-0.048 -0.529,-0.301 -1.094,-0.481 -1.623,-0.481 -0.733,0 -1.202,0.385 -1.202,0.901 v 0.025 c 0,0.589 0.77,0.816 1.599,1.069 0.962,0.289 1.996,0.661 1.996,1.78 v 0.023 c 0,1.178 -0.974,1.863 -2.212,1.863 -0.819,0 -1.721,-0.299 -2.394,-0.78 z"
               style="fill:#231f20" />
            <path
               inkscape:connector-curvature="0"
               id="path1838"
               d="m 2881.232,2965.99 c 0,-0.264 0.216,-0.48 0.469,-0.48 h 2.681 c 1.899,0 3.15,1.01 3.15,2.669 v 0.023 c 0,1.816 -1.515,2.754 -3.306,2.754 h -2.044 v 2.549 c 0,0.265 -0.217,0.48 -0.481,0.48 -0.252,0 -0.469,-0.216 -0.469,-0.48 z m 3.029,4.1 c 1.395,0 2.309,-0.746 2.309,-1.852 v -0.024 c 0,-1.202 -0.902,-1.827 -2.26,-1.827 h -2.128 v 3.703 z"
               style="fill:#231f20" />
            <path
               inkscape:connector-curvature="0"
               id="path1840"
               d="m 2888.708,2965.557 c 0,-0.252 0.204,-0.469 0.457,-0.469 0.264,0 0.469,0.217 0.469,0.469 v 7.959 c 0,0.265 -0.192,0.469 -0.457,0.469 -0.265,0 -0.469,-0.204 -0.469,-0.469 z"
               style="fill:#231f20" />
            <path
               inkscape:connector-curvature="0"
               id="path1842"
               d="m 2890.835,2972.122 v -0.024 c 0,-1.31 1.083,-2.007 2.657,-2.007 0.793,0 1.358,0.107 1.912,0.264 v -0.216 c 0,-1.118 -0.685,-1.695 -1.852,-1.695 -0.625,0 -1.154,0.145 -1.611,0.349 -0.061,0.023 -0.12,0.036 -0.168,0.036 -0.216,0 -0.409,-0.181 -0.409,-0.397 0,-0.191 0.132,-0.336 0.252,-0.384 0.613,-0.265 1.238,-0.421 2.032,-0.421 0.877,0 1.551,0.229 2.008,0.686 0.421,0.42 0.637,1.021 0.637,1.814 v 3.402 c 0,0.266 -0.192,0.457 -0.445,0.457 -0.265,0 -0.445,-0.191 -0.445,-0.432 v -0.566 c -0.433,0.566 -1.154,1.07 -2.249,1.07 -1.153,0 -2.319,-0.662 -2.319,-1.936 z m 4.581,-0.481 v -0.602 c -0.457,-0.132 -1.07,-0.265 -1.827,-0.265 -1.167,0 -1.815,0.505 -1.815,1.287 v 0.023 c 0,0.782 0.721,1.238 1.563,1.238 1.141,0 2.079,-0.696 2.079,-1.681 z"
               style="fill:#231f20" />
            <path
               inkscape:connector-curvature="0"
               id="path1844"
               d="m 2897.446,2973.264 c -0.084,-0.061 -0.168,-0.181 -0.168,-0.337 0,-0.216 0.18,-0.396 0.409,-0.396 0.084,0 0.168,0.023 0.229,0.072 0.637,0.433 1.298,0.661 1.972,0.661 0.746,0 1.286,-0.385 1.286,-0.986 v -0.023 c 0,-0.625 -0.733,-0.866 -1.551,-1.095 -0.974,-0.276 -2.056,-0.613 -2.056,-1.755 v -0.024 c 0,-1.069 0.89,-1.779 2.116,-1.779 0.662,0 1.383,0.204 1.984,0.529 0.121,0.071 0.229,0.204 0.229,0.385 0,0.216 -0.181,0.396 -0.409,0.396 -0.084,0 -0.156,-0.024 -0.205,-0.048 -0.529,-0.301 -1.094,-0.481 -1.623,-0.481 -0.733,0 -1.202,0.385 -1.202,0.901 v 0.025 c 0,0.589 0.77,0.816 1.599,1.069 0.962,0.289 1.996,0.661 1.996,1.78 v 0.023 c 0,1.178 -0.974,1.863 -2.212,1.863 -0.819,0 -1.72,-0.299 -2.394,-0.78 z"
               style="fill:#231f20" />
            <path
               inkscape:connector-curvature="0"
               id="path1846"
               d="m 2903.492,2972.278 v -3.751 h -0.505 c -0.217,0 -0.409,-0.192 -0.409,-0.409 0,-0.229 0.192,-0.408 0.409,-0.408 h 0.505 v -1.467 c 0,-0.253 0.192,-0.469 0.457,-0.469 0.252,0 0.469,0.216 0.469,0.469 v 1.467 h 1.611 c 0.229,0 0.421,0.192 0.421,0.408 0,0.229 -0.192,0.409 -0.421,0.409 h -1.611 v 3.632 c 0,0.756 0.421,1.033 1.046,1.033 0.324,0 0.493,-0.084 0.565,-0.084 0.217,0 0.397,0.18 0.397,0.396 0,0.168 -0.108,0.301 -0.265,0.36 -0.265,0.108 -0.553,0.169 -0.914,0.169 -0.997,0 -1.755,-0.492 -1.755,-1.755 z"
               style="fill:#231f20" />
            <path
               inkscape:connector-curvature="0"
               id="path1848"
               d="m 2907.543,2965.761 c 0,-0.3 0.24,-0.493 0.541,-0.493 0.313,0 0.553,0.193 0.553,0.493 v 0.157 c 0,0.288 -0.241,0.492 -0.553,0.492 -0.301,0 -0.541,-0.204 -0.541,-0.492 z m 0.084,2.357 c 0,-0.252 0.205,-0.469 0.457,-0.469 0.264,0 0.469,0.205 0.469,0.469 v 5.398 c 0,0.265 -0.192,0.469 -0.457,0.469 -0.265,0 -0.469,-0.204 -0.469,-0.469 z"
               style="fill:#231f20" />
            <path
               inkscape:connector-curvature="0"
               id="path1850"
               d="m 2909.838,2970.847 v -0.024 c 0,-1.755 1.371,-3.246 3.186,-3.246 1.034,0 1.731,0.396 2.284,0.902 0.072,0.061 0.145,0.18 0.145,0.324 0,0.253 -0.205,0.445 -0.445,0.445 -0.12,0 -0.229,-0.049 -0.301,-0.108 -0.445,-0.409 -0.95,-0.745 -1.695,-0.745 -1.262,0 -2.224,1.069 -2.224,2.404 v 0.023 c 0,1.348 0.986,2.417 2.285,2.417 0.709,0 1.274,-0.325 1.731,-0.757 0.06,-0.061 0.144,-0.121 0.265,-0.121 0.229,0 0.42,0.205 0.42,0.422 0,0.107 -0.048,0.216 -0.12,0.288 -0.589,0.589 -1.298,0.997 -2.344,0.997 -1.816,10e-4 -3.187,-1.478 -3.187,-3.221 z"
               style="fill:#231f20" />
            <path
               inkscape:connector-curvature="0"
               id="path1852"
               d="m 2842.725,2979.997 v -0.024 c 0,-2.309 1.695,-4.353 4.22,-4.353 1.274,0 2.104,0.338 2.874,0.902 0.108,0.084 0.192,0.217 0.192,0.385 0,0.264 -0.216,0.48 -0.469,0.48 -0.108,0 -0.204,-0.048 -0.3,-0.12 -0.601,-0.457 -1.274,-0.769 -2.333,-0.769 -1.864,0 -3.198,1.574 -3.198,3.45 v 0.023 c 0,2.008 1.287,3.499 3.331,3.499 0.961,0 1.852,-0.373 2.428,-0.842 v -2.092 h -2.26 c -0.229,0 -0.42,-0.192 -0.42,-0.422 0,-0.24 0.192,-0.432 0.42,-0.432 h 2.706 c 0.252,0 0.469,0.217 0.469,0.48 v 2.561 c 0,0.229 -0.108,0.434 -0.325,0.578 -0.77,0.564 -1.804,1.021 -3.054,1.021 -2.646,0 -4.281,-1.921 -4.281,-4.325 z"
               style="fill:#231f20" />
            <path
               inkscape:connector-curvature="0"
               id="path1854"
               d="m 2857.21,2983.772 c 0,0.252 -0.192,0.469 -0.457,0.469 -0.252,0 -0.457,-0.205 -0.457,-0.469 v -0.674 c -0.421,0.674 -1.058,1.215 -2.128,1.215 -1.503,0 -2.381,-1.01 -2.381,-2.489 v -3.45 c 0,-0.265 0.192,-0.469 0.457,-0.469 0.252,0 0.469,0.204 0.469,0.469 v 3.222 c 0,1.154 0.625,1.876 1.719,1.876 1.058,0 1.864,-0.782 1.864,-1.947 v -3.15 c 0,-0.265 0.192,-0.469 0.457,-0.469 0.252,0 0.457,0.204 0.457,0.469 z"
               style="fill:#231f20" />
            <path
               inkscape:connector-curvature="0"
               id="path1856"
               d="m 2858.339,2982.376 v -0.023 c 0,-1.311 1.082,-2.008 2.657,-2.008 0.793,0 1.358,0.108 1.912,0.265 v -0.217 c 0,-1.118 -0.685,-1.695 -1.852,-1.695 -0.625,0 -1.154,0.145 -1.611,0.349 -0.061,0.024 -0.121,0.036 -0.168,0.036 -0.216,0 -0.409,-0.18 -0.409,-0.396 0,-0.192 0.132,-0.337 0.253,-0.385 0.613,-0.264 1.238,-0.421 2.032,-0.421 0.877,0 1.551,0.229 2.008,0.685 0.421,0.422 0.637,1.022 0.637,1.816 v 3.402 c 0,0.265 -0.192,0.457 -0.445,0.457 -0.265,0 -0.445,-0.192 -0.445,-0.434 v -0.564 c -0.433,0.564 -1.154,1.07 -2.248,1.07 -1.155,0 -2.321,-0.661 -2.321,-1.937 z m 4.58,-0.48 v -0.602 c -0.457,-0.132 -1.07,-0.264 -1.827,-0.264 -1.167,0 -1.815,0.505 -1.815,1.286 v 0.024 c 0,0.781 0.721,1.238 1.563,1.238 1.142,0 2.079,-0.696 2.079,-1.682 z"
               style="fill:#231f20" />
            <path
               inkscape:connector-curvature="0"
               id="path1858"
               d="m 2865.551,2982.534 v -3.752 h -0.505 c -0.216,0 -0.409,-0.191 -0.409,-0.408 0,-0.229 0.192,-0.409 0.409,-0.409 h 0.505 v -1.466 c 0,-0.253 0.193,-0.47 0.457,-0.47 0.252,0 0.469,0.217 0.469,0.47 v 1.466 h 1.611 c 0.229,0 0.421,0.192 0.421,0.409 0,0.229 -0.192,0.408 -0.421,0.408 h -1.611 v 3.631 c 0,0.758 0.421,1.034 1.046,1.034 0.325,0 0.493,-0.084 0.565,-0.084 0.216,0 0.397,0.181 0.397,0.396 0,0.169 -0.108,0.301 -0.265,0.36 -0.265,0.108 -0.553,0.169 -0.914,0.169 -0.997,0 -1.755,-0.493 -1.755,-1.754 z"
               style="fill:#231f20" />
            <path
               inkscape:connector-curvature="0"
               id="path1860"
               d="m 2872.139,2984.325 c -1.708,0 -3.102,-1.311 -3.102,-3.234 v -0.024 c 0,-1.791 1.262,-3.233 2.981,-3.233 1.84,0 2.886,1.502 2.886,3.15 0,0.252 -0.205,0.432 -0.433,0.432 h -4.497 c 0.132,1.348 1.082,2.104 2.188,2.104 0.77,0 1.334,-0.301 1.792,-0.722 0.072,-0.061 0.156,-0.108 0.264,-0.108 0.229,0 0.409,0.181 0.409,0.397 0,0.107 -0.048,0.217 -0.144,0.301 -0.589,0.564 -1.286,0.937 -2.344,0.937 z m 1.84,-3.595 c -0.096,-1.13 -0.746,-2.116 -1.984,-2.116 -1.082,0 -1.899,0.901 -2.02,2.116 z"
               style="fill:#231f20" />
            <path
               inkscape:connector-curvature="0"
               id="path1862"
               d="m 2876.057,2978.374 c 0,-0.253 0.205,-0.469 0.457,-0.469 0.265,0 0.469,0.204 0.469,0.469 v 0.637 c 0.408,-0.613 0.961,-1.178 2.007,-1.178 1.01,0 1.659,0.541 1.996,1.238 0.445,-0.686 1.106,-1.238 2.188,-1.238 1.431,0 2.308,0.962 2.308,2.5 v 3.439 c 0,0.264 -0.204,0.469 -0.457,0.469 -0.265,0 -0.469,-0.205 -0.469,-0.469 v -3.223 c 0,-1.202 -0.601,-1.875 -1.611,-1.875 -0.938,0 -1.707,0.697 -1.707,1.923 v 3.175 c 0,0.264 -0.205,0.469 -0.469,0.469 -0.253,0 -0.457,-0.205 -0.457,-0.469 v -3.247 c 0,-1.165 -0.613,-1.851 -1.599,-1.851 -0.986,0 -1.731,0.817 -1.731,1.959 v 3.139 c 0,0.264 -0.193,0.469 -0.458,0.469 -0.264,0 -0.469,-0.205 -0.469,-0.469 v -5.398 z"
               style="fill:#231f20" />
            <path
               inkscape:connector-curvature="0"
               id="path1864"
               d="m 2886.538,2982.376 v -0.023 c 0,-1.311 1.082,-2.008 2.657,-2.008 0.793,0 1.358,0.108 1.912,0.265 v -0.217 c 0,-1.118 -0.685,-1.695 -1.852,-1.695 -0.625,0 -1.154,0.145 -1.611,0.349 -0.06,0.024 -0.12,0.036 -0.168,0.036 -0.216,0 -0.409,-0.18 -0.409,-0.396 0,-0.192 0.132,-0.337 0.252,-0.385 0.613,-0.264 1.238,-0.421 2.032,-0.421 0.878,0 1.551,0.229 2.008,0.685 0.421,0.422 0.637,1.022 0.637,1.816 v 3.402 c 0,0.265 -0.192,0.457 -0.445,0.457 -0.264,0 -0.445,-0.192 -0.445,-0.434 v -0.564 c -0.433,0.564 -1.154,1.07 -2.248,1.07 -1.154,0 -2.32,-0.661 -2.32,-1.937 z m 4.581,-0.48 v -0.602 c -0.457,-0.132 -1.07,-0.264 -1.827,-0.264 -1.167,0 -1.816,0.505 -1.816,1.286 v 0.024 c 0,0.781 0.721,1.238 1.563,1.238 1.142,0 2.08,-0.696 2.08,-1.682 z"
               style="fill:#231f20" />
            <path
               inkscape:connector-curvature="0"
               id="path1866"
               d="m 2893.569,2975.812 c 0,-0.252 0.205,-0.469 0.458,-0.469 0.264,0 0.469,0.217 0.469,0.469 v 7.96 c 0,0.264 -0.192,0.469 -0.457,0.469 -0.265,0 -0.469,-0.205 -0.469,-0.469 v -7.96 z"
               style="fill:#231f20" />
            <path
               inkscape:connector-curvature="0"
               id="path1868"
               d="m 2895.697,2982.376 v -0.023 c 0,-1.311 1.082,-2.008 2.657,-2.008 0.793,0 1.359,0.108 1.912,0.265 v -0.217 c 0,-1.118 -0.685,-1.695 -1.852,-1.695 -0.625,0 -1.154,0.145 -1.611,0.349 -0.06,0.024 -0.12,0.036 -0.168,0.036 -0.216,0 -0.409,-0.18 -0.409,-0.396 0,-0.192 0.132,-0.337 0.253,-0.385 0.613,-0.264 1.238,-0.421 2.031,-0.421 0.878,0 1.551,0.229 2.008,0.685 0.421,0.422 0.637,1.022 0.637,1.816 v 3.402 c 0,0.265 -0.192,0.457 -0.445,0.457 -0.264,0 -0.445,-0.192 -0.445,-0.434 v -0.564 c -0.433,0.564 -1.154,1.07 -2.248,1.07 -1.154,0 -2.32,-0.661 -2.32,-1.937 z m 4.581,-0.48 v -0.602 c -0.457,-0.132 -1.07,-0.264 -1.827,-0.264 -1.167,0 -1.816,0.505 -1.816,1.286 v 0.024 c 0,0.781 0.721,1.238 1.563,1.238 1.142,0 2.08,-0.696 2.08,-1.682 z"
               style="fill:#231f20" />
          </g>
        </g>
      </g>
    </g>
  </g>
</svg>
