<?xml version="1.0" encoding="UTF-8" standalone="no"?>
<svg
   xmlns:dc="http://purl.org/dc/elements/1.1/"
   xmlns:cc="http://creativecommons.org/ns#"
   xmlns:rdf="http://www.w3.org/1999/02/22-rdf-syntax-ns#"
   xmlns:svg="http://www.w3.org/2000/svg"
   xmlns="http://www.w3.org/2000/svg"
   xmlns:xlink="http://www.w3.org/1999/xlink"
   xmlns:sodipodi="http://sodipodi.sourceforge.net/DTD/sodipodi-0.dtd"
   xmlns:inkscape="http://www.inkscape.org/namespaces/inkscape"
   width="13mm"
   height="18mm"
   viewBox="0 0 13 18"
   version="1.1"
   id="svg5745"
   sodipodi:docname="reversa.svg"
   inkscape:version="1.0rc1 (09960d6, 2020-04-09)">
  <defs
     id="defs5739">
    <clipPath
       id="SVGID_4_">
      <use
         id="use927"
         style="overflow:visible"
         xlink:href="#SVGID_3_"
         x="0"
         y="0"
         width="100%"
         height="100%" />
    </clipPath>
    <rect
       height="474.207"
       width="1094.546"
       y="-117.51"
       x="1990.1331"
       id="SVGID_3_" />
    <clipPath
       id="SVGID_6_">
      <use
         xlink:href="#SVGID_5_"
         style="overflow:visible"
         id="use1017"
         x="0"
         y="0"
         width="100%"
         height="100%" />
    </clipPath>
    <circle
       id="SVGID_5_"
       cx="2286.6079"
       cy="2654.2849"
       r="51.238998" />
    <clipPath
       id="SVGID_12_">
      <use
         xlink:href="#SVGID_11_"
         style="overflow:visible"
         id="use1053"
         x="0"
         y="0"
         width="100%"
         height="100%" />
    </clipPath>
    <circle
       id="SVGID_11_"
       cx="2774.25"
       cy="2654.2849"
       r="51.237999" />
  </defs>
  <sodipodi:namedview
     id="base"
     pagecolor="#ffffff"
     bordercolor="#666666"
     borderopacity="1.0"
     inkscape:pageopacity="0.0"
     inkscape:pageshadow="2"
     inkscape:zoom="7.7289048"
     inkscape:cx="59.031467"
     inkscape:cy="33.592648"
     inkscape:document-units="mm"
     inkscape:current-layer="layer1"
     inkscape:document-rotation="0"
     showgrid="false"
     inkscape:window-width="1251"
     inkscape:window-height="787"
     inkscape:window-x="115"
     inkscape:window-y="23"
     inkscape:window-maximized="0" />
  <metadata
     id="metadata5742">
    <rdf:RDF>
      <cc:Work
         rdf:about="">
        <dc:format>image/svg+xml</dc:format>
        <dc:type
           rdf:resource="http://purl.org/dc/dcmitype/StillImage" />
        <dc:title></dc:title>
      </cc:Work>
    </rdf:RDF>
  </metadata>
  <g
     inkscape:label="Capa 1"
     inkscape:groupmode="layer"
     id="layer1">
    <g
       transform="matrix(0.26458333,0,0,0.26458333,-694.4651,-772.6575)"
       id="g1794">
      <g
         id="g1776">
        <path
           inkscape:connector-curvature="0"
           id="path1764"
           d="m 2625.875,2923.411 c 0,-1.499 1.214,-2.713 2.713,-2.713 1.499,0 2.713,1.214 2.713,2.713 v 0.856 c 0.785,-1.856 2.07,-3.569 3.676,-3.569 1.678,0 2.642,1.106 2.642,2.642 0,1.428 -0.928,2.284 -2.035,2.534 -2.749,0.643 -4.283,2.748 -4.283,6.604 v 5.067 c 0,1.499 -1.214,2.713 -2.713,2.713 -1.499,0 -2.713,-1.214 -2.713,-2.713 z"
           style="fill:#00416e" />
        <path
           inkscape:connector-curvature="0"
           id="path1766"
           d="m 2647.184,2940.471 c -5.747,0 -9.994,-4.033 -9.994,-9.887 v -0.071 c 0,-5.461 3.89,-9.958 9.458,-9.958 6.389,0 9.208,5.247 9.208,9.209 0,1.57 -1.106,2.605 -2.534,2.605 h -10.744 c 0.536,2.463 2.249,3.747 4.676,3.747 1.499,0 2.749,-0.464 3.855,-1.284 0.393,-0.286 0.75,-0.429 1.32,-0.429 1.214,0 2.106,0.929 2.106,2.142 0,0.714 -0.321,1.249 -0.714,1.606 -1.676,1.429 -3.853,2.32 -6.637,2.32 z m 3.498,-11.492 c -0.321,-2.428 -1.749,-4.069 -4.033,-4.069 -2.249,0 -3.712,1.606 -4.141,4.069 z"
           style="fill:#00416e" />
        <path
           inkscape:connector-curvature="0"
           id="path1768"
           d="m 2633.942,2963.958 h -0.143 c -0.75,0 -1.249,-0.465 -1.57,-1.179 l -6.924,-15.633 c -0.071,-0.25 -0.179,-0.5 -0.179,-0.749 0,-0.715 0.607,-1.356 1.392,-1.356 0.785,0 1.178,0.464 1.392,1.07 l 5.96,14.42 6.068,-14.491 c 0.178,-0.535 0.571,-0.999 1.285,-0.999 0.75,0 1.356,0.606 1.356,1.356 0,0.249 -0.071,0.499 -0.143,0.678 l -6.96,15.704 c -0.32,0.714 -0.784,1.179 -1.534,1.179 z"
           style="fill:#00416e" />
        <path
           inkscape:connector-curvature="0"
           id="path1770"
           d="m 2652.324,2964.1 c -5.068,0 -9.208,-3.891 -9.208,-9.602 v -0.071 c 0,-5.318 3.748,-9.602 8.852,-9.602 5.461,0 8.566,4.462 8.566,9.352 0,0.75 -0.607,1.285 -1.285,1.285 H 2645.9 c 0.393,3.997 3.212,6.246 6.496,6.246 2.284,0 3.962,-0.893 5.318,-2.142 0.214,-0.179 0.464,-0.321 0.785,-0.321 0.678,0 1.214,0.535 1.214,1.178 0,0.321 -0.143,0.643 -0.428,0.893 -1.75,1.678 -3.82,2.784 -6.961,2.784 z m 5.461,-10.672 c -0.286,-3.355 -2.213,-6.282 -5.889,-6.282 -3.213,0 -5.64,2.677 -5.997,6.282 z"
           style="fill:#00416e" />
        <path
           inkscape:connector-curvature="0"
           id="path1772"
           d="m 2663.246,2946.432 c 0,-0.75 0.606,-1.392 1.356,-1.392 0.785,0 1.392,0.606 1.392,1.392 v 3.462 c 1.356,-3.069 4.034,-4.925 6.354,-4.925 0.821,0 1.356,0.606 1.356,1.392 0,0.749 -0.5,1.284 -1.213,1.392 -3.569,0.429 -6.496,3.105 -6.496,8.424 v 6.281 c 0,0.75 -0.571,1.393 -1.356,1.393 -0.786,0 -1.392,-0.607 -1.392,-1.393 v -16.026 z"
           style="fill:#00416e" />
        <path
           inkscape:connector-curvature="0"
           id="path1774"
           d="m 2625.519,2985.336 c -0.25,-0.178 -0.5,-0.535 -0.5,-0.999 0,-0.643 0.536,-1.178 1.214,-1.178 0.25,0 0.5,0.071 0.678,0.214 1.892,1.285 3.855,1.963 5.854,1.963 2.213,0 3.819,-1.142 3.819,-2.926 v -0.072 c 0,-1.855 -2.177,-2.569 -4.604,-3.248 -2.891,-0.82 -6.104,-1.82 -6.104,-5.211 v -0.071 c 0,-3.177 2.642,-5.282 6.282,-5.282 1.963,0 4.104,0.606 5.889,1.57 0.357,0.214 0.678,0.606 0.678,1.143 0,0.642 -0.536,1.178 -1.214,1.178 -0.25,0 -0.464,-0.072 -0.606,-0.143 -1.571,-0.893 -3.248,-1.428 -4.818,-1.428 -2.177,0 -3.569,1.142 -3.569,2.677 v 0.071 c 0,1.749 2.284,2.427 4.747,3.176 2.855,0.857 5.925,1.964 5.925,5.283 v 0.071 c 0,3.498 -2.891,5.532 -6.567,5.532 -2.429,0 -5.105,-0.892 -7.104,-2.32 z"
           style="fill:#00416e" />
      </g>
      <g
         id="g1780">
        <path
           inkscape:connector-curvature="0"
           id="path1778"
           d="m 2650.379,2987.499 c -4.316,0 -8.112,-3.059 -9.025,-7.271 -0.158,-0.729 0.305,-1.447 1.034,-1.605 0.729,-0.158 1.448,0.305 1.605,1.033 0.646,2.98 3.331,5.143 6.386,5.143 3.603,0 6.534,-2.931 6.534,-6.533 0,-3.604 -2.931,-6.534 -6.534,-6.534 -2.09,0 -4.07,1.013 -5.297,2.708 -0.437,0.604 -1.281,0.739 -1.885,0.302 -0.604,-0.437 -0.739,-1.281 -0.302,-1.886 1.733,-2.395 4.531,-3.824 7.484,-3.824 5.092,0 9.234,4.143 9.234,9.234 0,5.091 -4.142,9.233 -9.234,9.233 z"
           style="fill:#548a7f" />
      </g>
      <g
         id="g1784">
        <path
           inkscape:connector-curvature="0"
           id="path1782"
           d="m 2659.601,2987.463 c -0.746,0 -1.35,-0.605 -1.35,-1.351 v -15.733 c 0,-0.745 0.604,-1.35 1.35,-1.35 0.746,0 1.35,0.604 1.35,1.35 v 15.733 c 0,0.746 -0.604,1.351 -1.35,1.351 z"
           style="fill:#548a7f" />
      </g>
      <g
         id="g1788">
        <path
           inkscape:connector-curvature="0"
           id="path1786"
           d="m 2643.52,2982.092 -2.474,0.736 c -0.595,0.177 -1.158,-0.356 -1.014,-0.96 l 0.599,-2.511 0.599,-2.51 c 0.144,-0.604 0.888,-0.824 1.338,-0.398 l 1.874,1.773 1.875,1.774 c 0.451,0.427 0.271,1.181 -0.324,1.358 z"
           style="fill:#548a7f" />
      </g>
      <g
         id="g1792">
        <path
           inkscape:connector-curvature="0"
           id="path1790"
           d="M 2643.984,2975.997"
           style="fill:#548a7f" />
      </g>
    </g>
  </g>
</svg>
