<?xml version="1.0" encoding="UTF-8" standalone="no"?>
<svg
   xmlns:dc="http://purl.org/dc/elements/1.1/"
   xmlns:cc="http://creativecommons.org/ns#"
   xmlns:rdf="http://www.w3.org/1999/02/22-rdf-syntax-ns#"
   xmlns:svg="http://www.w3.org/2000/svg"
   xmlns="http://www.w3.org/2000/svg"
   xmlns:sodipodi="http://sodipodi.sourceforge.net/DTD/sodipodi-0.dtd"
   xmlns:inkscape="http://www.inkscape.org/namespaces/inkscape"
   sodipodi:docname="slogan2.svg"
   inkscape:version="1.0rc1 (09960d6, 2020-04-09)"
   id="svg5745"
   version="1.1"
   viewBox="0 0 153 30"
   height="30mm"
   width="153mm">
  <defs
     id="defs5739" />
  <sodipodi:namedview
     inkscape:window-maximized="0"
     inkscape:window-y="23"
     inkscape:window-x="115"
     inkscape:window-height="787"
     inkscape:window-width="1251"
     showgrid="false"
     inkscape:document-rotation="0"
     inkscape:current-layer="layer1"
     inkscape:document-units="mm"
     inkscape:cy="153.69445"
     inkscape:cx="259.83263"
     inkscape:zoom="1.3105386"
     inkscape:pageshadow="2"
     inkscape:pageopacity="0.0"
     borderopacity="1.0"
     bordercolor="#666666"
     pagecolor="#ffffff"
     id="base" />
  <metadata
     id="metadata5742">
    <rdf:RDF>
      <cc:Work
         rdf:about="">
        <dc:format>image/svg+xml</dc:format>
        <dc:type
           rdf:resource="http://purl.org/dc/dcmitype/StillImage" />
        <dc:title></dc:title>
      </cc:Work>
    </rdf:RDF>
  </metadata>
  <g
     id="layer1"
     inkscape:groupmode="layer"
     inkscape:label="Capa 1">
    <g
       transform="matrix(0.26458333,0,0,0.26458333,-839.55164,-198.85561)"
       id="g5616">
      <rect
         x="3562.6941"
         y="825.797"
         style="fill:#ffffff"
         width="1.113"
         height="10.027"
         id="rect5516" />
      <rect
         x="3583.3669"
         y="796.73499"
         style="fill:#ffffff"
         width="1.113"
         height="10.027"
         id="rect5518" />
      <rect
         x="3602.7539"
         y="819.25098"
         style="fill:#ffffff"
         width="1.113"
         height="10.028"
         id="rect5520" />
      <g
         id="g5540">
        <g
           id="g5526">
          <path
             inkscape:connector-curvature="0"
             style="fill:#0a6436"
             d="m 3289.695,761.274 c -7.11,13.078 -13.923,35.244 0.276,60.489 3.736,6.643 13.353,6.581 17.045,-0.087 7.175,-12.96 14.081,-35.047 -0.242,-60.543 -3.748,-6.673 -13.423,-6.583 -17.079,0.141 z"
             id="path5522" />
          <path
             inkscape:connector-curvature="0"
             style="fill:#2b2b2c"
             d="m 3304.181,861.118 h -11.47 v -63.254 c 0,-3.168 2.568,-5.735 5.735,-5.735 v 0 c 3.167,0 5.735,2.567 5.735,5.735 z"
             id="path5524" />
        </g>
        <path
           inkscape:connector-curvature="0"
           style="fill:#e0a839"
           d="m 3265.485,861.118 h -88.55 v -66.746 c 0,-12.042 9.762,-21.804 21.804,-21.804 h 44.943 c 12.042,0 21.804,9.762 21.804,21.804 v 66.746 z"
           id="path5528" />
        <g
           id="g5534">
          <path
             inkscape:connector-curvature="0"
             style="fill:#0d542d"
             d="m 3276.19,832.306 v 0 c -11.314,0 -20.485,-9.171 -20.485,-20.485 v 0 c 0,-11.313 9.171,-20.485 20.485,-20.485 v 0 c 11.314,0 20.485,9.172 20.485,20.485 v 0 c 0,11.314 -9.171,20.485 -20.485,20.485 z"
             id="path5530" />
          <path
             inkscape:connector-curvature="0"
             style="fill:#2b2b2c"
             d="m 3281.712,861.118 h -11.47 v -43.693 c 0,-3.168 2.567,-5.735 5.735,-5.735 v 0 c 3.167,0 5.735,2.567 5.735,5.735 z"
             id="path5532" />
        </g>
        <path
           inkscape:connector-curvature="0"
           style="fill:#c65241"
           d="m 3200.856,820.676 v 0 c -5.743,0 -10.441,-4.699 -10.441,-10.441 v 0 c 0,-5.742 4.698,-10.441 10.441,-10.441 v 0 c 5.742,0 10.441,4.699 10.441,10.441 v 0 c 0,5.742 -4.698,10.441 -10.441,10.441 z"
           id="path5536" />
        <path
           inkscape:connector-curvature="0"
           style="fill:#2b2b2c"
           d="m 3248.303,861.118 h -30.662 v -39.015 c 0,-6.601 5.4,-12 12,-12 h 6.662 c 6.6,0 12,5.399 12,12 z"
           id="path5538" />
      </g>
      <g
         id="g5558">
        <path
           inkscape:connector-curvature="0"
           style="fill:#c45241"
           d="m 3437.476,861.952 h -41.695 c -0.699,0 -1.266,-0.566 -1.266,-1.266 v -38.123 c 0,-12.213 9.9,-22.113 22.113,-22.113 v 0 c 12.212,0 22.113,9.9 22.113,22.113 v 38.123 c 0,0.699 -0.566,1.266 -1.265,1.266 z"
           id="path5542" />
        <path
           inkscape:connector-curvature="0"
           style="fill:#e0a839"
           d="m 3407.797,861.952 h -41.695 c -0.699,0 -1.266,-0.566 -1.266,-1.266 v -20.848 c 0,-12.213 9.9,-22.113 22.113,-22.113 v 0 c 12.212,0 22.113,9.9 22.113,22.113 v 20.848 c 0,0.699 -0.566,1.266 -1.265,1.266 z"
           id="path5544" />
        <path
           inkscape:connector-curvature="0"
           style="fill:#e0a839"
           d="m 3478.672,861.952 h -41.695 c -0.699,0 -1.266,-0.566 -1.266,-1.266 v -11.121 c 0,-12.212 9.9,-22.112 22.113,-22.112 v 0 c 12.213,0 22.113,9.9 22.113,22.112 v 11.121 c 0,0.699 -0.566,1.266 -1.265,1.266 z"
           id="path5546" />
        <path
           inkscape:connector-curvature="0"
           style="fill:#e0a839"
           d="m 3374.286,842.53 v 0 c -2.433,1.621 -5.75,0.958 -7.371,-1.475 l -18.501,-27.751 c -1.622,-2.433 -0.958,-5.75 1.474,-7.372 v 0 c 2.432,-1.622 5.75,-0.959 7.371,1.474 l 18.501,27.752 c 1.623,2.432 0.959,5.75 -1.474,7.372 z"
           id="path5548" />
        <path
           inkscape:connector-curvature="0"
           style="fill:#e0a839"
           d="m 3494.929,824.079 v 0 c 1.751,2.353 1.263,5.679 -1.089,7.43 l -14.779,10.999 c -2.353,1.751 -5.679,1.264 -7.43,-1.089 v 0 c -1.751,-2.353 -1.263,-5.679 1.089,-7.43 l 14.78,-11 c 2.353,-1.751 5.679,-1.263 7.429,1.09 z"
           id="path5550" />
        <circle
           style="fill:#2b2b2c"
           cx="3386.9141"
           cy="810.62"
           r="13.289"
           id="circle5552" />
        <circle
           style="fill:#c45241"
           cx="3456.9031"
           cy="819.92102"
           r="13.289"
           id="circle5554" />
        <circle
           style="fill:#e0a839"
           cx="3416.593"
           cy="792.90002"
           r="13.289"
           id="circle5556" />
      </g>
      <g
         id="g5578">
        <path
           inkscape:connector-curvature="0"
           style="fill:#e0a839"
           d="m 3710.122,859.346 h 12.658 c 3.213,0 5.842,-2.629 5.842,-5.842 v -2.07 l -22.913,5.88 c 1.073,1.241 2.654,2.032 4.413,2.032 z"
           id="path5560" />
        <path
           inkscape:connector-curvature="0"
           style="fill:#e0a839"
           d="m 3704.28,853.504 c 0,0.633 0.105,1.242 0.294,1.814 l 24.047,-6.172 v -3.556 l -24.341,6.247 z"
           id="path5562" />
        <path
           inkscape:connector-curvature="0"
           style="fill:#e0a839"
           d="m 3748.095,814.071 c 0,-17.477 -14.168,-31.644 -31.645,-31.644 -17.476,0 -31.644,14.167 -31.644,31.644 0,13.163 8.039,24.446 19.473,29.215 v 6.266 l 24.341,-6.246 v -0.02 c 11.436,-4.769 19.475,-16.052 19.475,-29.215 z m -30.251,23.76 v -6.693 l 6.753,-5.463 c 0.715,-0.578 0.825,-1.626 0.247,-2.341 -0.578,-0.715 -1.626,-0.826 -2.34,-0.247 l -4.66,3.77 v -7.819 l 5.146,-4.094 c 0.72,-0.572 0.839,-1.619 0.267,-2.338 -0.572,-0.72 -1.62,-0.839 -2.339,-0.267 l -3.074,2.445 v -7.38 c 0,-0.919 -0.746,-1.664 -1.665,-1.664 -0.918,0 -1.664,0.745 -1.664,1.664 v 7.38 l -3.075,-2.445 c -0.718,-0.572 -1.767,-0.453 -2.339,0.266 -0.572,0.719 -0.453,1.766 0.267,2.338 l 5.146,4.095 v 7.818 l -4.66,-3.77 c -0.714,-0.578 -1.762,-0.467 -2.34,0.247 -0.578,0.716 -0.467,1.763 0.248,2.342 l 6.753,5.463 v 6.691 c -0.524,-0.056 -1.034,-0.142 -1.532,-0.251 -0.153,-0.033 -0.306,-0.067 -0.456,-0.106 -0.013,-0.004 -0.026,-0.007 -0.039,-0.011 -4.479,-1.175 -7.724,-4.475 -9.233,-9.43 0,-0.018 -0.01,-0.035 -0.013,-0.052 -0.612,-2.046 -0.925,-4.363 -0.932,-6.887 0.013,-5.22 2.46,-10.443 4.602,-14.018 l -0.018,-0.089 c 0.538,-0.898 1.057,-1.696 1.513,-2.361 3.565,-5.197 6.825,-7.821 7.77,-8.181 0.945,0.359 4.205,2.983 7.771,8.181 2.278,3.319 6.098,9.863 6.098,16.391 0,9.732 -4.627,16.021 -12.202,16.816 z"
           id="path5564" />
        <path
           inkscape:connector-curvature="0"
           style="fill:#c45241"
           d="m 3716.521,773.122 h 0.546 c 1.522,0 2.756,-1.233 2.756,-2.756 v -6.604 c 0,-1.521 -1.234,-2.756 -2.756,-2.756 h -0.546 c -1.522,0 -2.756,1.234 -2.756,2.756 v 6.604 c 0,1.522 1.235,2.756 2.756,2.756 z"
           id="path5566" />
        <path
           inkscape:connector-curvature="0"
           style="fill:#c45241"
           d="m 3734.916,781.187 c 1.077,1.076 2.821,1.076 3.898,0 l 4.669,-4.67 c 1.076,-1.076 1.076,-2.821 0,-3.897 l -0.386,-0.386 c -1.076,-1.076 -2.821,-1.076 -3.897,0 l -4.67,4.669 c -1.076,1.077 -1.076,2.821 0,3.898 z"
           id="path5568" />
        <path
           inkscape:connector-curvature="0"
           style="fill:#c45241"
           d="m 3695.062,781.187 c 1.076,1.076 2.821,1.076 3.897,0 l 0.386,-0.386 c 1.077,-1.077 1.077,-2.821 0,-3.898 l -4.669,-4.669 c -1.077,-1.076 -2.821,-1.076 -3.898,0 l -0.386,0.386 c -1.076,1.076 -1.076,2.821 0,3.897 z"
           id="path5570" />
        <polygon
           style="fill:#ffffff"
           points="3728.622,845.591 3728.622,843.305 3704.28,849.551 3704.28,851.838 "
           id="polygon5572" />
        <path
           inkscape:connector-curvature="0"
           style="fill:#ffffff"
           d="m 3705.709,857.314 22.913,-5.88 v -2.287 l -24.047,6.172 c 0.243,0.741 0.633,1.416 1.134,1.995 z"
           id="path5574" />
        <path
           inkscape:connector-curvature="0"
           style="fill:#188c52"
           d="m 3723.95,804.625 c -3.566,-5.197 -6.825,-7.821 -7.771,-8.181 -0.945,0.359 -4.205,2.983 -7.77,8.181 -0.457,0.665 -0.976,1.463 -1.513,2.361 l 0.018,0.089 c -2.142,3.574 -4.589,8.798 -4.602,14.018 0.01,2.523 0.319,4.841 0.932,6.887 0,0.017 0.01,0.034 0.013,0.052 1.509,4.955 4.754,8.255 9.233,9.43 0.013,0.004 0.026,0.007 0.039,0.011 0.15,0.039 0.303,0.073 0.456,0.106 0.498,0.109 1.008,0.195 1.532,0.251 v -6.691 l -6.753,-5.463 c -0.714,-0.579 -0.825,-1.626 -0.248,-2.342 0.578,-0.714 1.626,-0.825 2.34,-0.247 l 4.66,3.77 v -7.818 l -5.146,-4.095 c -0.72,-0.572 -0.839,-1.619 -0.267,-2.338 0.572,-0.719 1.621,-0.838 2.339,-0.266 l 3.075,2.445 v -7.38 c 0,-0.919 0.746,-1.664 1.664,-1.664 0.919,0 1.665,0.745 1.665,1.664 v 7.38 l 3.074,-2.445 c 0.72,-0.572 1.767,-0.453 2.339,0.267 0.572,0.719 0.453,1.766 -0.267,2.338 l -5.146,4.094 v 7.819 l 4.66,-3.77 c 0.714,-0.579 1.763,-0.468 2.34,0.247 0.578,0.715 0.468,1.763 -0.247,2.341 l -6.753,5.463 v 6.693 c 7.575,-0.795 12.204,-7.084 12.204,-16.815 0,-6.529 -3.822,-13.073 -6.1,-16.392 z"
           id="path5576" />
      </g>
      <path
         inkscape:connector-curvature="0"
         style="fill:#188c52"
         d="m 3342.539,824.266 h -19.228 c -1.975,0 -3.59,-1.616 -3.59,-3.59 v 0 c 0,-1.975 1.615,-3.59 3.59,-3.59 h 19.228 c 1.975,0 3.59,1.615 3.59,3.59 v 0 c -10e-4,1.974 -1.616,3.59 -3.59,3.59 z"
         id="path5580" />
      <path
         inkscape:connector-curvature="0"
         style="fill:#188c52"
         d="m 3336.514,811.062 v 19.228 c 0,1.975 -1.615,3.59 -3.59,3.59 v 0 c -1.974,0 -3.59,-1.615 -3.59,-3.59 v -19.228 c 0,-1.975 1.616,-3.59 3.59,-3.59 v 0 c 1.975,0 3.59,1.615 3.59,3.59 z"
         id="path5582" />
      <path
         inkscape:connector-curvature="0"
         style="fill:#188c52"
         d="m 3528.523,824.266 h -19.228 c -1.975,0 -3.59,-1.616 -3.59,-3.59 v 0 c 0,-1.975 1.615,-3.59 3.59,-3.59 h 19.228 c 1.974,0 3.59,1.615 3.59,3.59 v 0 c 0,1.974 -1.615,3.59 -3.59,3.59 z"
         id="path5584" />
      <g
         id="g5590">
        <path
           inkscape:connector-curvature="0"
           style="fill:#188c52"
           d="m 3654.634,816.054 h -19.228 c -1.974,0 -3.59,-1.615 -3.59,-3.59 v 0 c 0,-1.974 1.616,-3.59 3.59,-3.59 h 19.228 c 1.975,0 3.59,1.616 3.59,3.59 v 0 c 0,1.975 -1.616,3.59 -3.59,3.59 z"
           id="path5586" />
        <path
           inkscape:connector-curvature="0"
           style="fill:#188c52"
           d="m 3654.634,829.252 h -19.228 c -1.974,0 -3.59,-1.615 -3.59,-3.59 v 0 c 0,-1.975 1.616,-3.59 3.59,-3.59 h 19.228 c 1.975,0 3.59,1.615 3.59,3.59 v 0 c 0,1.975 -1.616,3.59 -3.59,3.59 z"
           id="path5588" />
      </g>
      <path
         inkscape:connector-curvature="0"
         style="fill:#dea639"
         d="m 3569.604,820.431 v 0 -0.007 c -0.115,-0.302 -0.25,-0.592 -0.405,-0.871 L 3565,810.536 c -0.705,-1.513 -2.859,-1.503 -3.549,0.017 l -4.134,9.104 c -0.505,0.947 -0.792,2.028 -0.792,3.177 0,3.734 3.027,6.761 6.761,6.761 3.734,0 6.761,-3.026 6.761,-6.761 0,-0.846 -0.156,-1.656 -0.44,-2.403 z"
         id="path5592" />
      <path
         inkscape:connector-curvature="0"
         style="fill:#dea639"
         d="m 3590.687,792.039 v 0 -0.008 c -0.12,-0.313 -0.26,-0.614 -0.421,-0.904 l -4.365,-9.374 c -0.732,-1.572 -2.972,-1.562 -3.689,0.018 l -4.297,9.465 c -0.525,0.984 -0.824,2.108 -0.824,3.302 0,3.882 3.147,7.028 7.029,7.028 3.882,0 7.028,-3.146 7.028,-7.028 0,-0.881 -0.163,-1.723 -0.458,-2.499 z"
         id="path5594" />
      <path
         inkscape:connector-curvature="0"
         style="fill:#dea639"
         d="m 3609.855,815.125 v 0 -0.008 c -0.122,-0.319 -0.266,-0.628 -0.43,-0.923 l -4.458,-9.573 c -0.748,-1.606 -3.035,-1.595 -3.767,0.018 l -4.389,9.666 c -0.536,1.005 -0.841,2.153 -0.841,3.372 0,3.964 3.214,7.178 7.178,7.178 3.964,0 7.178,-3.214 7.178,-7.178 0,-0.9 -0.166,-1.76 -0.468,-2.552 z"
         id="path5596" />
      <path
         inkscape:connector-curvature="0"
         style="fill:#2b2b2c"
         d="m 3607.484,856.239 h -8.12 v -25.466 c 0,-2.243 1.818,-4.061 4.06,-4.061 v 0 c 2.242,0 4.06,1.817 4.06,4.061 z"
         id="path5598" />
      <path
         inkscape:connector-curvature="0"
         style="fill:#2b2b2c"
         d="m 3567.344,856.239 h -8.12 v -19.43 c 0,-2.243 1.818,-4.061 4.06,-4.061 v 0 c 2.242,0 4.06,1.817 4.06,4.061 z"
         id="path5600" />
      <g
         id="g5604">
        <path
           inkscape:connector-curvature="0"
           style="fill:#2b2b2c"
           d="m 3587.984,856.239 h -8.12 v -47.863 c 0,-2.242 1.818,-4.06 4.06,-4.06 v 0 c 2.242,0 4.06,1.817 4.06,4.06 z"
           id="path5602" />
      </g>
      <path
         inkscape:connector-curvature="0"
         style="fill:#c45241"
         d="m 3607.317,818.208 v 0 -0.005 c -0.073,-0.19 -0.159,-0.375 -0.257,-0.551 l -2.662,-5.716 c -0.446,-0.959 -1.812,-0.952 -2.249,0.011 l -2.621,5.771 c -0.32,0.601 -0.502,1.286 -0.502,2.014 0,2.366 1.919,4.285 4.286,4.285 2.367,0 4.286,-1.919 4.286,-4.285 0,-0.537 -0.1,-1.05 -0.28,-1.524 z"
         id="path5606" />
      <path
         inkscape:connector-curvature="0"
         style="fill:#c45241"
         d="m 3588.081,795.041 v 0 -0.005 c -0.071,-0.187 -0.156,-0.367 -0.251,-0.54 l -2.606,-5.596 c -0.438,-0.939 -1.774,-0.933 -2.203,0.011 l -2.565,5.65 c -0.313,0.588 -0.492,1.259 -0.492,1.971 0,2.318 1.878,4.196 4.196,4.196 2.317,0 4.196,-1.878 4.196,-4.196 0,-0.526 -0.098,-1.028 -0.274,-1.491 z"
         id="path5608" />
      <path
         inkscape:connector-curvature="0"
         style="fill:#c45241"
         d="m 3567.024,823.418 v 0 l -10e-4,-0.005 c -0.068,-0.18 -0.149,-0.353 -0.242,-0.52 l -2.507,-5.384 c -0.42,-0.902 -1.707,-0.896 -2.118,0.011 l -2.468,5.436 c -0.302,0.565 -0.473,1.211 -0.473,1.896 0,2.229 1.808,4.037 4.037,4.037 2.23,0 4.037,-1.808 4.037,-4.037 0,-0.505 -0.095,-0.988 -0.265,-1.434 z"
         id="path5610" />
      <g
         id="g5614">
        <path
           inkscape:connector-curvature="0"
           style="fill:#dea639"
           d="m 3623.74,860.779 c 0.027,-2.812 -18.135,-5.264 -40.565,-5.478 -22.43,-0.213 -40.635,1.894 -40.662,4.705 -0.01,0.941 2.032,1.843 5.583,2.634 l 70.012,0.666 c 3.565,-0.723 5.623,-1.585 5.632,-2.527 z"
           id="path5612" />
      </g>
    </g>
  </g>
</svg>
