<?xml version="1.0" encoding="UTF-8" standalone="no"?>
<svg
   xmlns:dc="http://purl.org/dc/elements/1.1/"
   xmlns:cc="http://creativecommons.org/ns#"
   xmlns:rdf="http://www.w3.org/1999/02/22-rdf-syntax-ns#"
   xmlns:svg="http://www.w3.org/2000/svg"
   xmlns="http://www.w3.org/2000/svg"
   xmlns:sodipodi="http://sodipodi.sourceforge.net/DTD/sodipodi-0.dtd"
   xmlns:inkscape="http://www.inkscape.org/namespaces/inkscape"
   sodipodi:docname="slogan.svg"
   inkscape:version="1.0rc1 (09960d6, 2020-04-09)"
   id="svg5745"
   version="1.1"
   viewBox="0 0 293 130"
   height="130mm"
   width="293mm">
  <defs
     id="defs5739" />
  <sodipodi:namedview
     inkscape:window-maximized="0"
     inkscape:window-y="80"
     inkscape:window-x="453"
     inkscape:window-height="787"
     inkscape:window-width="1251"
     showgrid="false"
     inkscape:document-rotation="0"
     inkscape:current-layer="layer1"
     inkscape:document-units="mm"
     inkscape:cy="503.75891"
     inkscape:cx="975.83102"
     inkscape:zoom="0.40217249"
     inkscape:pageshadow="2"
     inkscape:pageopacity="0.0"
     borderopacity="1.0"
     bordercolor="#666666"
     pagecolor="#ffffff"
     id="base" />
  <metadata
     id="metadata5742">
    <rdf:RDF>
      <cc:Work
         rdf:about="">
        <dc:format>image/svg+xml</dc:format>
        <dc:type
           rdf:resource="http://purl.org/dc/dcmitype/StillImage" />
        <dc:title></dc:title>
      </cc:Work>
    </rdf:RDF>
  </metadata>
  <g
     id="layer1"
     inkscape:groupmode="layer"
     inkscape:label="Capa 1">
    <rect
       id="rect3488"
       height="3.1705019"
       width="0.35189584"
       style="fill:#ffffff;stroke-width:0.264583"
       y="79.110168"
       x="178.58987" />
    <rect
       id="rect3490"
       height="3.1705019"
       width="0.35189584"
       style="fill:#ffffff;stroke-width:0.264583"
       y="69.921722"
       x="185.12587" />
    <rect
       id="rect3492"
       height="3.1702375"
       width="0.35189584"
       style="fill:#ffffff;stroke-width:0.264583"
       y="77.040863"
       x="191.25548" />
    <g
       transform="matrix(0.26458333,0,0,0.26458333,-215.18315,35.6513)"
       id="g3512">
      <g
         id="g3498">
        <path
           id="path3494"
           d="m 1162.053,87.152 c -8.496,15.627 -16.638,42.115 0.33,72.282 4.465,7.938 15.957,7.864 20.368,-0.104 8.574,-15.487 16.827,-41.879 -0.289,-72.347 -4.48,-7.973 -16.041,-7.865 -20.409,0.169 z"
           style="fill:#0a6436"
           inkscape:connector-curvature="0" />
        <path
           id="path3496"
           d="m 1179.362,206.461 h -13.707 v -76.113 c 0,-3.494 2.833,-6.327 6.327,-6.327 h 1.053 c 3.494,0 6.327,2.832 6.327,6.326 z"
           style="fill:#2b2b2c"
           inkscape:connector-curvature="0" />
      </g>
      <path
         id="path3500"
         d="m 1133.123,206.461 h -105.814 v -84.01 c 0,-12.042 9.762,-21.804 21.803,-21.804 h 62.207 c 12.042,0 21.804,9.762 21.804,21.804 z"
         style="fill:#e0a839"
         inkscape:connector-curvature="0" />
      <g
         id="g3506">
        <path
           id="path3502"
           d="m 1147.795,172.033 h -3.76 c -12.481,0 -22.6,-10.118 -22.6,-22.599 v -3.76 c 0,-12.481 10.118,-22.599 22.6,-22.599 h 3.76 c 12.481,0 22.599,10.118 22.599,22.599 v 3.76 c 0,12.481 -10.118,22.599 -22.599,22.599 z"
           style="fill:#0d542d"
           inkscape:connector-curvature="0" />
        <path
           id="path3504"
           d="m 1152.514,206.461 h -13.707 v -52.739 c 0,-3.494 2.833,-6.327 6.327,-6.327 h 1.053 c 3.494,0 6.327,2.833 6.327,6.327 z"
           style="fill:#2b2b2c"
           inkscape:connector-curvature="0" />
      </g>
      <path
         id="path3508"
         d="m 1056.852,158.135 h -1.916 c -6.335,0 -11.519,-5.183 -11.519,-11.519 V 144.7 c 0,-6.335 5.184,-11.519 11.519,-11.519 h 1.916 c 6.335,0 11.519,5.183 11.519,11.519 v 1.916 c 0,6.336 -5.183,11.519 -11.519,11.519 z"
         style="fill:#c65241"
         inkscape:connector-curvature="0" />
      <path
         id="path3510"
         d="m 1112.591,206.461 h -36.64 V 157.5 c 0,-6.6 5.399,-12 12,-12 h 12.64 c 6.6,0 12,5.4 12,12 z"
         style="fill:#2b2b2c"
         inkscape:connector-curvature="0" />
    </g>
    <g
       transform="matrix(0.26458333,0,0,0.26458333,-215.18315,35.6513)"
       id="g3530">
      <path
         id="path3514"
         d="m 1338.761,207.458 h -50.056 c -0.771,0 -1.396,-0.625 -1.396,-1.396 V 158.36 c 0,-13.473 10.922,-24.395 24.395,-24.395 h 4.059 c 13.473,0 24.395,10.922 24.395,24.395 v 47.702 c -10e-4,0.771 -0.626,1.396 -1.397,1.396 z"
         style="fill:#c45241"
         inkscape:connector-curvature="0" />
      <path
         id="path3516"
         d="m 1303.295,207.458 h -50.056 c -0.771,0 -1.396,-0.625 -1.396,-1.396 v -27.058 c 0,-13.473 10.922,-24.395 24.395,-24.395 h 4.059 c 13.473,0 24.395,10.922 24.395,24.395 v 27.058 c -10e-4,0.771 -0.626,1.396 -1.397,1.396 z"
         style="fill:#e0a839"
         inkscape:connector-curvature="0" />
      <path
         id="path3518"
         d="m 1387.989,207.458 h -50.056 c -0.771,0 -1.396,-0.625 -1.396,-1.396 v -15.435 c 0,-13.473 10.922,-24.395 24.395,-24.395 h 4.059 c 13.473,0 24.395,10.922 24.395,24.395 v 15.435 c -10e-4,0.771 -0.626,1.396 -1.397,1.396 z"
         style="fill:#e0a839"
         inkscape:connector-curvature="0" />
      <path
         id="path3520"
         d="m 1263.542,183.978 -0.812,0.541 c -2.684,1.789 -6.343,1.057 -8.132,-1.626 l -22.649,-33.974 c -1.789,-2.684 -1.058,-6.343 1.626,-8.132 l 0.812,-0.541 c 2.684,-1.789 6.343,-1.057 8.132,1.626 l 22.649,33.973 c 1.79,2.684 1.058,6.344 -1.626,8.133 z"
         style="fill:#e0a839"
         inkscape:connector-curvature="0" />
      <path
         id="path3522"
         d="m 1407.008,161.81 0.582,0.782 c 1.932,2.595 1.394,6.265 -1.202,8.196 l -18.442,13.726 c -2.595,1.932 -6.265,1.394 -8.196,-1.202 l -0.582,-0.782 c -1.932,-2.595 -1.394,-6.265 1.202,-8.196 l 18.443,-13.726 c 2.594,-1.932 6.264,-1.394 8.195,1.202 z"
         style="fill:#e0a839"
         inkscape:connector-curvature="0" />
      <circle
         id="circle3524"
         r="15.88"
         cy="146.118"
         cx="1278.225"
         style="fill:#2b2b2c" />
      <circle
         id="circle3526"
         r="15.88"
         cy="157.233"
         cx="1361.86"
         style="fill:#c45241" />
      <circle
         id="circle3528"
         r="15.88"
         cy="124.944"
         cx="1313.6899"
         style="fill:#e0a839" />
    </g>
    <g
       transform="matrix(0.26458333,0,0,0.26458333,-215.18315,35.6513)"
       id="g3550">
      <path
         id="path3532"
         d="m 1664.446,204.344 h 15.125 c 3.84,0 6.981,-3.141 6.981,-6.981 v -2.474 l -27.38,7.027 c 1.283,1.482 3.171,2.428 5.274,2.428 z"
         style="fill:#e0a839"
         inkscape:connector-curvature="0" />
      <path
         id="path3534"
         d="m 1657.465,197.363 c 0,0.756 0.126,1.484 0.351,2.167 l 28.736,-7.375 v -4.248 l -29.087,7.465 z"
         style="fill:#e0a839"
         inkscape:connector-curvature="0" />
      <path
         id="path3536"
         d="m 1709.822,150.242 c 0,-20.884 -16.93,-37.813 -37.813,-37.813 -20.883,0 -37.813,16.93 -37.813,37.813 0,15.729 9.606,29.211 23.27,34.911 v 7.487 l 29.087,-7.465 v -0.022 c 13.663,-5.699 23.269,-19.182 23.269,-34.911 z m -36.149,28.391 v -7.998 l 8.069,-6.528 c 0.855,-0.69 0.986,-1.943 0.295,-2.796 -0.69,-0.855 -1.943,-0.988 -2.796,-0.296 l -5.568,4.505 v -9.344 l 6.15,-4.892 c 0.86,-0.683 1.002,-1.935 0.319,-2.793 -0.684,-0.86 -1.935,-1.003 -2.795,-0.319 l -3.674,2.922 v -8.818 c 0,-1.098 -0.891,-1.989 -1.989,-1.989 -1.098,0 -1.988,0.891 -1.988,1.989 v 8.818 l -3.674,-2.922 c -0.859,-0.684 -2.111,-0.542 -2.795,0.317 -0.684,0.859 -0.542,2.11 0.318,2.794 l 6.15,4.893 v 9.343 l -5.568,-4.505 c -0.854,-0.69 -2.106,-0.558 -2.797,0.296 -0.69,0.854 -0.558,2.106 0.295,2.798 l 8.07,6.528 v 7.996 c -0.626,-0.067 -1.235,-0.169 -1.831,-0.3 -0.183,-0.041 -0.365,-0.082 -0.544,-0.128 -0.016,-0.004 -0.032,-0.008 -0.047,-0.013 -5.352,-1.403 -9.229,-5.347 -11.032,-11.268 -0.01,-0.021 -0.01,-0.042 -0.016,-0.063 -0.731,-2.444 -1.105,-5.213 -1.113,-8.229 0.016,-6.237 2.939,-12.479 5.499,-16.75 l -0.021,-0.105 c 0.643,-1.074 1.263,-2.027 1.809,-2.822 4.261,-6.21 8.155,-9.345 9.285,-9.775 1.13,0.43 5.024,3.564 9.285,9.775 2.722,3.967 7.288,11.786 7.288,19.587 0,11.628 -5.532,19.144 -14.584,20.092 z"
         style="fill:#e0a839"
         inkscape:connector-curvature="0" />
      <path
         id="path3538"
         d="m 1672.093,101.31 h 0.652 c 1.819,0 3.293,-1.475 3.293,-3.293 v -7.891 c 0,-1.819 -1.474,-3.293 -3.293,-3.293 h -0.652 c -1.819,0 -3.293,1.475 -3.293,3.293 v 7.891 c -10e-4,1.818 1.474,3.293 3.293,3.293 z"
         style="fill:#ffffff"
         inkscape:connector-curvature="0" />
      <path
         id="path3540"
         d="m 1694.073,110.947 c 1.286,1.286 3.372,1.286 4.658,0 l 5.58,-5.58 c 1.286,-1.286 1.286,-3.372 0,-4.658 l -0.461,-0.461 c -1.286,-1.286 -3.372,-1.286 -4.658,0 l -5.58,5.58 c -1.287,1.286 -1.287,3.372 0,4.658 z"
         style="fill:#ffffff"
         inkscape:connector-curvature="0" />
      <path
         id="path3542"
         d="m 1646.449,110.947 c 1.286,1.286 3.372,1.286 4.658,0 l 0.461,-0.461 c 1.286,-1.286 1.286,-3.372 0,-4.658 l -5.58,-5.58 c -1.286,-1.286 -3.372,-1.286 -4.658,0 l -0.461,0.461 c -1.286,1.286 -1.286,3.372 0,4.658 z"
         style="fill:#ffffff"
         inkscape:connector-curvature="0" />
      <polygon
         id="polygon3544"
         points="1657.465,192.64 1657.465,195.373 1686.552,187.908 1686.552,185.175 "
         style="fill:#ffffff" />
      <path
         id="path3546"
         d="m 1659.172,201.916 27.38,-7.027 v -2.733 l -28.736,7.375 c 0.292,0.886 0.758,1.693 1.356,2.385 z"
         style="fill:#ffffff"
         inkscape:connector-curvature="0" />
      <path
         id="path3548"
         d="m 1680.969,138.954 c -4.261,-6.21 -8.155,-9.345 -9.285,-9.775 -1.129,0.43 -5.024,3.564 -9.285,9.775 -0.546,0.795 -1.166,1.748 -1.809,2.822 l 0.021,0.105 c -2.56,4.271 -5.483,10.514 -5.499,16.75 0.01,3.016 0.382,5.785 1.113,8.229 0.01,0.021 0.01,0.042 0.016,0.063 1.803,5.921 5.681,9.865 11.032,11.268 0.016,0.004 0.031,0.009 0.047,0.013 0.179,0.046 0.361,0.087 0.544,0.128 0.595,0.13 1.205,0.233 1.831,0.3 v -7.996 l -8.07,-6.528 c -0.853,-0.692 -0.986,-1.943 -0.295,-2.798 0.69,-0.854 1.943,-0.986 2.797,-0.296 l 5.568,4.505 v -9.343 l -6.15,-4.893 c -0.86,-0.684 -1.002,-1.935 -0.318,-2.794 0.684,-0.859 1.936,-1.001 2.795,-0.317 l 3.674,2.922 v -8.818 c 0,-1.098 0.891,-1.989 1.988,-1.989 1.098,0 1.989,0.891 1.989,1.989 v 8.818 l 3.674,-2.922 c 0.86,-0.684 2.111,-0.542 2.795,0.319 0.684,0.859 0.541,2.11 -0.319,2.793 l -6.15,4.892 v 9.344 l 5.568,-4.505 c 0.854,-0.692 2.106,-0.56 2.796,0.296 0.69,0.853 0.56,2.106 -0.295,2.796 l -8.069,6.528 v 7.998 c 9.051,-0.949 14.584,-8.464 14.584,-20.093 0,-7.8 -4.566,-15.62 -7.288,-19.586 z"
         style="fill:#188c52"
         inkscape:connector-curvature="0" />
    </g>
    <path
       id="path3552"
       d="m 109.07113,78.625983 h -6.25369 c -0.57626,0 -1.04775,-0.471488 -1.04775,-1.04775 v -0.174361 c 0,-0.576262 0.47149,-1.04775 1.04775,-1.04775 h 6.25369 c 0.57626,0 1.04775,0.471488 1.04775,1.04775 v 0.174361 c 0,0.576262 -0.47149,1.04775 -1.04775,1.04775 z"
       style="fill:#ffffff;stroke-width:0.264583"
       inkscape:connector-curvature="0" />
    <path
       id="path3554"
       d="m 107.07935,74.364339 v 6.253692 c 0,0.576262 -0.47149,1.04775 -1.04775,1.04775 h -0.17436 c -0.57627,0 -1.04775,-0.471488 -1.04775,-1.04775 v -6.253692 c 0,-0.576262 0.47148,-1.04775 1.04775,-1.04775 h 0.17436 c 0.57626,0 1.04775,0.471488 1.04775,1.04775 z"
       style="fill:#ffffff;stroke-width:0.264583"
       inkscape:connector-curvature="0" />
    <path
       id="path3556"
       d="m 167.87319,78.625983 h -6.25369 c -0.57627,0 -1.04775,-0.471488 -1.04775,-1.04775 v -0.174361 c 0,-0.576262 0.47148,-1.04775 1.04775,-1.04775 h 6.25342 c 0.57626,0 1.04775,0.471488 1.04775,1.04775 v 0.174361 c 2.7e-4,0.576262 -0.47122,1.04775 -1.04748,1.04775 z"
       style="fill:#ffffff;stroke-width:0.264583"
       inkscape:connector-curvature="0" />
    <g
       transform="matrix(0.26458333,0,0,0.26458333,-215.18315,35.6513)"
       id="g3562">
      <path
         id="path3558"
         d="m 1598.469,152.612 h -23.636 c -2.178,0 -3.96,-1.782 -3.96,-3.96 v -0.659 c 0,-2.178 1.782,-3.96 3.96,-3.96 h 23.636 c 2.178,0 3.96,1.782 3.96,3.96 v 0.659 c 0,2.178 -1.782,3.96 -3.96,3.96 z"
         style="fill:#ffffff"
         inkscape:connector-curvature="0" />
      <path
         id="path3560"
         d="m 1598.469,168.383 h -23.636 c -2.178,0 -3.96,-1.782 -3.96,-3.96 v -0.659 c 0,-2.178 1.782,-3.96 3.96,-3.96 h 23.636 c 2.178,0 3.96,1.782 3.96,3.96 v 0.659 c 0,2.179 -1.782,3.96 -3.96,3.96 z"
         style="fill:#ffffff"
         inkscape:connector-curvature="0" />
    </g>
    <path
       id="path3564"
       d="m 180.77427,77.413662 v 0 -0.0021 c -0.0362,-0.09499 -0.0791,-0.18706 -0.12806,-0.275166 l -1.32768,-2.850886 c -0.22278,-0.478366 -0.90381,-0.474927 -1.12183,0.0056 l -1.30678,2.878402 c -0.15981,0.299508 -0.25056,0.641085 -0.25056,1.004093 0,1.180571 0.957,2.137834 2.13784,2.137834 1.18057,0 2.13756,-0.956998 2.13756,-2.137834 0,-0.267758 -0.0497,-0.523875 -0.1397,-0.759883 z"
       style="fill:#dea639;stroke-width:0.264583"
       inkscape:connector-curvature="0" />
    <path
       id="path3566"
       d="m 187.44018,68.436879 v 0 -0.0024 c -0.0378,-0.09896 -0.0823,-0.194469 -0.13308,-0.286015 l -1.38007,-2.963598 c -0.23151,-0.497152 -0.93954,-0.493712 -1.16628,0.0056 l -1.35864,2.992438 c -0.16589,0.31115 -0.26035,0.666485 -0.26035,1.043781 0,1.227402 0.99483,2.222235 2.22197,2.222235 1.2274,0 2.22224,-0.994833 2.22224,-2.222235 0,-0.278077 -0.0516,-0.544248 -0.14499,-0.789781 z"
       style="fill:#dea639;stroke-width:0.264583"
       inkscape:connector-curvature="0" />
    <path
       id="path3568"
       d="m 193.5002,75.735939 v 0 -0.0024 c -0.0386,-0.101071 -0.0841,-0.198438 -0.136,-0.2921 l -1.40943,-3.026569 c -0.23654,-0.507735 -0.95965,-0.504296 -1.19116,0.0056 l -1.38747,3.055938 c -0.1696,0.318029 -0.26591,0.680773 -0.26591,1.066271 0,1.253331 1.016,2.269331 2.26933,2.269331 1.25333,0 2.2696,-1.016 2.2696,-2.269331 0,-0.284163 -0.0526,-0.55589 -0.14817,-0.806715 z"
       style="fill:#dea639;stroke-width:0.264583"
       inkscape:connector-curvature="0" />
    <path
       id="path3570"
       d="m 192.7509,88.734918 h -2.56725 v -8.051535 c 0,-0.708819 0.57467,-1.283759 1.28376,-1.283759 v 0 c 0.70881,0 1.28375,0.574675 1.28375,1.283759 v 8.051535 z"
       style="fill:#2b2b2c;stroke-width:0.264583"
       inkscape:connector-curvature="0" />
    <path
       id="path3572"
       d="m 180.0599,88.734918 h -2.56726 v -6.14336 c 0,-0.708819 0.57468,-1.283759 1.28376,-1.283759 v 0 c 0.70882,0 1.28376,0.574675 1.28376,1.283759 v 6.14336 z"
       style="fill:#2b2b2c;stroke-width:0.264583"
       inkscape:connector-curvature="0" />
    <g
       transform="matrix(0.26458333,0,0,0.26458333,-215.18315,35.6513)"
       id="g3576">
      <path
         id="path3574"
         d="m 1518.496,200.631 h -9.703 v -57.194 c 0,-2.68 2.172,-4.852 4.852,-4.852 v 0 c 2.679,0 4.852,2.172 4.852,4.852 v 57.194 z"
         style="fill:#2b2b2c"
         inkscape:connector-curvature="0" />
    </g>
    <path
       id="path3578"
       d="m 192.69798,76.710929 v 0 -0.0013 c -0.023,-0.06032 -0.05,-0.118534 -0.0812,-0.174361 l -0.84138,-1.807104 c -0.14129,-0.303212 -0.57282,-0.301096 -0.7112,0.0034 l -0.82841,1.824566 c -0.10107,0.189707 -0.15875,0.4064 -0.15875,0.636323 0,0.748507 0.60642,1.354932 1.35493,1.354932 0.74824,0 1.35493,-0.606425 1.35493,-1.354932 0,-0.169598 -0.0315,-0.331787 -0.0884,-0.481541 z"
       style="fill:#c45241;stroke-width:0.264583"
       inkscape:connector-curvature="0" />
    <path
       id="path3580"
       d="m 186.61627,69.385939 v 0 -0.0013 c -0.0225,-0.059 -0.0492,-0.115887 -0.0796,-0.170656 l -0.82391,-1.769533 c -0.13811,-0.296863 -0.56092,-0.294746 -0.69639,0.0034 l -0.81121,1.786467 c -0.0992,0.186002 -0.15531,0.397933 -0.15531,0.623094 0,0.732895 0.59399,1.326885 1.32662,1.326885 0.7329,0 1.32689,-0.59399 1.32689,-1.326885 0,-0.165894 -0.0307,-0.324909 -0.0865,-0.471488 z"
       style="fill:#c45241;stroke-width:0.264583"
       inkscape:connector-curvature="0" />
    <path
       id="path3582"
       d="m 179.95882,78.358224 v 0 -0.0013 c -0.0217,-0.05689 -0.0474,-0.111655 -0.0765,-0.164307 l -0.79269,-1.702064 c -0.13282,-0.285486 -0.53949,-0.283634 -0.66966,0.0032 l -0.78052,1.718468 c -0.0952,0.178859 -0.14949,0.382853 -0.14949,0.599811 0,0.70485 0.5715,1.27635 1.27635,1.27635 0.70485,0 1.27635,-0.5715 1.27635,-1.27635 0,-0.160073 -0.0299,-0.313002 -0.0833,-0.453761 z"
       style="fill:#c45241;stroke-width:0.264583"
       inkscape:connector-curvature="0" />
    <g
       transform="matrix(0.26458333,0,0,0.26458333,-215.18315,35.6513)"
       id="g3586">
      <path
         id="path3584"
         d="m 1561.222,206.056 c 0.032,-3.36 -21.67,-6.29 -48.474,-6.545 -26.803,-0.255 -48.558,2.262 -48.59,5.622 -0.01,1.126 2.429,2.203 6.672,3.148 l 83.661,0.796 c 4.261,-0.865 6.72,-1.895 6.731,-3.021 z"
         style="fill:#dea639"
         inkscape:connector-curvature="0" />
    </g>
  </g>
</svg>
