<?xml version="1.0" encoding="UTF-8" standalone="no"?>
<svg
   xmlns:dc="http://purl.org/dc/elements/1.1/"
   xmlns:cc="http://creativecommons.org/ns#"
   xmlns:rdf="http://www.w3.org/1999/02/22-rdf-syntax-ns#"
   xmlns:svg="http://www.w3.org/2000/svg"
   xmlns="http://www.w3.org/2000/svg"
   xmlns:xlink="http://www.w3.org/1999/xlink"
   xmlns:sodipodi="http://sodipodi.sourceforge.net/DTD/sodipodi-0.dtd"
   xmlns:inkscape="http://www.inkscape.org/namespaces/inkscape"
   width="54mm"
   height="11mm"
   viewBox="0 0 54 11"
   version="1.1"
   id="svg5745"
   sodipodi:docname="socialab.svg"
   inkscape:version="1.0rc1 (09960d6, 2020-04-09)">
  <defs
     id="defs5739">
    <clipPath
       id="SVGID_4_">
      <use
         id="use927"
         style="overflow:visible"
         xlink:href="#SVGID_3_"
         x="0"
         y="0"
         width="100%"
         height="100%" />
    </clipPath>
    <rect
       height="474.207"
       width="1094.546"
       y="-117.51"
       x="1990.1331"
       id="SVGID_3_" />
    <clipPath
       id="SVGID_6_">
      <use
         xlink:href="#SVGID_5_"
         style="overflow:visible"
         id="use1017"
         x="0"
         y="0"
         width="100%"
         height="100%" />
    </clipPath>
    <circle
       id="SVGID_5_"
       cx="2286.6079"
       cy="2654.2849"
       r="51.238998" />
    <clipPath
       id="SVGID_12_">
      <use
         xlink:href="#SVGID_11_"
         style="overflow:visible"
         id="use1053"
         x="0"
         y="0"
         width="100%"
         height="100%" />
    </clipPath>
    <circle
       id="SVGID_11_"
       cx="2774.25"
       cy="2654.2849"
       r="51.237999" />
  </defs>
  <sodipodi:namedview
     id="base"
     pagecolor="#ffffff"
     bordercolor="#666666"
     borderopacity="1.0"
     inkscape:pageopacity="0.0"
     inkscape:pageshadow="2"
     inkscape:zoom="3.4621361"
     inkscape:cx="105.2303"
     inkscape:cy="30.907291"
     inkscape:document-units="mm"
     inkscape:current-layer="layer1"
     inkscape:document-rotation="0"
     showgrid="false"
     inkscape:window-width="1251"
     inkscape:window-height="787"
     inkscape:window-x="115"
     inkscape:window-y="23"
     inkscape:window-maximized="0" />
  <metadata
     id="metadata5742">
    <rdf:RDF>
      <cc:Work
         rdf:about="">
        <dc:format>image/svg+xml</dc:format>
        <dc:type
           rdf:resource="http://purl.org/dc/dcmitype/StillImage" />
        <dc:title></dc:title>
      </cc:Work>
    </rdf:RDF>
  </metadata>
  <g
     inkscape:label="Capa 1"
     inkscape:groupmode="layer"
     id="layer1">
    <g
       transform="matrix(0.26458333,0,0,0.26458333,-573.20609,-775.27019)"
       id="g2164">
      <path
         inkscape:connector-curvature="0"
         id="path2128"
         d="m 2369.937,2956.671 c 0.01,-0.01 0.018,-0.024 0.032,-0.01 -0.011,0 -0.021,0 -0.032,0.01 z"
         style="fill:none" />
      <path
         inkscape:connector-curvature="0"
         id="path2130"
         d="m 2369.913,2954.512 c 0,-0.184 0,-0.367 0,-0.551 0.01,0 0.017,0 0.025,0 0,-0.548 -0.026,-1.094 -0.104,-1.635 -0.211,-1.479 -0.632,-2.895 -1.253,-4.252 -0.689,-1.508 -1.602,-2.857 -2.852,-3.952 -2.127,-1.864 -4.604,-2.738 -7.444,-2.593 -1.449,0.074 -2.833,0.391 -4.165,0.945 -0.981,0.41 -1.865,0.971 -2.613,1.74 -0.333,0.342 -0.623,0.72 -0.937,1.102 -0.053,-0.147 -0.031,-0.271 -0.031,-0.392 0,-3.815 0,-7.631 0,-11.446 0,-0.143 0.01,-0.286 -0.01,-0.429 -0.058,-0.501 -0.276,-0.755 -0.751,-0.876 -2.005,0 -4.01,0 -6.015,0 -0.511,0.245 -0.673,0.658 -0.672,1.212 0.01,7.773 0.01,15.546 0.01,23.319 0,0.961 0.046,1.922 0.228,2.868 0.806,4.183 3.069,7.28 6.941,9.103 3.109,1.464 6.394,1.658 9.707,0.916 4.439,-0.993 7.482,-3.68 9.109,-7.931 0.544,-1.422 0.712,-2.932 0.831,-4.442 0,-0.182 0,-0.364 0,-0.546 0,-0.014 0.014,0 0.021,0 v 0 c -0.01,10e-4 -0.014,0 -0.021,0 0.01,-0.168 -0.067,-0.345 0.052,-0.501 0,-0.389 0,-0.777 0,-1.166 -0.121,-0.153 -0.038,-0.329 -0.055,-0.495 z m -8.299,6.233 c -0.79,1.627 -1.964,2.849 -3.785,3.27 -2.843,0.657 -5.407,-0.633 -6.643,-3.285 -0.654,-1.404 -0.923,-2.894 -0.987,-4.426 -0.069,-1.645 0.084,-3.268 0.623,-4.834 0.535,-1.555 1.404,-2.869 2.877,-3.681 2.042,-1.124 5.511,-1.087 7.424,1.884 0.757,1.176 1.153,2.473 1.356,3.84 0.105,0.709 0.154,1.422 0.152,2.139 -0.016,1.761 -0.237,3.487 -1.017,5.093 z"
         style="fill:#009de1" />
      <path
         inkscape:connector-curvature="0"
         id="path2132"
         d="m 2305.191,2932.577 c -0.383,-0.192 -0.808,-0.246 -1.202,-0.4 -0.961,0 -1.923,0 -2.884,0 -0.486,0.198 -0.672,0.557 -0.671,1.082 0.01,11.557 0.01,23.114 0.01,34.672 0,0.699 0.333,1.036 1.027,1.036 1.759,10e-4 3.519,10e-4 5.278,0 0.694,0 1.04,-0.339 1.04,-1.032 0,-10.4 0.01,-20.803 -0.01,-31.204 0,-1.895 -0.876,-3.297 -2.588,-4.154 z"
         style="fill:#009de1" />
      <path
         inkscape:connector-curvature="0"
         id="path2134"
         d="m 2257.581,2937.247 c 10e-4,0.592 0.366,0.953 0.958,0.953 1.8,0 3.6,0 5.4,0 0.573,0 0.947,-0.356 0.96,-0.926 0.01,-0.459 0.012,-0.92 0,-1.38 -0.063,-1.735 -1.217,-3.165 -2.894,-3.608 -0.101,-0.026 -0.227,0 -0.3,-0.109 -1.166,0 -2.333,0 -3.499,0 -0.506,0.262 -0.646,0.682 -0.633,1.235 0.032,1.278 0.01,2.556 0.012,3.835 z"
         style="fill:#009de1" />
      <path
         inkscape:connector-curvature="0"
         id="path2136"
         d="m 2369.937,2953.963 c 0,0 0,0.01 0,0.014 0,0.174 0,0.348 0,0.521 0,0.01 0,0.011 0,0.016 0.01,0 0.02,0.02 0.032,0 0,-0.185 0,-0.368 0,-0.553 -0.011,0 -0.021,-10e-4 -0.032,-10e-4 z"
         style="fill:#82ceef" />
      <path
         inkscape:connector-curvature="0"
         id="path2138"
         d="m 2369.913,2954.512 c 0.01,0.014 0.017,0 0.024,0 0,-0.01 0,-0.01 0,-0.016 0,-0.174 0,-0.348 0,-0.521 0,0 0,-0.01 0,-0.014 -0.01,0 -0.017,0 -0.025,0 0,0.184 0,0.368 0,0.551 z"
         style="fill:#82ceef" />
      <path
         inkscape:connector-curvature="0"
         id="path2140"
         d="m 2369.937,2956.688 c -0.011,0.178 0.024,0.357 -0.023,0.533 0.018,0 0.037,0 0.055,0 0,-0.184 0,-0.368 0,-0.553 -0.014,-0.018 -0.022,0 -0.032,0.01 0,0.01 0,0.011 0,0.017 z"
         style="fill:#9bd8f3" />
      <path
         inkscape:connector-curvature="0"
         id="path2142"
         d="m 2369.937,2956.688 c 0,-0.01 0,-0.012 0,-0.017 -0.01,0 -0.016,-0.01 -0.021,0 0,0.182 0,0.364 0,0.546 0.048,-0.176 0.013,-0.355 0.024,-0.533 z"
         style="fill:#9bd8f3" />
      <path
         inkscape:connector-curvature="0"
         id="path2144"
         d="m 2369.969,2955.008 c 0,-0.164 0,-0.328 0,-0.491 -0.012,0.017 -0.021,0 -0.032,0 0.012,0.165 -0.033,0.332 0.032,0.494 z"
         style="fill:#41b6e8" />
      <path
         inkscape:connector-curvature="0"
         id="path2146"
         d="m 2369.937,2954.514 c -0.01,0 -0.017,0.012 -0.024,0 0.018,0.166 -0.066,0.342 0.056,0.496 -0.065,-0.162 -0.02,-0.329 -0.032,-0.494 z"
         style="fill:#41b6e8" />
      <path
         inkscape:connector-curvature="0"
         id="path2148"
         d="m 2369.937,2956.671 c 0.011,0 0.021,0 0.032,-0.01 0,-0.163 0,-0.326 0,-0.49 -0.063,0.162 -0.021,0.331 -0.032,0.497 z"
         style="fill:#3bb4e8" />
      <path
         inkscape:connector-curvature="0"
         id="path2150"
         d="m 2369.917,2956.675 c 0.01,0 0.014,0 0.021,0 0.011,-0.166 -0.031,-0.335 0.032,-0.497 -0.121,0.157 -0.045,0.333 -0.053,0.501 z"
         style="fill:#3bb4e8" />
      <path
         inkscape:connector-curvature="0"
         id="path2152"
         d="m 2294.544,2948.369 c -0.092,-1.724 -0.818,-3.14 -2.124,-4.264 -1.208,-1.04 -2.631,-1.651 -4.165,-1.974 -3.111,-0.654 -6.244,-0.723 -9.381,-0.174 -1.749,0.305 -3.404,0.869 -4.876,1.886 -1.904,1.315 -3.117,3.089 -3.508,5.394 -0.146,0.857 0.212,1.291 1.079,1.291 1.688,0 3.375,0 5.063,0 0.773,0 1.033,-0.207 1.209,-0.97 0.321,-1.392 1.143,-2.333 2.519,-2.743 1.559,-0.465 3.135,-0.417 4.689,0 1.033,0.274 1.741,0.96 2.05,2.009 0.149,0.505 0.153,1.028 0.145,1.551 -0.011,0.671 -0.285,1.196 -0.835,1.587 -0.798,0.566 -1.72,0.785 -2.656,0.959 -1.708,0.318 -3.451,0.385 -5.163,0.68 -1.53,0.264 -3.062,0.527 -4.512,1.107 -2.031,0.813 -3.51,2.19 -4.19,4.311 -0.435,1.355 -0.457,2.76 -0.26,4.158 0.304,2.16 1.332,3.874 3.219,5.036 1.781,1.097 3.735,1.631 5.802,1.763 1.899,0.12 3.799,0.153 5.693,-0.111 1.77,-0.247 3.49,-0.656 5.087,-1.493 1.936,-1.015 3.42,-2.47 4.335,-4.469 0.58,-1.265 0.799,-2.616 0.818,-3.994 0.026,-1.8 0.01,-3.601 0.01,-5.813 -0.036,-1.634 0.066,-3.679 -0.044,-5.723 z m -7.301,9.922 c 0.037,1.024 -0.063,2.149 -0.443,3.216 -0.683,1.923 -2.173,2.877 -4.111,3.187 -1.065,0.171 -2.141,0.134 -3.202,-0.097 -2.003,-0.434 -2.822,-1.84 -2.596,-3.771 0.189,-1.611 1.248,-2.451 2.684,-2.932 1.268,-0.426 2.591,-0.563 3.906,-0.738 0.973,-0.131 1.934,-0.316 2.859,-0.658 0.503,-0.186 0.896,0.098 0.901,0.643 0.01,0.346 0,0.693 0,1.15 z"
         style="fill:#009de1" />
      <path
         inkscape:connector-curvature="0"
         id="path2154"
         d="m 2337.385,2948.814 c -0.012,-1.878 -0.689,-3.462 -2.134,-4.696 -1.48,-1.264 -3.241,-1.877 -5.122,-2.176 -2.331,-0.371 -4.676,-0.463 -7.027,-0.191 -1.662,0.191 -3.289,0.525 -4.808,1.255 -2.711,1.3 -4.517,3.317 -5.001,6.37 -0.108,0.679 0.27,1.149 0.955,1.15 1.77,0 3.539,0 5.309,0 0.627,-10e-4 0.94,-0.254 1.073,-0.864 0.328,-1.502 1.207,-2.487 2.707,-2.899 1.289,-0.354 2.589,-0.309 3.891,-0.109 1.458,0.222 2.658,1.092 2.831,2.932 0.139,1.473 -0.257,2.213 -1.615,2.808 -0.717,0.313 -1.479,0.466 -2.246,0.587 -1.715,0.273 -3.454,0.365 -5.165,0.678 -1.447,0.264 -2.896,0.524 -4.262,1.098 -2.021,0.85 -3.467,2.255 -4.102,4.389 -0.405,1.362 -0.425,2.764 -0.205,4.161 0.308,1.958 1.214,3.569 2.878,4.69 1.687,1.138 3.57,1.742 5.588,1.923 1.897,0.17 3.797,0.212 5.694,0 1.65,-0.184 3.275,-0.49 4.803,-1.169 3.734,-1.659 5.833,-4.473 5.952,-8.617 0.055,-1.88 0.01,-3.763 0.01,-5.645 0,-1.895 0.01,-3.786 0,-5.679 z m -7.544,11.868 c -0.349,1.838 -1.417,3.052 -3.146,3.717 -1.118,0.43 -2.279,0.416 -3.445,0.342 -0.448,-0.028 -0.892,-0.106 -1.323,-0.238 -1.523,-0.463 -2.314,-1.666 -2.257,-3.27 0.067,-1.893 1.279,-2.912 2.912,-3.403 1.209,-0.363 2.456,-0.506 3.699,-0.673 0.982,-0.131 1.954,-0.315 2.887,-0.662 0.477,-0.178 0.888,0.103 0.905,0.619 0.01,0.316 0,0.634 0,0.951 0.015,0.881 -0.068,1.75 -0.233,2.617 z"
         style="fill:#009de1" />
      <path
         inkscape:connector-curvature="0"
         id="path2156"
         d="m 2214.703,2942.518 c -2.9,-1.082 -5.903,-1.211 -8.906,-0.566 -4.514,0.971 -7.722,3.578 -9.334,7.952 -1.306,3.544 -1.359,7.175 -0.253,10.774 1.281,4.17 4.038,6.965 8.215,8.275 2.84,0.891 5.742,0.927 8.632,0.276 3.517,-0.791 6.284,-2.682 8.11,-5.838 1.377,-2.38 1.896,-4.979 1.894,-7.704 0,-1.383 -0.12,-2.756 -0.455,-4.102 -1.087,-4.368 -3.644,-7.479 -7.903,-9.067 z m 0.685,16.617 c -0.369,1.628 -1.108,3.045 -2.525,4.029 -1.114,0.775 -2.372,1.01 -3.693,1.001 -2.792,-0.019 -4.821,-1.563 -5.723,-4.358 -0.417,-1.293 -0.589,-2.626 -0.636,-4.139 -0.01,-1.441 0.092,-3.029 0.655,-4.547 0.606,-1.634 1.634,-2.93 3.291,-3.553 2.364,-0.888 5.334,-0.6 7.155,1.703 0.763,0.965 1.204,2.074 1.458,3.268 0.47,2.199 0.516,4.402 0.018,6.596 z"
         style="fill:#009de1" />
      <path
         inkscape:connector-curvature="0"
         id="path2158"
         d="m 2188.859,2954.808 c -1.33,-0.823 -2.809,-1.264 -4.307,-1.634 -1.863,-0.459 -3.742,-0.851 -5.608,-1.298 -0.945,-0.226 -1.868,-0.527 -2.67,-1.108 -0.397,-0.289 -0.72,-0.632 -0.875,-1.113 -0.389,-1.214 0.186,-2.375 1.503,-2.797 1.723,-0.553 3.46,-0.472 5.177,0.103 1.188,0.397 1.919,1.188 2.172,2.425 0.095,0.465 0.446,0.72 0.934,0.721 0.839,0 1.678,0 2.517,0 0.829,0 1.657,0 2.485,-10e-4 0.732,0 1.11,-0.451 0.982,-1.177 -0.349,-1.983 -1.304,-3.617 -2.865,-4.886 -1.656,-1.347 -3.613,-1.942 -5.687,-2.233 -1.924,-0.27 -3.851,-0.276 -5.779,-0.056 -1.445,0.165 -2.859,0.462 -4.203,1.049 -3.882,1.696 -5.25,5.197 -4.461,9.036 0.336,1.638 1.464,2.745 2.864,3.585 1.358,0.813 2.864,1.231 4.38,1.608 2.02,0.503 4.071,0.882 6.054,1.533 0.708,0.232 1.424,0.445 2.056,0.857 0.595,0.39 1.041,0.889 1.149,1.623 0.186,1.264 -0.436,2.44 -1.702,3.039 -2.082,0.984 -4.2,0.953 -6.279,0 -1.25,-0.572 -2.04,-1.568 -2.318,-2.94 -0.12,-0.591 -0.449,-0.85 -1.052,-0.851 -1.616,0 -3.232,0 -4.848,0 -0.74,0 -1.129,0.419 -1.044,1.146 0.234,2.005 1.084,3.711 2.547,5.101 1.441,1.368 3.189,2.148 5.104,2.582 2.486,0.563 4.999,0.652 7.526,0.357 1.672,-0.194 3.302,-0.551 4.814,-1.335 3.77,-1.952 5.201,-5.598 4.408,-9.498 -0.348,-1.732 -1.502,-2.93 -2.974,-3.841 z"
         style="fill:#009de1" />
      <path
         inkscape:connector-curvature="0"
         id="path2160"
         d="m 2252.097,2958.754 c -1.688,-0.01 -3.376,0 -5.063,-10e-4 -0.56,10e-4 -0.86,0.25 -0.996,0.802 -0.191,0.777 -0.469,1.519 -0.895,2.202 -0.863,1.388 -2.115,2.148 -3.727,2.341 -1.561,0.188 -3.037,0.021 -4.329,-0.987 -0.914,-0.712 -1.539,-1.63 -1.96,-2.693 -0.698,-1.759 -0.906,-3.596 -0.801,-5.474 0.074,-1.333 0.282,-2.641 0.8,-3.882 0.617,-1.477 1.537,-2.698 2.999,-3.433 1.061,-0.533 2.201,-0.568 3.353,-0.448 0.791,0.082 1.543,0.299 2.224,0.722 1.115,0.693 1.723,1.739 2.048,2.978 0.163,0.62 0.425,0.823 1.069,0.823 0.849,0 1.698,0 2.547,0 0.859,0 1.72,-0.031 2.577,0.01 0.603,0.03 1.176,-0.406 1.038,-1.212 -0.146,-0.848 -0.352,-1.679 -0.713,-2.464 -1.244,-2.705 -3.352,-4.464 -6.102,-5.48 -2.693,-0.996 -5.479,-1.202 -8.302,-0.74 -3.858,0.631 -6.912,2.551 -8.854,5.978 -2.164,3.817 -2.595,7.94 -1.546,12.161 1.083,4.357 3.771,7.389 8.045,8.896 2.749,0.971 5.573,1.01 8.408,0.447 4.854,-0.963 8.299,-4.519 9.145,-9.393 0.112,-0.657 -0.293,-1.151 -0.965,-1.153 z"
         style="fill:#009de1" />
      <path
         inkscape:connector-curvature="0"
         id="path2162"
         d="m 2264.892,2945.71 c -0.083,-1.673 -1.5,-3.182 -3.167,-3.353 -1.019,-0.104 -2.043,-0.029 -3.064,-0.043 -0.739,-0.01 -1.081,0.346 -1.081,1.089 0,4.081 0,8.161 0,12.241 0,4.11 0,8.222 0,12.332 0,0.595 0.339,0.984 0.893,0.986 1.841,0.01 3.682,0 5.522,0 0.336,0 0.584,-0.157 0.768,-0.428 0.146,-0.216 0.14,-0.464 0.14,-0.71 0,-7.229 0,-14.459 -10e-4,-21.689 0,-0.141 0,-0.285 -0.01,-0.428 z"
         style="fill:#009de1" />
    </g>
  </g>
</svg>
