<?xml version="1.0" encoding="UTF-8" standalone="no"?>
<svg
   xmlns:dc="http://purl.org/dc/elements/1.1/"
   xmlns:cc="http://creativecommons.org/ns#"
   xmlns:rdf="http://www.w3.org/1999/02/22-rdf-syntax-ns#"
   xmlns:svg="http://www.w3.org/2000/svg"
   xmlns="http://www.w3.org/2000/svg"
   xmlns:sodipodi="http://sodipodi.sourceforge.net/DTD/sodipodi-0.dtd"
   xmlns:inkscape="http://www.inkscape.org/namespaces/inkscape"
   sodipodi:docname="usb.svg"
   inkscape:version="1.0rc1 (09960d6, 2020-04-09)"
   id="svg12798"
   version="1.1"
   viewBox="0 0 21 21"
   height="21mm"
   width="21mm">
  <defs
     id="defs12792" />
  <sodipodi:namedview
     inkscape:window-maximized="0"
     inkscape:window-y="23"
     inkscape:window-x="70"
     inkscape:window-height="787"
     inkscape:window-width="1251"
     showgrid="false"
     inkscape:document-rotation="0"
     inkscape:current-layer="layer1"
     inkscape:document-units="mm"
     inkscape:cy="60.980969"
     inkscape:cx="92.991701"
     inkscape:zoom="3.0280241"
     inkscape:pageshadow="2"
     inkscape:pageopacity="0.0"
     borderopacity="1.0"
     bordercolor="#666666"
     pagecolor="#ffffff"
     id="base" />
  <metadata
     id="metadata12795">
    <rdf:RDF>
      <cc:Work
         rdf:about="">
        <dc:format>image/svg+xml</dc:format>
        <dc:type
           rdf:resource="http://purl.org/dc/dcmitype/StillImage" />
        <dc:title></dc:title>
      </cc:Work>
    </rdf:RDF>
  </metadata>
  <g
     id="layer1"
     inkscape:groupmode="layer"
     inkscape:label="Capa 1">
    <g
       transform="matrix(0.26458333,0,0,0.26458333,-303.40053,-487.41461)"
       id="g2342">
      <path
         id="path2336"
         d="m 1148.926,1916.357 c 0.081,-0.05 0.175,-0.087 0.24,-0.151 5.976,-5.979 11.95,-11.961 17.749,-17.766 -1.276,-1.892 -2.701,-3.645 -3.728,-5.605 -1.782,-3.402 -1.913,-7.092 -1.202,-10.815 0.648,-3.393 2.397,-6.157 4.838,-8.57 5.664,-5.599 11.275,-11.253 16.909,-16.883 0.832,-0.831 1.873,-0.841 2.691,-0.019 0.575,0.578 1.136,1.17 1.751,1.807 0.174,-0.159 0.31,-0.274 0.436,-0.399 4.664,-4.662 9.327,-9.324 13.987,-13.989 0.158,-0.157 0.284,-0.347 0.425,-0.521 0.588,0 1.176,0 1.764,0 0.234,0.267 0.454,0.546 0.704,0.796 5.977,5.982 11.958,11.962 17.934,17.944 0.336,0.337 0.643,0.703 0.963,1.057 0,0.392 0,0.783 0,1.176 -0.32,0.353 -0.626,0.72 -0.963,1.057 -4.405,4.412 -8.815,8.818 -13.223,13.229 -0.25,0.25 -0.487,0.511 -0.816,0.855 0.661,0.643 1.303,1.236 1.91,1.864 0.775,0.8 0.779,1.666 -0.016,2.462 -6.063,6.078 -12.065,12.22 -18.242,18.181 -2.435,2.351 -5.568,3.503 -8.987,3.938 -3.588,0.457 -6.905,-0.229 -10.021,-1.921 -1.254,-0.681 -2.368,-1.63 -3.504,-2.511 -0.345,-0.268 -0.551,-0.715 -0.848,-1.116 -0.469,0.446 -0.729,0.685 -0.979,0.934 -5.495,5.493 -10.985,10.989 -16.487,16.474 -0.396,0.395 -0.881,0.697 -1.325,1.043 -0.653,0 -1.307,0 -1.96,0 0,-0.853 0,-1.701 0,-2.551 z m 58.692,-33.502 c -7.587,-7.588 -15.131,-15.132 -22.718,-22.719 -0.198,0.187 -0.459,0.423 -0.708,0.671 -4.918,4.916 -9.83,9.84 -14.757,14.748 -1.358,1.354 -2.5,2.84 -3.279,4.607 -1.918,4.355 -1.629,8.584 0.857,12.594 1.58,2.549 3.819,4.542 6.067,6.506 3.026,2.643 6.455,3.855 10.512,3.404 3.105,-0.346 5.744,-1.619 7.913,-3.74 5.437,-5.318 10.777,-10.737 16.113,-16.071 z m 12.469,-18.835 c -5.443,-5.443 -10.907,-10.907 -16.264,-16.265 -4.305,4.307 -8.677,8.682 -12.976,12.981 5.378,5.378 10.835,10.834 16.263,16.261 4.328,-4.328 8.713,-8.711 12.977,-12.977 z"
         style="fill:#188c52"
         inkscape:connector-curvature="0" />
      <path
         id="path2338"
         d="m 1198.922,1857.494 c 0.253,-0.416 0.419,-0.827 0.702,-1.127 0.919,-0.972 1.881,-1.902 2.827,-2.849 0.978,-0.978 1.929,-0.977 2.908,0 0.899,0.9 1.785,1.814 2.703,2.695 0.717,0.688 0.914,1.9 -10e-4,2.705 -1.002,0.882 -1.903,1.879 -2.852,2.821 -0.906,0.899 -1.75,0.962 -2.692,0.093 -1.03,-0.95 -2.022,-1.947 -2.969,-2.98 -0.297,-0.324 -0.393,-0.834 -0.626,-1.358 z m 4.832,-0.632 c -0.214,0.227 -0.403,0.426 -0.645,0.682 0.33,0.289 0.58,0.509 0.849,0.745 0.209,-0.22 0.405,-0.428 0.62,-0.655 -0.258,-0.242 -0.491,-0.46 -0.824,-0.772 z"
         style="fill:#188c52"
         inkscape:connector-curvature="0" />
      <path
         id="path2340"
         d="m 1210.176,1858.893 c 0.519,0.307 0.991,0.489 1.335,0.81 0.978,0.911 1.911,1.872 2.849,2.825 0.871,0.887 0.869,1.717 0,2.605 -0.938,0.954 -1.926,1.861 -2.827,2.848 -0.968,1.061 -1.983,0.783 -2.773,0.085 -1.024,-0.907 -1.971,-1.903 -2.916,-2.896 -0.718,-0.752 -0.66,-1.828 0.083,-2.573 0.967,-0.971 1.917,-1.959 2.918,-2.894 0.345,-0.321 0.817,-0.502 1.335,-0.81 z m -10e-4,5.721 c 0.231,-0.245 0.444,-0.471 0.676,-0.717 -0.275,-0.25 -0.509,-0.463 -0.787,-0.715 -0.225,0.236 -0.414,0.436 -0.625,0.658 0.265,0.279 0.485,0.511 0.736,0.774 z"
         style="fill:#188c52"
         inkscape:connector-curvature="0" />
    </g>
  </g>
</svg>
